<mxfile host="app.diagrams.net" agent="Mozilla/5.0 (Windows NT 10.0; Win64; x64) AppleWebKit/537.36 (KHTML, like Gecko) Chrome/129.0.0.0 Safari/537.36" version="24.7.16">
  <diagram name="Page-1" id="YRxMpB5jxvg5gdD3_2Ce">
    <mxGraphModel dx="1750" dy="883" grid="1" gridSize="10" guides="1" tooltips="1" connect="1" arrows="1" fold="1" page="1" pageScale="1" pageWidth="827" pageHeight="1169" math="0" shadow="0">
      <root>
        <mxCell id="0" />
        <mxCell id="1" parent="0" />
        <mxCell id="A83YnmEGEa6NBLfLC-lc-1" value="" style="shape=image;verticalLabelPosition=bottom;labelBackgroundColor=default;verticalAlign=top;aspect=fixed;imageAspect=0;image=data:image/png,iVBORw0KGgoAAAANSUhEUgAAAvYAAAM4CAYAAACndKZQAAAAAXNSR0IArs4c6QAAIABJREFUeF7snQl4FFX29k82QtgCBCO7gIqAAVkU2WQZ2ZRxQUVH/YsCg6Oo4+AGCA4qCuIIyOA2uCA6I6I4CA7I+qkgiDgCI8imgLITCCQihBBIvue98TS3i6ru6u7q7uruU8+TJ0l31V3eW3Xv754699yk0tLSUgrzkZSUFOYcJPl4UiACt2Q8ySV1CaMC0neFUVxJOiIKSH8aEZklE1HANQokRQrsH197zDWVloK4V4GxrSqSDETubZ9EKxnAXvquRGv1+Kmv9Kex15Yy/sVemwVa4nAbjATsA20ROT+sCshAFFZ5JfEAFRCwD1AwOd1VCkh/6qrmMC2MFcgL4Lu/7QItoRXQOw36AvaBtsxv5+f99APNHnaH+q/v+Hcpq8GFpimdKiqkxS8MU9/1eGQ8paZn2M7xy9efo93rvqLrxk6jjMzqtq+L5RNlIIrl1ou/sicS2HOf1u7OoZRz9S2qMY2foT9b9c5kanPz3ZRWPsOrb9u/aR29M6A79Z+2hDKq1lD9o55WMHcH+r/8vTs95QkmjUS+RvpT97a+GbjrnwnYu7ftgi2ZDvBmMO8U4AvYB9lCG+bPpLkjB6qrr332LcuBJxSwD7JoMX2ZDEQx3XxxV3gB+zIDBgO6L2MDIJzBvm7L9iHfC2YTjZATTbAEpD91V4PbhXkBfHe1WyilMcI6/+8L8kMFfAH7IFqMYb3o6C/q6vTKVbys8YUFh2nO4wNo+8ol1KxXP69zNi+dS6umT1IWr0+feUB9d9WoKbR/8zpaO+tNatShu8dCrw+ieTu2qEET5377wVTK3bre54QiiGq54hIZiFzRDFKI3xQQsD8D9pCEjRnZjZvTNWPeoDUfTlVK4W2kL4s9Qzr6LRyw6jP860YSpIs3oBWqZXn6UJzfecgT1GnwcNLPbXXTIJUvDv2taPGJQnUt0sc1POFAGsteGeNJKxFuculP3dPKRqjn/339PhPa5EyME7Hku6dNrUriDeZlwWMQQ8YI9Vb/c7rBAr6AfRD3iG5JwuUAdd0dB0C+ecnH6jMcsHjVadFWDUIAewyOsPI3ufJaNSAB6PXX1026X68GJDOw5wEuXt10ZCAK4oaUS8KmgIC9tcXerisO93M8AYArD7sYHj+SR8tfe5Z6jZio2hBAnln7PNVXFuzb7fW2QH8jkNXwIg+8t+v/oG2wR7+aSIf0p9FvbTtAj3PKflDesr/VX1rQQgH66LdloCUws8qXfZbkAX387zTgC9gH2lJEymrEMM/gzq+q2VrP1iKjKw5b7HkioAM6D2x8rRnYs9uPXgYr//4gqhb1S2QginoTSAE0BQTsnQN7GDDYym5ca2RmiTeCvdGYgf+P5u6lbg88RZ9NGa1aDRMCK4u9/pYgUW5y6U+j29JmYK5DOwN9SQlAnuHeG+rPAH8Z9MsRKwr4ttQz0Bt/o3Z23HV8qSBgH+A9YgR1XO7rNbDTYM+Dk4B9gA0np4sCQSggYB862GMhLlvbuQkY8Nl9B/93vf9J+vylJz2AroO9/nZTb0a4LvYZ/ap6uylgf/YNLmAfxEPvwCW+rPT4DiB/xkpfov19xmrvQDEkCVcqkETJyQz9Zdb6pKRk9ZkvyOeq2HHPEbAPsOGNA5R+OaCbXxHz62Qj+IdqsRewD7DB5HRRIAQFEgns+W1jTp/bLKPi6FZzu644HGEHzaCvP8Lbx/w9OzxuOcb0/FnsuVmNxhOx2J+54QXsQ3j4g7zUykp/BuQZ7M8APVvsGeySk5MpJSVFgR7+xo8doAuyyHJZmBQom8SVqB/8ffr0ac/fZfdJGeSfAXpzwLdagGtVbAH7ABtU959nFxj2udd943352Os++YG64gjYB9hgcrooEIICiQT2DMgFe3/2LOA3vhkMBuzP79jDdDEr+jKEsuT+sDD/kAoQwNZ8uz72/tYjOR2tJ4TbKeKXCthHVnJfUF9mpT8DeQx9KCHAPTU1VcE8A31kSy65RUoBBvxTp055QJ/vAZ7ImVnxcY6vSDp6+QXsA2hNtjaxNZ79RI0DIlue4FNqFRUnWB97AfsAGkxOFQVCVCCRwN5oUWfpdN90/Y3l7f+YRxsX/1udFmhUHA4CoFvwERGnYla2Grywd4fejzLsc/AB5Kn76+tRd/A5JifGqDjiYx/iwyCX+1TAN9QD6M+APSy4OADxAHr8AO7lSCwFYMEH4ONHvyfOAL63BV+He19vcATsE+s+cn1txcLk+iZKqAImGtgnVOMmQGWlP41cI5uFrWQXDHbHYLhHv5KWluax0keulJKTGxVgwD958qQqHnzuU1LgflUG9uyK5S96DtdNwN6NrZzAZZKBKIEb34VVF7B3YaNIkWwrIP2pbalCOtEK6s8G+xIF8+XKlROXm5AUj7+L2UWnqKhIuegkJ6d4oF5fZ6GHx9Qt+LoiAvbxd3/EdI1kIIrp5ou7wgvYx12TJlSFpD8Nf3MbXXDOhLAs86fHD0ANnwPo8SNuN+Fvl1jNAffLiRNFdOpUsWfhNIO9brn35W8vYB+rrR+n5ZaBKE4bNkarJWAfow0nxVYKSH8a/hvBPC69N9QD1jIyMpT7jUS3CX+bxHoOuKdguYdrzhmohwX/jGuObq0/K2pOaQS2M5PBMdZvs8iVXwaiyGktOflXQPou/xrJGe5VQPrT8LaN0QWnzELPIQ7LQhvip3z58gFB/bZ9B+nrLdtp/c97aOfBPCo4VkinTpdQWmoK1ahSiRpkZ9ElDetRuyaNqGa1zPBWUlKPigK4t06cOEHFxbDcI1pSWdhTY/hT082sIgX2UVFGMo1JBSIw14xJXaTQkVdArGuR11xydFYB6U+d1ZNTM3PBObNIFu43gPrTyvUmPT3dp6UeaRWeLKYVG3+kj1auoR/3HqD0tFS6+Lw6dH7Nc+iczMqUmpJCRSeLKbfgKP2w94D6OXHyFLU6vz7d2qUttWhYl1JtxrtHOY2+2mafGZVjNyPjtXYU5mt1NySzz+yklSjnqPuisFBFzUEEJR3srRbUKkt+pMD+8bXHEqUtpJ4hKCAWphDEk0sdV0As9o5LKglGUAHpT8MntpULDm9CBFAGjMFab+VTjy2KTpw8Sd/t2E0fLP8v/ZR7iFo0qEe/a3Ux5TSsTwRLbTJRxZQkwrkIiInfRadL6ZfCE7Tuhx20eO0G2r7vIOWcV4du73o5Nax5jpoUWB2wAG/atElNNho3bqwA/9dff6Xvv/+eGjZsSOecc47lJCQvL4/2799P9erVoypVqgQk7oEDB+jw4cPUpEkTZYXGhGf79u3KKt2sWbOA0kqkk3E/QSO+n4xwr0A+6cxOtgL2iXR3xEhdZSCKkYZKkGIK2CdIQ8dpNaU/DV/DGsG+zEJfZqUHjKHvANQjCo7Zgevzjh6jBd9uoM++20x1sqrR1W1bUZ3atWnncaJNv5RQQXEpXZGdStnlk+hUCVG5ZCJEwP/51xI6cKKUGlVOproZSbR52zb6eOW39OuJE3Rdu1bUOacxZVbIMM33+PHjNHfuXKpQoQL97ne/o0qVKtGGDRvom2++obZt29J5551Hx46VGWIrV66s1gbgGnwGMAfcN23aVNULfuCoZ/Xq1dXkBZZlfIZ6A0bxGf4uKChQkxykg9+YWDRv3px27typvkN6ODczM1N9L4e3ApgIQU9obbTc629PPIAvFnu5hdykgAxEbmoNKYuAvdwDsayA9KfhaT0zaz273rA7DkfAMXPnw/UH8n+hj1asof/t2EVdmjehNjnNaO+p8vT1odO0r7CEUpOJetZKowsrJ9NnB05R0yopdPRUqYL9tlkptHjfKdr0y2mqXzGZ2melUHU6Tku/WUPrtu+kDk0voN+3vYSyKlc8SwDA9eLFi6latWpUo0YNatSoEa1Zs4Z2795NrVq1Upb8rVu3qskJoP+SSy5R4P/LL794LO2wuu/YsUOdA+DEdTVr1lSQjs9r165N27ZtU1CPtwD//e9/1e/c3Fw1oVi9ejVdfvnlanHoTz/9pMqBiQM+y8rKkgXGhlbjxbRl/vZlfvY64But9uKKE57nXlINUgEZiIIUTi4LiwIC9mGRVRKNkALSn4ZHaCPYl4W0PGOtZ0u1lfX58NFjNHPZN/TdT7vp9+1aUd3zzqf/5ifTpoLTVFS2KS01r5ZM19VNo0/3nKIfj5bQVbXTKL+4hJblnqbetcus+B/tLKaDJ0opPZno0qxUyqlUTN9v2khfrN9CHZqeT9e0vYQyK3pb7gH2y5YtU/B99OhROvfccxWQHzp0SEE+rPT4H9AN4L/yyisV2Hft2pXgTrNr1y61EPjgwYPqfLjmwKrfvn17BfmYFADS8Tes94B26ANr/J49e9Rbgc8++4yuueYalS7eALRr146++uorql+/PjVo0EDCgZrctvw2BIuzyxbSnllQa7TaC9iH57mXVINUQAaiIIWTy8KigIB9WGSVRCOkgPSnzgttx7eeF8ya5V5UfIo+/motLV63ka5v34ZqNbyQlh8i+unXEjoNB3q4wKQl0T0XlqPtv5bQ3N3FVCElyQP2C/aeonPLJ9EfGpRTwL/y4Ck6crJUWfgvqpxCl2cW0+bN39OKjT/QNZe3pK7NL/LyuQfYL1++nC666CIF6gBrwPSRI0coOzubfv75Z2XNhzUefvdw14HrTJcuXdT5sOzDDQe/AfboIwHt+BvawG9+7dq1ykKfn5+v0gX0I19MCi677DL6f//v/9F1112n0sfn+GzlypUqf1wn7jhn3zlGq73RJYet9gryxRXH+QdfUgxeARmIgtdOrnReAQF75zWVFCOngPSnzmvt21pfonYLhQXbasEsXG8mz1lKXVtcRF0vbU3rfklWAF/yG9SjxM0yU6hzdgrN2llMh4pKqVJqErWvUeaKs+rQacJSSbjjNM1MoV3HS2h13mk6WlxKaYD7KinUOP0Ezf3ya/o5N4/uuboLXVAr2+PeAks6/Onh475v3z7l596yZUvau3evcoMBmKPfg0sOrPEA+s2bNyvrOyzv+Bx++HC1wQHAvPDCC5XlHwcs///73/+U9R2uI0i/U6dOyj8febRo0UJZ7PE9tEReKAveDsC6X7duXbHYW9y2mGwhSg7rbrZxlQJ8t4F93k8/0PLXnqVeIyZS3o4ttH7eDOrxyHhKTTdfCPLl689R1ToNKefqW3w+wTgPR6fBwz3n6Xnhw4XjHqIr7hlJmbXq0uIXhlHzPrdSRtUaAZXHqhCFBYc96Wc1uND53iZOUpSBKE4aMk6qIWAfJw2ZoNWQ/tT5htfB3ju8ZVnceripwLfc7IAbxch3/k2nS0ppeL+rqEKFipR/spROlWpUT0RVyyVR+eQkOnCiREXBSUkiqpKWpCz6vxSXnZuRkkSZp47Tie3bqfDCHCr6bWZQLjmJMtOSaNeBXHp53mfUtG5Nuq3r5VQpo6xMKCP85eFyA1gH6CPCDYARZYcLDlxx8DegHQtj4VqDazjKD66FGw+i6eAAkGMygwMuI/gcEwAcnD4gH/nhWsA/Do4YBF9+pIc8/YUGdb5FYydFjm2vh79ky72XO46bwT4js7pfxcMB9jp46/BvpzwC9n6bzOcJMhCFpp9c7awCAvbO6impRVYB6U+d15tjr/Nv3bcen/FmVGY5f71lB437YB49evPvKTWrHi3LPXXWaR3PSaEmmSn05o8nPd/BYt/hnBRllcfi2nbnpFCr8kV08O8v0tE1a6j+sOFU1OJS+mR3MeWdLPO571AjmXZs+Y4WfruBht90FZ1fO1tZ+uWIbQUw8cIEybiIlsHela44Vhb7/ZvW0TsDuqsWadShO103dhptW7GY5o4cqD679tm3lNV+97qvPOe1ummQx9rvy2J/5UNjCd+vnfUmZTduTteMeYPWfDjVp8XerDwAf1jm5zw+gLavXKLK1XnIE9Su/4PqDQCn33f8u563AvgMR/9pS6huy/ZknEigPvzWAnkunzqOjuXlUp0WbanbA0/RZ1NGq3R1DWL5tpWBKJZbL/7KHgjY87ObXrmK55nk5xrKmPVN+Bx9Q80mLenbD6ZS7tb1qi/L37ODlr0yxtPXhWJUiL9WkRrZVUD6U7tK2TvPzA2nbOEsQlxi0yeiihUrWkZ1efiND1Vc+qF/6Evv7jit3Gj0A9c/eFE67fi1hObsLvZ8BQs8Fs8WFJfQ4ZOl1CPzJBW+8iIdWbiQSgoLqVzt2lR35Cja1biNWlALn/tW1VPo8son6KWP5tLljRupTazKWYTetFd7OcsNCuB+w7oEHFahL2PCFafT4GG0dOJI5SYDa/qG+TNVpQDyusUeA+ui5x+mno9N8IBz5ezayv3GSVccq/I0ufJaNUjXa9VRlU0vT4VqWV6uOHp5MOAvGDeUAPw42BUJg7kR7Pk81gEAgPphQvH5S09S1/ufpFiGABmI3NB1SBlYgUDBfvawO6jdnUM9fdPR3L3KuFCwbzfhu94jJlHNpi1VP4G+iSf9yA/nscEAcG/sT6RVRIFAFZD+NFDFfJ9vdMPB/7whFX6npKRSBYv48bn5R6nfuFdp5K3XUFa9xvT29jMWec61ToUk+tOF6fT6j0W069gZ9xwG+/MqJVFq8Ukqfv0lOjRnjoJ6PtLr1qX6T4+h7XWb0b93FRM8dm5tkEYrv/pSbYD1/MCbqGJ6OZo9eza9+uqr1Lp1a3riiSdUSEscS5cupTfeeEO56kyfPp3yZ86kpNRUOvf2250V0SQ1lGfOnDk0ZMgQ6t27t9q8CmWZObOM9fioWrUq9erVi2644QblIhSJA+sFRo4cqSL3/OlPf6JKiCA0Zw5l/+EPlF6nTiSKcFYeAHtMJMui45SFvsRY5dmN1s2uOOxjbwRpvZY62AP4d61d4bHS61C86p3J6jInfOx9lUcvm+5Xr4M9/oZVH2WBlf5UUaGpT78Z2KO+eFuB71BfBvuo3F1hyFQGojCIKkkGrUCgYM+GBUy8jZNyfb0QvsOz3Gf0q+q3bgzQJ/Z2XQ2DrqBcGNcKSH/qbPMa3XDYx57h3lc0nP988z968eMl9OGoP9PsvaW09vDpswrX4ZxU6pSdQpM3FXnCXuKkauWS6Oo6qXRZeiHtf/ttOvjRR3T6N/92TyJJSZRx4YVU+5FHaVOdi+nT/SV0eY0Uqnx0N03+96c08Y+30HnZWWox6+DBg9Ui1T//+c8qTj3q9fLLL9N//vMfBc5DBg2irQMHUnrNmnTB3/5GyRkZ6hyuL2+UxDH6WRfdz5snQXocf9aJ3Uj4O+SNCccDDzxAV111lQL7qVOn0vvvv69cmwD0cEGB7z5+33XXXXTTTTepmPg44HOOg9NlTbhcvHkWf891wW/jNbiWJ2wo3/r162n48OHUoUMHuueee4g+/5wOzJhBde+7j6p260ZJKSme83GtHtEH1+va4HvevAzncTm47GZ7HpjdwVi3gDULbLF3Hdhj4MIrZxxwW2na40bTxaps8cKraqOLDS+eBeiyaw6LwW47eM3tFNjrFjhjefTX7cgPrj2wxJuBPbvrcFlhpavVrLVPi71xMbGun/7a39nuLHKpyUAUOa0lJ/8K+AJ7X32XcVK+eelcL6MDu+2wGyAW6pu54gnY+28jOcNaAelPnb07rPzrGXixgNRqp9lxH3xK+47k0zMD/0AvbCxS7jLG44Z6aVQpLYlm/HSSin/z0klNIro4M5muqXKcTs+eSQc/+IBO/fKLujSlYkVKqVyZTh44ABol+AJVzMmhc++7nzbUvpgOFKdQq8rF9ORb79EfurSlPpe1UItgn376aRX95v/+7/+U9RthKceOHasi0zzzzDN06aWX0reLF1N6hQp0cYcOyhqMzaW2bNmi4tdjsS0i4SCyDRa8IkIO0q1Vq5baqAoAjtCW0AvhKwHnuA4x7vEbbwkQYhOx9OG6ZAX2H330EfXo0YMeeeQRtQh31qxZ9MEHH1Djxo3pscceU8CPsJtIF98jXCbCbiK6D2AfoTsB0jgPoTWxwy2i96BsKDMWDJ9zzjmqLPiNuuAzbJqFNFFPXP/CCy94wP7EsWO077vvqEHr1pRdt66a7GCyhMhBAGxogmswYcDf0ALx+xESFDD+448/qnCi0A/foRyYyGDTL5TBKpqSfq/ofva6O47Hzz4WLPbGqDi6pdposbeyYJtZt9lqBgs4jmCj4nDabW6+28sS78tiz3kZI+QYfez1txB4TW8VJSheou7IQOTsQCSphaZAoBZ7X250viz2AvahtZNcba6A9KfO3hn+Fs4CUq3A7N6X/0nN6temG67sSs99X2RasIHnl1PhLefvKaZTpWXRcBpXTqbelY5RhcVzKXfGDCrOy1PXpmZm0jk33khVOnaknWPHUuFv4ScpOZkqX3opnTNoMO2s35TqZ6bT6GnvU9N6tejeq7uqhZdz586lf/zjH8o6fv/99yvoBVwDhgGxmKBgAymA+pQpU1SUnNdff13Fswfs4n/AOoAbMegxUcDusrfffjvdcsstysr92muvqfSGDRumIuGMGzdOfQ545Qg8t912G/3+979XZTGz2OtgD+0XLlxI06ZNU1F44EaEycn48eMVXGOyAFC+4IIL6I9//KOqw6RJk1Scflj2Ad+PPvqoguoJEyaoc9Fe+H3++efTfffdpyYFn3zyiXpbgAPlBnQjfv8VV1yhLPaYWOCcu+++m6699lqlCeqGfFAG5AWAx+TiwQcfVJtwocx4Q4LIP5hE4cAkAxMAgD1ca7p166bSx3X+DqSPicyZcJdlm1XFFNi36TeYVr41QYXAZBcUVNyXjz2AGdDPPq6AYt0/nd1f2AdfB2N/4S6tynN+xx5eYA8oXzV90lkWey4b6gB3HMA8+98ivKbRFxfnsf+tDgf6pEZ87P09CvK9KBC4Ak6BvT8fewH7wNtGrvCvgIC9f40COUMHe2OoS3wHsLNyp7j5udeoX6dLqXXL1jRjx9n+9SjH7Q3LqYWziHyDQJc1yydT1wrHqOKiOV5Qn1a9OtXo25fO7d9fWe1/+fpr2jNlCh3fsqXMcp+cTFXatqVzBg6iys1z6G8fL1YhNkfe0kdZ0QGjjz/+uIJggD3i2v/rX/+i7t2704ABA5QkAG6A/YsvvkjffvutgmHEu4cFHRbv7777Tvnp33nnnTRmzBifYA+L9TvvvKOs5cgD+X/44YfUuXNn5Q40Y8YMU7DHOa1atVJvFQCy2DEXG1lhwyuUG8CMyQLSATgvWrRIWc5RJrx1ANgDrLEZF+Ad/vurV69WP0gX8fgXL16sNtSCHrCiw+0GkN63b1/lx//ll1+qiQ+Dtw72mPxgcoM8saNuTk6Oyg96Ij8d7PE2AJMepP3xxx+rCUDHjh3VRANx/TFZ+vvf/66u83dgQoDJALtE8S60MQX2gFq8ymY3G90Vh91vzKLisBsOLyY1usnA9Yd97hn093y32lZUHH/lQcNcNWoK7d+8TkXX4QVzSN8sKg6XH9dxneDGg7cASMMM7I0ReMQVx9/jIN+LAoEp4BTYYx8OX1FxBOwDaxc5254CAvb2dLJ7lhXYnzoFf/lSZeG1Oq57+iX601Wdqf0lzdUus2bHhVWSKf8k0cGiEkoholqlhVQy/2M68O67Zyz11arROTfcQNm33kqpVauqZEpPn6ajX39Ne6dOpWMbNpQlnZxMme3bU60//pH+ezqFvt62kx67sbf6ChboyZMnK0CHlR0wit1gAbeAZkA0gz3gGC46AHy42QDu4dqCePOAY1ie/Vns4Z4EQAaQQiO4ucD6jgWp8KuHZd7Kxx4Wc0yY8KYBP5hs9O/fX216hXIByuHSg1j7q1atUpB9xx13qO9RduT11FNPKfDGgfMxGQBYozwo18aNG5U1H+2LNw2wmsNqD4s4JhPPPfecSs9oscfmXYB1vMXAmwNMDDBpeOmll1Q9dbAH9CMdbNJ17733qnqg7nj7AG1RduSJNPwdMQf2/iok38evAgd/3Eiv97tMPRRymCuAzrdnz57KbxFbfVv5c4p+zigQCNg7k6OkIgo4p4CAvXNaKoAuLfX86BZ7O2Df95mXaUCPTnRpi+a08uDZC2eRfqdzUuhQEdHp0lLKqXiaDs2cqRZqFufmeiqS2bEj1f3LX6h8w4ZelSspKqK8efNo98SJVHLihPoOCzurtGtHNQb9kbakVaDLm5ZZgwHucCeBxfvyyy+nI0eOKPcYgD2s2IBkBnu44uB/WJkBxQBTAG+9evXo6quvpuuuu+4siz2s+QBkAChcceDugoWw8IeHFRzjFiYTbdq08Qn2sI5jrEMZ0RcDxuEPj51q4UaDqDlffPGFWlALyzf8/Hfs2OEF9tg9F3XApATlmT9/vrLso76Aakxy4FMPsIebDN5cYEEx1hzgQF2gCyYGRrBH+fGGAxMBRPFhX364NeHQwR6TmFGjRqndfuH2U6dOHRo6dKjyvccEZMWKFbbBHvce2iRmLPbOPoaSWiwpwGCPG10OcwXwMMNSAssF/BfRmQHw33rrLWU1kMNZBQTsndVTUousAgL2zuodCtjfMeFN6t6yKXVs244mb7b2sceS2hrpSZQ++z0vSz3XBGEta951F1Xv2ZOSf4sKA/ebot27ac/LL1P+F19QafGZGPiA+8pt2lDtYcOo4nnnqWRQD0A6LMjw1wbwwk0F1nuMvzrYwwUH7iNYOMs7xcJSDpcYAC1CY8JaDTCF9RoLcvEdwB5+7gB7LHoFTF9//fXKpQULceGXDv98XxZ7XIfxDYCMvhgTAjZmYfdaXIvf8LcHVMOlBZF9dIv94cOHaeLEicoNCOPmoEGDVJ1RV7gizZs3T8E+wB5jKqzmAP4333xT6bR8+XIF+WY+9qjLzTffrCYZo0ePVm8zoMMrr7yixmYd7PEmBGEznQB7sdg7+1xLamFWQAYi+wLDuoBXeOhYsTAIi3kQD1gO5xQQsHdOS0kp8gpIf+qs5meDPUJEoGD/AAAgAElEQVRAYnOq0woCfS2effStWZRZoTzd27cPPbuhiIpLzo6K07deGl1QJYXqZiTRoZnv064JE8p85g0HNqSqc999VO13v6OktDQ6dfgw7Rw/ngq+/JJguTceGY0b0wWTJlG5c8/1fAXrORatAkQB4PAVh686oqzoYA9o/+qrr5TFHhZqWK7h7gKAhovMP//5TzUG4Tei1cBlBdZ4+OXDug6whzX766+/Vr7yCBu5YMECBfr42xfY64tnjXWC3z7i3uNtACL54Dcs/LC+62CPtxGYnADs8aYCYTLRTpiAwM0HLkCYtADC4S4D+MZkAJMQXPP555/79LEH0MOnHi40+Pnhhx9U5Bv8HS6wxwQEbxxiZvGss4+hpBZrCshAFFyLYdENLA5Y2IQOVw5nFBCwd0ZHSSU6Ckh/6qzu/sJdwlVEj2Ou5/76guW0aN33NO3hP9GrP5ykncfO9rPvcE4KdTk3lQ4XETVJOkoHpk+n/e++awr3adnZVO+RR6hat2607803ad9bb1HpybMX5ZZv0IDqPfYYVWrVmpLTUj1FAuQCnAHdF198sVrECjDHoYM9xha438BohPCRHPUFkxls2ASXHbi/wF0Fln1AMyz5AG1Y0QH28HOHTz+s7XizjLcCcIGBnzn8zQHP/qLiGFsScAvffljUYWFHueDmgw2l4B4ESz+s7zrY4xqU49NPP1XlQDnRplhrAJD/wx/+oNKDKw2gGXVBWVEvLBQ2i4oDV5+//e1vCv5xPkJuYmErW+zhzw+XJyct9idPFlNRUVlUnJgId+nsYyipxZoCMhAF32JYBNS1a1caMWKE8nmUI3QFBOxD11BSiJ4C0p86q72/DarS08tTuXJpppl+88NP9MibH9DrDw6kLaer0qJ9Z9xl+ILaGcn0p8bl6J/bT9JVdVKp4emjtH/6dDrwz3+awj1i2Dd69lkq36gRbR8xgo6tX++Vd/nzzqN6jz5K5Vu1orRy5c6K2AOfdLjFAEgBx4jcggM+3AjDiP8RbQb9IKzYHIceFn7EXceiVZyD8+ESA0s13HXgPw6/dxyweuN6WNJhGYevO1xgkDf0RL6wPuMNNEJhArhxPtLDZ/gfsGx2AKAB8jgPkW8A07gOC1fxA6jHBATlYRceTDgQlQfXwH8f4I4wlKgT8keZ8DYDoI7/uaz4HmVFmohgg7/ZbQnlwGQIeeBauPFgUoM3Cphs8IQHdYcbECYSeFuAegHM0QYoF+Lew9XW3wGXIugrYO9PKfneFQrIQBRaMyBUFyws6GjkCF0BAfvQNZQUoqeA9KfOas9gz/BrDHkJyAXYmh2nTpfQDc+8TNe2b0VXduhAU7bAHcf7zCQi+kvTdNp69LRaYPvExelE+YeVRf7ghx+awn1yejpdMHkypWVl0Y6//pWOb96szkuvXVtZ9Kt06EBrduyhFo3qUloKYu3I4aQCWFeAScKVV16p3JBgYEMITezgi7CbmBw4fRw/XkinT59y786zTldY0ottBWQgCr39YKmAW85f//rX0BNL8BTCDfb6JnkcljfBJZfqO6iA9KcOivnbolOkyIAPsIdFmH+z+4ZVrq8vXE5L122i5+++nVYWpNGaw2e743Q5N4Uur5FKub+coFr/W6Ei4gDOD/zrX3R4/nxTH/qUqlWp4ZNPqk2rdr/4Ip0qKKBagwYpS37+559TtR49KaNhA7UzrRzOKoA1CojkB2Ma7gNY4LG2AFCPxbRW+xoEWwrce3g7gKUX2JQqpl1x7O6sarXRFLZrNzsCPT/YxpDr7CkgA5E9nXydBZ9HvOrDK0o5QlMgnGCPvTOWvfoMXXL9XWTcgTq0UsvVokCZAtKfOnsnAKqMYM9WewA+DrhsWPnZ5/3yKw155V901aXNqXeHtrSzMEmFttSPSqlJ1LRKChX/uJW23nef+qrmHXdQ5csuo4OzZtHhRYuopLDwrIopC/2jj1Jq9ep0Kj+fUqtUUXHtj37zjdrMqu6DD1Lyb28TUGaui2dTowSFfrQbNDDuGAx94O5ixzUGrjZYNAvghjsQNpkKV3Q/XjhrGeoyKYmSSrl1nb3/vVJzYnAMBuztDJZ20w2jPJK0poAMRKHfDtj6+6GHHlJ+g3KEpoATfVdoJZCrRYHgFZD+NHjtrK4087Nnqz2AGSAI/2mzAwj/3ueraNGajfRQ355Uv04d2n60hI6e8ob7rPQkalauiPZM/jsd/nQ+JVeqROfedhtVzMmhg//+t7LClxjcLTlmff3hwxXY73v9dSr46iuCnz2gvnLbtiquPcoKww98vdG/se+4HYB1Xs3op3jw4EG1TgA+8foBfRDdB5twuenAomeUzehfj//57YArwf7L15+jZa+ULf7D7rDt+j9Ii18YRmtnvUnYjRU7t1aolkVzHh9A21cusTzvmjFv0JoPp6qdX2Gx95eu8Xx9p0jsIvvzN8uo14iJlLdjC62fN0PtBosdJbFTbP6eHWoXW97BFmXFoe8Ga8yfd711000T7bLIQBR6C2ABExYSsQUp9BQTN4VAwD7vpx9o+WvPUu2cNrRkwnBPXwUDA/qS5VPH0bG8XKrToq1nJ+l3BnRX4vJu2vgbfV3l7NpefSD3Fchj9rA7KHfretJ31kb66JPSK1amVdNfVN/hmgXjhqpz9Z2tE7c1E6/m0p863+ZmVnvdHQfWesCylQtG3tFjNHH2ImUxv/nKzvRTaSZ9feg0/arBfWa5JPrzRelU6WgeHXx9Kh1ZuFDtMpt9222UceGFdGj27DK4Z8t9UpLyqT/39tupQpMmdOC996hg+XJKP+88qn333ZTZoQMl/TbZwEJVhJpERBiUE66bWFyKOuA7LKRFGEu4luAz3vwJ4IjvAZVYvIlrcS4OLKzFuVjoCkjmXWJhXYbl2jjRwefwS8eB/KEZFtPicwA2zsf30BD5IeIN8sbiVJQNf7NLCs5n2MXfSAsLUXEO0kY5YeTiCRk+Q9qYhCEtLLbFpAaf4zzkCW1Qb4T4RKQcHPifJ274G+mhrlx35I3/uR7QwunJEvJHvUpKSpUbTnJyym+/y6DetWDPAxSgGQe/qgbILxz3EF1xz0jKrFVXDX71WnWknKtvIQx2i55/mHo+NkEBv/E8gD0OhnF/6eL8rIYXqYkDBkeeFKBs142d5hPsAe84cB3Ox8CKiUhh/iHT/O28VXC+a3JvijIQOdM2eMAj8DLOmcK6OJVAwR7Q3aT79er5x4R/19oVHojnvgDPvN5ncX8GmGcjBiRBH7h/0zpPH8LGjJw+t6l+D33N0dy9XpMEGBJqNm2p+seCvT97+iuci75L/PhdfLOFoWjSnzovqhHs8b8O9vCswQLaNC20pF4KwNn6n/fS20u+pFrVqlLPdpfRLqqi4L6g+IzlHn7219ZNocK9++nE++/SkU8/VXAPyz3gPveDDxTcYzOqtHPOoVoDB1KFZs3UplaAeuxMi42sMjt18rjgoBwAdmzkhKg2gFmUFS4kiAvP38M3HFZ9QCsWfyImO4B548aNKsILQBvpIKY9QmACjgG1OAeTBKQF+IUuiPyC6DMclQagDuMT4Brgi6g5yJ9BH30u4uVjASoiz3A6OBfaNWrUSEXY4XZAOQDoyAtuMIhCg+9xYDKCEJ6rVq1SEwyUBenBSo/08D9AGfCPA/XApAB1QMQfHexRJ0wgELkG4T/ZnQl/I3/UA2XCnjLIF/lhF1+rxdTB3Jkoe1ERouGUuQ4x2BvdqVxnsdfBHtZwPny5zOjf2QF7q3R5gOWJgD4YsjXOl8W+zc13e00G2HpvnFjo+QfTuPF8jQxEzrQuLA7ogOUITYFAwZ4NDIB3vV/CxF7vT3ToR3/A/V63B56iz6aM9hgt9DRQE7wRQB8EQNcnB8b0kVfVOg09hg/9utAUkatjSQHpT8PTWjrcGyPj4H9ALIDOympfVHyKvt6ynf69cg3VrJZJPdq2puMZ1Wl1XgntOlZCpzE5SEmiG+qnUaOKSfTrzt2U+tE/6ciCBcqHvuadd1LG+eerBbVH16yh2kOGUMWLL6b906apnWfL169PNQcMoKqdO1Pyb9DKSgCEYbEHsLMbDiAefwNE4X4C6zMszzguueQSNQFAXbBQFPXDpGDZsmXUvXt3mjt3rtpNFqAJP3OcC1AHlOMzxKtv1qyZAl7ohvCRmFhg11neRX379u0KjJEvYtr36dOH3nvvPbr66qtVORBmE5MIhMsEcOM3AB/XvP/++9S3b18F6JgwIDwnzsd3qBci1SxZskSFgkaZFi5cqPLG5ATthLRQZljYEZMe0I9JAuqmgz3ShEUfMf9RT7xdwCQF9cIbcuiJeP6YHAD0MQnABMUqVGegdyZ0R5ooW9mCWfwkqb+9rPVu8LE3c0/BoDd35EBVb36FbAR73U0G5+kuOmYWe1jd/aVrBHvd3SYQsGf3IG44roNZ/oE2bryfLwORMy0sFnvndHx87THTxIx9V9MeN3qBtxHsje573Mdx4nCf6TP6VTUBYPdBX5MDX+kL2DvT/rGeivSn4WlBf1Z75Apo5bjwZqU4cbKYENt+zqp1hFg1vS+7hOrVO492FCbTd/llgF+7QjLdUC+N0pNKKXnvLir54F21eDYNcD9wIFVs2pSK9uyh8uefT3teeol+WbGCsCstrPeZ2EX2N1cZPX+APeAZgMruItg5FZtFwTKPDZVwDsAVsApo5YMt302bNqX58+ernWMB1oMGDVLnY1KA36g7LNs48BkmB4B9HIBoTCwA4wBrvBVAXHkAPyAYu8deddVV9OGHH6p09+3bp3a6xeQBO+DCIg/IRt4wYL3yyisqXjwMWdjdFuAP6zrqAhBGhJpPPvmE+vXrpwB45syZdPPNN3vcg1avXu1xH0LZANBIH5MLHewB85hkYJKCyQDuAUyEkBes/BxXHtcjXj3yguWf3ZVCvRPLrPVF1rvN/rb4WUG+mxfP6hZvuMYwsPMraXaTsWOx16PiWKUbrMWe3W9gsecy+nKx0fO3itYT6k0Qq9fLQORMywnYO6ejFdgbc9At6EZ3G90Vz7guR0/H2DcEYrHXJw4C9s60f6ynIv1peFpQB3vkoFvtOfQlLKmw2hujreglOll8in7Yl6vgfsvu/XTxebXpd62aU52atSjvZCntPl5KVcslUYuqKZRUWkLJ+/eoRbFHli6llMxMqvvAA1SlXTv66ckn6ZfVq6lcdjbVvvdeqtqly1mWes4Xlm1Y2y+//HLPglGALDakAoTCtaRLly4EKzos3DrYA5zhYgKLPXZvxW6q69atU2ALKMaEAOdjA6d69ep5wP7SSy9VVmwcgG0AOkAVVnPAPKAcaUArTABgqX/33Xdp4MCBCuwB0rC4Y2IBdxtANvIG2L/22mtqR1ik8e233yqgR0Q45If0sGMsynrjjTeqicTKlStV+VAPXA9Yh08/AB31Rx1QRoD9nDlzCHHqcaAc2LQKYyvywoQB58PCjzIjDUyOMAlButADWuB3qAes9CgTh9Mss9Yj1KW3bz3ycSXYGxeimvnYG8Ee16yaPsmzqNbMYp+/d6fXAldfvvu6j73uz6r72LO/LJcFgI6Jhu5jzwvdeo+YRFb5i4+99y0vA1GoXUDZ9QL2zukYCNjDx77dnUOVC4zRx974BlB322F/eXbFMbPY+/OxF7B3ps3jKRXpT8PXmr6t9iW/LbQsp4DPVyxzLIQ8WniCVm3ZrgD/wJECqp+dRZc3aURN6tWhOjWqU41K5ZVVv7SkhIr27qM9k1+kgi+/pJRKlSi9fn06/v33lFKlCtX985+pWs+elGwRlYcnIfBnB9hyWE5ezAq4BhDDKg7gheWd/c9xLT4DHAPI4XICyMa1+Bu/8T8mM7AssysSQz/nBd0wucAOrvgbEIyDF6EiDcAwQBqgjLQA2/ic88f1vFAXExFY6eEWA1cZfI764W+AN+rCawXQDgBk/I/y4juGZeSD9JE3QBqTGkA7XHpw4DOUGXmjTdmVB7vGoh68iyzOQR5wK0JZfE3s7NydSBvpobxlfvVnYtef5VvPVnu3WeyNUWXYjYU/3/PdagXw+zau8bjrIGLN/s3r1OtrXjiG8/QoN/w5R6sxS9cYFUePQNHuzr/QL/v3ePxb+TU8Xp83at+dThYeM42KY8zHmL+dhk2kc2Qgcqa1Beyd0zEQsIcve3rlKiqCl1nUGo6khdLp7oR8blr5DLXw1Qzs+S2Ar6g4nL5Y7J1p/1hPRfrT8LWg0Wpftoi2DOhLSk4rEMRnDID+SlICgCsupjU/7qQF326gtdt20omTWCiZTOmpqZSamkwni09Tw3OzaEjHVlTuzX/Q0a+/VrCP+PT1R4yg6r17U1Jysr+sLL9HeX1NQqwu1GPi283ceI3Z/3bKYlVmX2Wy+o7T8qWD8Tt/9bCrh9l5SBsTFoC9VXhLXSPXRsUJRYRwXqv72EtkifApLQORM9oK2DunY6Bgz4tbnSmBpCIKBK+A9KfBa2fnSjOrvXExLdLJyMBCzRQ7SXrOOXX6NG3bf4h2HcyjI78ep5PwXU9LoxpVKlHjOudSVulp2jFsGBVu2kT1hw2jrGuvDSh9Odn9CgDq8YYA47m+wyxb7lEDD8xrG4y52sfeTbIL2EemNWQgckZnAXvndBSwd0ZLSSXyCkh/Gl7N9ZDC+Jt/9A2rAPpEZRtBBQr3/kpfnJurouLAUi9HfCnAlnrUygj1RhccHfDV325zxYmvppHaBKqADESBKmZ+voC9czraBXtncpRURAHnFJD+1DktrVIyc8kxLqYtg3tY7gH3qeEvlOQQswrgfoI/PVvq2Tqv/9bDWxqhXsA+Zps+fgsuA5EzbStg75yOAvbOaCmpRF4B6U8jo7l5lBxY8Nnnvuw3DixIBdyHuqgyMjWTXCKpAO4R3tkXY7gV1Oswb7YOQSz2kWw1ycuvAjIQ+ZXI1gkC9rZk8ntSIBtU+U1MThAFIqyA9KeREdzKJQcRbxjuyxbXnlYFAtjzTq12FohGphaSS7QU4HsDIUBhrWefeiPcm/rTa771XH4B+2i1pORrqoAMRM7cGAL2zukoFntntJRUIq+A9KeR09wK7vE5LLH8m/+GNRaAjx8OBRm50kpOblCA7wlY6QH0HHGHLfU62NuFemXNFx97NzSvlIEVkIHImXtBwN45HQXsndFSUom8AtKfRlZzM7hHCXSwPwP4pYhM7wljyIAvFvzItlk0cmMLPWCeF1pjgXVycpn7TVIS4tUnKct92f/YxeBMBBzj38Y6uB7sEesZMZmvGzuNwhlmUqLeROP2PjtPGYicaQcBe+d0dAPY6zvSZlStQYiXL2E1nWnjeE5F+tPIt64R7lECjpZjBPwyyC8D/DPW2RQVPQdWfIH8yLdfuHLkRbF6xKSye6UM6HWI18E+UKiPCYt9pMA+XI0p6QamgAxEgelldbaAvXM6ugHs9dqIEcKZtk2EVKQ/jU4r+4L7M5Bf5n+vh8nUrysDujPQJ5AfnbYMNld9QTUvnDa2rx62kmHezEKvt72d+8CVFnt9x9fOQ55QOzSyxV7frbHVTYMIOy3iwG6NNZu0pG8/mEq5W9cTdnzN37ODlr0yxmsHyMKCwzTn8QG0feUSdR3S7zR4OOmDZd6OLfTf9/+hvt+48EPKbtxc7XaLnR+NO+P2n7aE6rZsr87l3Wj1dIO9KRL1OhmInGl5AXvndAwE7PW+y2zn2fSKlWnV9BdVn4R+Z8G4oZ7+KufqW1ShN8yf6dlVm/uezFp1PTvSisXembZNhFSkP41eK+sQh1KYbWalW+x1wOfzlUGXyuLjyxGbCvAEDfM03fp+JmSl9+RND2VphHg7UA+VXAf2DN45fW4jDHSAZQb740fyCNup9x4xiWo2bakGusrZtald/wfV3zgA+vs3raN3BnRXcN/kymvVd/VadfT6G2ljEF70/MPU87EJ6lp+vQ2wx/WAdj0fDMQoDw78jXJhYAb0F+YfovXzZngmGstefYYuuf4uNRmQw74CMhDZ18rXmQL2zuloF+y570LfgMk++oqjuXu9+iS9TynY+7MyWKC/YXdD/W+4HnJ/w31c8z63koC9M22bCKlIfxrdVvYF9zrss4uOWUx8roHAfXTbMpjczSztZ+AevvPkCXtqdLkJFupdCfbG18xGSzrDc2p6hgJrDHx9Rr+qfgPeGdh1H1R8V7VOQ/WdfmAgXjjuIbrinpFngb3u1w8LGqz/bW6+W1n7eeDW/V6RgF62YG4CuYZIBiJn7gIBe+d0tAv2RrdBY9+l9yl6n+TLtYb7HgF7Z9oz0VKR/tQdLW4H8L0t+gr7LS31AvnuaFezUphZ1c98Bl/6sy33CsZNFsjqnwdS46hb7I3uKw0u6+K1WFYf9LatWEy71q5QFjCAPX935UNj1TWwZsFSZhwo9UFUd+WBUPyqG3/rFnsd0o1gz248LDTeDGDSoL9C588CaQw5V8DeqXtAwN4ZJaGjFdib9V1406cf3L/ob/TQd1mBfVr5DPWGce2sNz3JwF1QwN6Z9ky0VATs3dXiVoCvMP43dxvjb/07d9VGSuNPASuru50FsXbdbkwnF24LdxmKxd4f2J/fsYeXxd2Xxd4K7NnC78vFRrfks/+9vxtAvi9TQAYiZ+4EAXvndAzEYm/11g4GBf07K7A3Gi/EYu9MOyZqKtKfurPl7QC+XnKx0LuzHf2VygrOrazzSC8UoOfyRN1ibxSGoZjdagLxsQ8U7DForpo+SfnI4/BnsTf62PNCOfj85+/dqdx1cA7qID72/m558+9lIApON+NVAvbO6WgX7I0+9uhfNsx7z+NHHyjYF58oVIYIGAfEYu9MeyZaKtKfurvFzYDdCuIF7t3dlmZjsFWJfbvrhF5P14E9qqRHluj+8HOU9/MP1PX+J1Uce19RcfyBvdFd5qpRU2j/5nXKhUdfkIYFbGYWe4Z2/VU5u9wYo+WIK05wN6cMRMHpJmDvjG5mOtoFe2PfpUfTsmuxRxoctQuRc1r3G0zbViyibg88RZ9NGX1WXxXOvT3Co6ikGkkFpD+NpNqh5eUP3P19H1rucrXTCtixvNs5J5hyuRLsg6mIXBMfCshA5Ew7isXeOR0DAXtncpVURAFnFJD+1BkdJRVRIJYUELCPpdZKgLLKQORMIwvYO6ejgL0zWkoqkVdA+tPIay45igLRVkDAPtotIPl7KSADkTM3hIC9czoK2DujpaQSeQWkP4285pKjKBBtBQTso90Ckr+AfRjuAQF7Z0T1Fe7SmRwkFVEgfAoI2IdPW0lZFHCrAgL2bm2ZBC2XDETONLyAvXM6isXeGS0llcgrIP1p5DWXHEWBaCsgYB/tFpD8xWIfhntAwN4ZUcVi74yOkkp0FBCwj47ukqsoEE0FBOw19Y0x9KPZMImatwxEzrS8gL1zOrrRYh+Jvgphhxc9/zD1fGwCWW3IF4lyONOSiZmK9KeJ2e5S68RWQMBea3/Emv7pmy/UJlN86LvT+tptNrFvI+dqLwORM1oK2Duno12w5w2qsKGU3ofw7rH6Z6GWzqyvspumcc8N/bpWNw2iHo+Mp9T0DMLmgA0u66I2yOLDGI8/0HIYr7dbZjkvOAWkPw1ON7lKFIhlBQTs/bSegH1kb28ZiJzRW8DeOR0DBftfDx1Qu1mzISAcYO9M7co2A/RnldfzChXMQ73eqXonSjrSnyZKS0s9RYEzCrgS7NnytX3lEsLui9eNnaZ2ndV3pNU/58EivWJlWjX9RXUNrGMLxg2l3K3riXeBNTuP0zZasfpPW0I1m7Yk3mWWd5HMrFXX8xlkxHmwaKFsy197ltIrV6G1s95UCvN3+Fsvu24VM9tJF9Yy/XO9rvF+88pA5EwLC9g7p2MgYL9w3ENUpWYdKjp21GP51sHeCLb8Xbv+D6p+pWaTlvTtB1M9/Vb+nh207JUxXv2gWV/FfRAgHQfaH33b8SN5NHvYHSo9s37ECuz99bWw6uPQd+E29oW1c9rQkgnDyWwHXr2v9tUH2+lbrfpQZ+6A2E5F+tPYbj8pvSgQjAKuA3setJr3uVUBMw98bW6+W221ntPnNsq5+hb1mvho7l41eO7ftI7eGdBdgTTDeMHen9XAlrdjizqX/8Z5DPr4HAcmAfrfGCgwKYDVrUK1LMJgfcU9I5UFzuo8pIMBtN2dQ88qX/GJwrPSqFqnIdVq1tpjLeMJQ+Xs2oS66nlCAxyod7wfMhA508IC9s7pGCjYtx/wEK2Z9QYZ+zD0M/7AHqXW+zT0VU2uvFYBdL1WHT19C/dbel/FfVDvEZNU38kGErM+E8YDNjgYLfZ8HcqLdIx97fp5M1QZV70z2dN/mpWjSffrVd+K/mvX2hWWfTX6PO6D9T6d+2BffWvBvt2mfaiTbk/O3EnRSUX60+joLrmKAtFUwHVgz5bvXiMmKis9H8bPdUtTYf4hD7zjGgxEAGeAsH6dDvn8BgBW9i73PUELn3tIDS4YyPTJRVbDizyQDcjH5MLsvIyqNbxeaesDOCYePBjygIp66QMeW+lxXqfBw2jpxJGeyUQ0b5BI5y0DkTOKC9g7p2OgYA8jgN4nbVuxmGB5twP2DO/G/o77tPM79rDdB/nqM9lNyMxij76LjSF6P4k+GX0o91Hznhpiqy/U3RmNfbXxjQVPhvRFuboBBOXW+9bNS+d6Jg16H8rrBJy5C2I3FelPY7ftpOSiQLAKRB3sMYDgVTOOzkOeUIu19EGFK2YcbIyDhQ7OvsBeP48HPgZ7uP7oB6xlGEjZes5gb3YeBh9MEnhC4mvw4TwwqM0dOdArT35drr9C1113gm3oWLlOBiJnWkrA3jkdrcDe2HcZ37RxP4SS2AV7Blt/YG+3D9L7UrP1QlZgjzeb+sHuNABzHeztlMNXX218I8tGE+TN+vnrW636UN0w5MzdEHupSH8ae20mJRYFQlUg6mBvrECwFnu7YK8PdDxZ6PUcGtYAACAASURBVDV8In3x8hhTC7k+KBndcvSyG8tt12LPA76vhnTz4rtQb0Dj9TIQOaOogL1zOgZjsYdlmaH53MbNqVzFyqYWe3btYx97O2Cvu+n56oNCsdibvWFEXtyv+XqraJwsGN+u6mnbtdj7MprY6UOduRtiLxXpT2OvzaTEokCoCrgO7I3+neyugoEEr36tfOztgj374rPvKAQ0+tjzwjH4ququOEYfe/08uOJYDT66H6ieRtMeN3q577Ava5t+g2nlWxM81n/xsQ/1Nk+86wXsnWnzQDaoMrOI81s5vI1kVxx9/Q5c+9AX2QV7Xl/E/ZavPsgpH3vUYcO89zzrlMx87I3l0NcbGX3szcDen499IH0r++nrbo/O3A2xl4qAfey1mZRYFAhVAdeBPSpkFZHBTqQGjr9s5WP/3/f/oTTbuPBD0l1cjJEmeIEtf77nu9VqMa0xKg6f58tib4xyYxUVR49aobvpiCtOqLd54l0vYO9Mm4cK9tx/8AJRlIpdePC8N2rfnU4WHgsI7K36KrO3nVZ9JqtjJyqOWVQbs6g4xr6QI4SZRTBjH3j9baSvaD9WYJ/IEcTs3OEC9nZUknNEgfhSwJVgHy6JJYZyuJR1Ll0ZiJzRUsDeOR3tuuI4k2Psp2LlThn7NYu9Gkh/GnttJiUWBUJVQMA+VAXlekcVkIHIGTkF7J3TUcA+MC0F7APTK5xnS38aTnUlbVHAnQokFNi7swmkVLoCMhA5cz8I2Duno4C9M1pKKpFXQPrTyGsuOYoC0VZAwD7aLSD5eykgA5EzN4SAvXM6Ctg7o6WkEnkFpD+NvOaSoygQbQUE7KPdApK/gH0Y7gEBe2dEDWTxrDM5SiqigHMKCNg7p6WkJArEigIRA/tYEUTKGX0FSktLo1+IGC+BgL0zDShg74yOkkp0FBCwj47ukqsoEE0FIgb28jo7ms0cO3nLQORMWwnYO6ej9F3OaCmpRF4B6U8jr7nkKApEWwEB+2i3gOTvpYAMRM7cEAL2zukYSbDXI8qgBtjAavvKJV6V6T9tidrUyt/B8fL18/SY8v6ul+9jXwHpT2O/DaUGokCgCgjYB6qYnB9WBWQgckZeAXvndIw22GNXVgZ5fYdXf3APsMeB6/nQN4RyRiFJxc0KSH/q5taRsokC4VEgZsE+1M2mgo21bLVTIwZR3u1W/5vL2e2Bp+izKaOpeZ9bKaNqDdJ3Ugy0afX0A73W1/kY9HHUataa/vfx29T53lEU6W3ZZSBypkUF7J3T0S7Yc59SO6cNLZkwnLBja+8Rk9ROs7C6dx7yhAeyzXaERYnZQg/Leq/hE2nhcw+pa3SIx3O6a+0K4t1b0ce8M6C7qrC+S7UZ2Ov9ZvGJQq83Anr5dGu/nc/97XDrTGtIKoEqIP1poIrJ+aJA7CsQs2AfqvSRAnsuJ2+XDrD3Z2nzV7dwgD300GGeIT/n6lv8FcfR72UgckZOAXvndAwE7GcPu4Pa3TmU8NzgOd285GPqO/5dVZhFzz9MPR+bQBWqZSmgzulzm+e8o7l7FagX7NvtmfQz6BvBXu+7jh/J86SbWasuLX5hGFXOrq0mA2Zgz5+16/+gOrdeq46qDLrBojD/EK2fN0OVB8eyV5+hS66/i6w+5/pwOZEH1yfShgFnWj1+UpH+NH7aUmoiCthVwDVgX1hwmD5/6Unqev+TlJFZ3VN+3RqFD9m/VLc84XMMUmtnvamu43OM8M7XdBo8jOY9NURZ0djnFAMkBuXcres9n6EcuGb51HF0LC+X6rRoS236DaalL45UA3RWgws95WTYxgdzRw5Un1/77FtUtXZ9NUhaWezTymd4lR3XMEwDrjktWP8ACPs2rvFKH+f6stjxWwR9YoE3BoAMHADA68ZOo28/mEoNLuvimXRYtYfdGyvY82QgClY57+sE7J3TMRCwZ3hH36C7veB5WjjuIbrinpGqYPobOx2q9e/sgP22FYvPst4zlK96ZzIte2WMlxC6RV//Qi+fDvA6mFu9JcXn6P/Qj6DPDNZo4kyLSSq6AtKfyv0gCiSeAq4Ge6Pbi/4Kev+mdR6rEgYwthDh8wXjhnqsZPoAqg9MvixjusVJTw+DtdOuOBiY8/fsUBY2HabzdmzxGix165tusdfLY2axswJ7TGLgJoC3B1YQj3x02I/E4yEDkTMq16lTh/bs2eNMYgmciq9wl0Z3laY9bvQCdiuwBzjrIGwF/VZgr4M0+g+e/HMzsbECk3Ucuo+93pRGowkbD3hSohsozIwNbIQwpoM89LQS+PaJetWlP416E0gBRIGIKxB1sDcbFKCCbrlmVXQwZ7DXLeGAVLZM4xUzfMXtgL0RonWLk9l3ulWOyxasj70O9r5aX4cEPS8zf1vdYufLYs9vHYxuOFyOaLjjyEAUeh9w6tQpSktLI9kPIHQtA4ljb7RUh8tirz/zm5fO9RgGjLU1c8XhczCZgDsQu8/okwv9TaSVC6H+OdLkPkdcb0K/55xMQfpTJ9WUtESB2FAg6mCvDzRmrjjGkG38KpnBnt1qdD9UBt9AwJ4Xn3F52OJkfC3ttMUer671OrIbEQ+c7F6EcvEiNiPY+7LYWYG91YRHH5gF7GPjITYrZUpKCm3cuJEuuuii2K2EC0oeDrAPxcfeGBXH2B/pbxvxJhOHmcXeCPZ41ldNn+Rx9+O3iOiH2MceboBmnxt97JHWhnnveVxzXNCMCVsEAfuEbXqpeAIr4GqwN/puhmqx1y1duisOrPJWFiejX6mZZUt/S8CL5hioA4mKo6eNQVSPfOHLYs+DrZnFjsuhD+TGqDxisY+/HqBKlSr03HPP0ZAhQ+Kvcg7XaPPmzdSkSRPTVMMB9uzSZ7amh59TFIaj4viLY6+/9dTj1Puy2CN9fQ3PVaOm0P7N61TUrppNW5qu+zEaG/S3qnpUHHHDcfgGDSE5AfsQxJNLRYEYVcA1YG+mnw72vMgU5yFag10fe/Yl58GKr/flY69bnIzQz4MbR55Aeign+/Vj0A4k3CX8YHX45rcW+qI4DksHVyOOdsHX+LPY6WsP8FYCbwSMYC8+9jH69PooduvWrSk7O5sWLFgQf5VzsEaNGzemH3/8kfr06UOffPLJWSkHAvYOFkuSEgUcUUDA3hEZJRFRIKYUcDXY6xYiWIEQV33jglnUa8RE0oEbiptFxdGtUri+zc13K6sUJgYMyzgH0Rz0qDi6xcksEoTRcmW0ULElzE5UHOSv7y7JrjhsuePIPa37DaZtKxapssOvFu43ZovXdIudnka7O/9CRceOWsbRNy6Ulag4MfUcn1XY8ePH09NPP03Hjh2L7YqEsfTNmzenAwcO0MyZM+mqq66iHj16nAX3AvZhbABJOuwKCNiHXWLJQBRwnQKuBntfaoW6QZXrWiLKBZI49lFugDBkX7lyZbrrrrtoypQpYUg9tpNkqN+/fz8lJyfTF198Qb169ToL7gXsY7udE730AvaJfgdI/RNRgZgEe15sytbtRGy4cNRZdp4Nh6rRSxNW+8cff5xmz55N1157bfQK4rKcjVDPxTODewF7lzWeFCcgBQTsA5JLThYF4kKBmAT7uFBeKmGqgAxEzt4Yt9xyC3300Uc0atQoevLJJ51NPAZTs4J6K7gXsI/BRpYiexSQ/lRuBlEg8RQQsE+8Nnd1jWUgcr55RowYQRMnTqRq1arRTTfdRPfccw/l5OQ4n5HLU/QH9WZw/5///Ifs7jzr8upL8RJQAelPE7DRpcoJr4CAfcLfAu4SQAai8LXH4MGDad68eWrBKDavwiZWHTp0oFWrVoUvU5ekXFxcTIjtX1hYqHzq/R1wy+nWrZvSScDen1ryvVsVkP7UrS0j5RIFwqeAgH34tJWUg1BABqIgRAviku+++462b99O2KU2EY7vv/+exo0bZxr5xqz+sO7v3r2b8vPzwwL2svg/Ee666NdR+tPot4GUQBSItAIC9pFWXPLzqYAMRHKDhEsBq8g3xvx0lx1Y+cNhsRewD1crS7q6AtKfyv0gCiSeAgkH9rz7bLcHnqLPpoxWcd2x8RNH2rmk712URKXU4to71Od2D+NGUXydvllVIBtXZWRWt5u15zw9/YAv9nFBJKPlyEDkZMtJWkYF/MG90Q8/kMWz3AcgT1xn3B9D32NCB3ucb7UPh7SgKBCKAtKfhqKeXCsKxKYCCQv22OgpNT1DtRo2nFr26jN0yfV3EXaODeYIFOw5D97siicYweRtNokIJR392kjHt5eByKmWk3SsFLCCe7PFtYGCPe90DaMAbxCX0+c2yrn6FmU80HeCXj9vhtpwbtU7k1VRsau0cRdraUVRIBQFpD8NRT25VhSITQVcA/ZmO50CKpe/9izVzmlDSyYMJ+zw2nvEJDVAYkfWzkOeUIMhDpyLQTV363rSLWP4DoPlOwO6q+sbtb9S7cDKFvtmPW6gjYv/TWtnvanSuf0f89T/DNpW6SLN5VPH0bG8XKrToi216TeYlr44kno+NsFrcsBWdKSN3WJx2NmRNq18hpcVj3eZxfW8sy3+5l1v921c45U+QILrjfNa3TRIQQQOWAe5ftB94biH6Ip7RqrvFj3/sPrNFsdvP5hKDS7r4nl7Ee4daWUgis2OJNZKbYR7q4g5gYI9nh/uA7j/wk7ZeAOnT/4L8w8RwL7T4GE076khqh/DZMDJiX6stYmU13kFpD91XlNJURRwuwKuB3vAers7h3osXpuXfEx9x7/rgVAMohWqZdGcxweQmWWsYN9uBfyYENRs2lJBLQ7dFYc/B+zqf2c1vEily4Ou0eK2YNxQVRZY+QO12POreL0cGVVrqIkMQGDbisWUv2eHyluH6bwdW9TEBq/5AQv4GwfO011x9PJk1qqr6l05uza16/+gT7A3Whw/f+lJ6nr/kyovPpCPDvtO3uQyEDmppqTlSwGG+3LlylH58uWJd6HVr/EF9uy+h/NhZGja40bP84vnBc+4/qzqk2gj2MNQoR/6RF5aURQIVgHpT4NVTq4TBWJXgaiDvW5VNg5stZq1VhZktoDBUq3Drm5pZiC2soyx640ZUFuBPcqjD8y6Bc4I2OEEe1+3l66JDva8lsBXvdldwGix1y2O//v4bep87yiP2xLKwj73eCvg9CEDkdOKSnr+4H7s2LH06aefmobBDNRib+yH/PVLsNgvnThSvTEL1g1QWlgUsFJA+lO5N0SBxFMg6mDPkvtyxeFX2VZgD+uXlWUMLiq71q5QbijwqQ8U7OHCox/s+sIWN07XabBna/yyV8ao7PtPW+L1qp5dh9haaLTY6+46XH64KPUZ/arSysoVRwcRq8gdAvaJ11Ekao1DAftgfOzZ9Q9vGANZvJ+o7SP19q2AgL3cIaJA4ikQF2CPZvNnGQsW7HmBGy+05VvECL36a3a2vLG/bL1WHT2uRFXrNFR/+3PF0V1f9LSNExVfFnt+u6Hf1kYfXn1CYqajWOwTr1OQGp9RIBSwRyq+1uhw34Lz9Kg44oYjd6BTCgjYO6WkpCMKxI4CrgF7M8mMi8+sLPa+fOyLTxR6/ORD9bFH/hvmvaf82+GKo0M/AzP82HlBrzHCRSDhLrFolScB+tsM+N7zGwiuGyx7vnzsMdHg9QHs08/lRJ1WTZ/kWbegT5CsFsqKj33sPOBS0tAUCATsQ8tJrhYFnFdAwN55TSVFUcDtCjgC9nl5eXT77bdTx44d6YknnjirzsEOjnbBnhev+ouKg4JdNWoKHdm1jToMfMQTx97Kxx7ArFvc2A0H+Zm5qTDcs5uMfj7yZvcYO1FxcD4W7vKiOnbF4df7+ByuNa37DaZtKxYpV6PNS+eqyDhs8dPXL+iRgvQ6dX/4Odq74VtPVBwd7FEGI8RLVBy3P9JSPicVCLbvcrIMkpYoEKwCAvbBKifXiQKxq0DIYL9ixQoaM2aMAvrVq1fT0KFDHQP72JU1fkoucezjpy2lJoErIGAfuGZyhXsUELB3T1tISUSBSCkQMthzQbds2ULz588XsI9Uy0UwH9l5NoJiS1auUkDA3lXNIYUJUAEB+wAFk9NFgThQQMA+DhoxnqogA1E8tWbs10XAPvbbMJFrIP1pIre+1D1RFRCwT9SWd2m9ZSByacMkaLEA9nKIArGsQGlpaSwXX8ouCogCASogYB+gYHJ6eBUQsA+vvpJ6YAqIxT4wveRsdykg/am72kNKIwpEQgEB+0ioLHnYVkAGIttSyYkRUEDAPgIiSxZhU0D607BJKwmLAq5VQMDetU2TmAWTgSgx292ttRawd2vLSLnsKCD9qR2V5BxRIL4UELA3aU9j/Hynmxyx4XHwRlb4W88T/y8c95CKLZ9Zq67albJ5n1spo2oNzw67xg2yAimj2S65gVzv61yOe49zfvrmC6862slDBiI7Ksk5kVIgGmDP+11wHXkPi0jV2Vc+ofYdkYyw5Qa9ol0G6U+j3QKSvygQeQUcA3tfRY/G4Bh5Ke3nGAjYYzMsPpyacIQ6OFvVFBti6TAfzA61MhDZv4/kzPArEOm+S9/dOiOzOvGGdDACYMO8aB+h9B2R3hMj2lq5IX/pT93QClIGUSCyCrgG7K12NAUcLntljFKl85AnlAXYCLj6LrD7N62j9fNmUHrFyrRq+otqd9brxk6jtPIZyvJds0lL+vaDqZS7db1nh1akt+j5h1UeGMg73zuKVv/zZeo1YiKxZVxPD2VYMG6oVxq4Vt/ptdVNg9RusDiQb9HRAtq4cBbB+gb4xWFmsb/yobFqt1fsXouda68Z8wat+XCqT4s96vzOgO4qTX2HWX2XWtavXf8HVXk4/b7j3/W8FeAdc9lC6E/n5VPH0bG8XKrToi11e+ApWvnWC3TJ9XcRT0aMA7mdW1sGIjsqyTmRUsAO2AfSd6Hc+s7PZs+rEeL1/o37E6tnNb1yFfVs4+DnGNf/9/1/qM82LvxQ9St47vGcGnfL1t8OGHe57jP6Va++idPQ+2je9drYp6IPRr/b4LIunglKuHexjtQ94uZ8pD91c+tI2USB8CjgarA3DmjLXn1GgSOO5a89q8AbVi0j2ANyeYBh6zgDbcHenxXoHz+Sp2C+52MTVHqzh91BvUdMUoOODrQAe6SHAa9m05YKijkNfIf0jemx+0zl7NrE+eJvBvlALPb+XHE6DR5GSyeOVG47GKj5VXeTK69VZa3XqiPlXH2LqhPXt0K1LI+rD67RywMtMWnBoO1PZz4PaZhBPKCB20x/8+DrVpaBKDwPuqQanALBgr1V34Vnb87jA1RfgL4Gz97R3L3KCIAJOvcn6NfMDuP5+rOKPqzdnUPV8248z9iHcX9k9ezr/Q7KiX4lf88OanPz3V59Bz7ftXaFKn/Bvt2efhRug3qf6mvyo8N+cK0kV1kpIP2p3BuiQOIpEHWw163cuvwA86q16yvrOwaN1PQMz9f+LMn64MjnsiWcQReJ4byqdRpSrWatPdDLkMoTBx3eMdjyNQzLfN62FYs9AxzKygM7LNmfTRntAWzOF7+d8LE3gr3VLay/QtfB3ggabMEz+vSbTaB0nY1uOFyOQN1xZCBKvE7IzTX2BfbB9F24xqx/0t8OGvs71kd/NgHb/D/6NGMfZjR26HnqkK5PMnw9+1wGvR9h+Lfbp/7v47fV21C9L2dDBPpTOZxXQPpT5zWVFEUBtysQdbDXB4zPX3qSut7/pLLC86EvJNNf8/qy2OuTASPYA1jZV1UHez09o8VeT88X2M8dOdCrvfGanV9fG/N1Cux1Sxnci9gFiCcX7KKD/PgVvBnYb1+5xKvs0BqwYFdnhgV9ssKTmEAscjIQub3LSKzyBWuxh0pmfZfZZICfy8L8Qz4t9mb+9lZ9mJl7Ik8YjGBv9uzDqGL29sAM7Nn1h+8MuEw27XGjZd8hYB+5Z0j608hpLTmJAm5RwPVgb2at0qPDYBKgvw42vs5mCxkDNluXjNYuJ8Aer6qNYGu0svGAbzxXt+ThnGCj4lhZ43xZ7Dkvo7uM8c2IUWd9wiMWe7c80lIOJxUIBezN+i58ZvYWEp9bLZRlN7cOAx9Rb//YSOCrD7ML9naffd0AY9Y3GRf2GvsOq/U2YrF38m49Oy0B+/DqK6mLAm5UwDVgbyaObgXW/bVxLvtvst87PmM/VfYnZR9WfMe+7nwe/EF1H/tQwV732We/dfjOsiuObrHX/dj1BWzs92pmFbMKd9mm32Ba+dYEz3oDHijP79jDy5cXn6+aPkn5zvvyseeFfVhvoPvJmulsfDNifNUuPvZufOSlTIEoYAfsA+m7jK5vxig4VlFxcvrcZuo7b3c9jP6s6v2q7mOvP/tZDS86q/+AL73Zmh72sS8+UaiuQVmNb/vExz6Qu865cwXsndNSUhIFYkUBV4O9MWIDu+Kw1RuuL3iNjQVd+zev84C9HgHCGJ0G8MxRdqyivwTjisM+6MboNByNRwd7lN/4Sp4j/uA7rvee71bbioqzeelcYjcg3RVHdwW4atQUpRHKwZCO9M2i4tjVWYcFM4iXqDix0g1IOa0UCBbsffVdelQcPUINl8EYx15/Hq2i2Phbd2QF9nbLaYwuxn0HGzH8RS5D3YzrbSQqTvifOwH78GssOYgCblPA1WAfjFj6K2jdl9PMJSaY9OUaawUkjr3cHfGmQLBgH286OFEfiWPvhIqBpSFgH5hecrYoEA8KCNjHQyu6qA6y86yLGkOKErICAvYhS+iVgOw866ye/lITsPenkHwvCsSfAnEH9vHXRIlVIxmIEqu93V5bAXu3t5CUz5cC0p/K/SEKJJ4CAvaJ1+aurrEMRK5unoQrnIB9wjV5XFVY+tO4ak6pjChgSwEBe1syyUmRUkAGokgpLfnYUUDA3o5Kco5bFZD+1K0tI+USBcKngIB9+LSVlINQQAaiIESTS8KmgIB92KSVhCOggPSnERBZshAFXKZAxMDeZfWW4rhYgdLSUheXTooGBTZs2KCESEtLo0qVKlG1atWoQoUKcScOwF4OUSCWFZD+NJZbT8ouCgSuQETAPvBiyRWxosDkyZNpzpw5tGXLFjp8+DCdPHmSSkpKYqX4Uk4HFAD8JicnU7ly5RTk16pVi5o3b07XX3893XTTTQ7kEJ0kpk+fTg8++KCqwxtvvBGdQgSQa5s2bWjTpk20Y8cOOvfccwO4Mv5PRZ9UtWpVdW+ir4r3I9HqG+/tKfUTBQJRQMA+ELXkXI8Cw4cPp5deeolOnTpFLVu2pG7dulGXLl2odevWlJ2dLUoloAI//PADLV++nBYvXkzLli2jffv2UZ8+feiTTz6JOTXefvttGjRoEHXq1Im+/PJLGjBggKvh/vLLL6etW7dSw4YNFdhv3rxZ4P63uw6QW7NmTaXHgQMH1N/fffddzN2TdgucaPW1q4ucJwokigIC9onS0g7Ws1+/fjR79mwaNmwYPfvssw6mLEnFkwJffPEFde3alWLNFYChnmHe+L/b2oihnmHe+L/byhvJ8jDkMswb/49kWSKRV6LVNxKaSh6iQKwpIGAfay0W5fJ+9dVX1KFDB/rPf/6jrLFyiAK+FICbTiyBvRXEuxXurSBe4J6USyCA3mihj1e4T7T6Ss8rCogC5goI2MudEZACeNX/66+/0sGDBwO6Tk5OTAViCez9wbu/7yPdwv7g3d/3kS5vJPPzB+/+vo9kWZ3Iy199/H3vRBkkDVFAFHCHAgL27miHmCkFop+kpqYK2MdMi0W3oBkZGVRYWBjdQtjI3S602z3PRpYhnWIX2u2eF1JhXHaxXYi1e57LqndWcezWw+55bq+vlE8UEAV8KyBgL3dIQAq0b99eRZf49NNPA7pOTk5MBbCoGhFzli5d6loBAOsDBw5UP3ai3wR6vtMVxwL1bdu2qcWydqLfAO7Xr1+fENFyOBpMgwYNbC2QZdhFnwY9Y+1ItPrGWvtIeUWBaCggYB8N1WM4TwH7GG68KBR92rRpCphvvfVWeu+996JQAv9ZBgrqCIOJhbX4efPNN/1n4PAZAvbWggYLungTGYthMBOtvg4/SpKcKBCXCgjYx2Wzhq9SAvbh0zZeUwbcP/bYY5Sfn08tWrSgnj17Uq9evVQoSbh1ueEArGMC4i+sJZ931113RQXqWSu7LjY4D8CKHzvWfTe0RahlsOtyooeFxBuNWD0Srb6x2k5SblEgUgoI2EdK6TjJR8A+ThoyCtWAm8vMmTNp48aNlJeXpzYzQ8QcLLDFHggIjxmp44ILLqAff/xR5Y2flJQU9buoqEi5mmHSgZ/BgwdT9erVVbHcAvV24T4RoZ618Qft/r6P1H3oVD7+6uPve6fKIemIAqJA9BWIC7CXbd+jfyNJCcKnQCyFiwxEBcDGrl27qKCggOAKEemjXr16nixRFvhYT5w4UfnZV6lShX755Re68MILlbXbbVDvD+7tWvQjrXkk87OC2XiF3ESrbyTvJclLFIglBeIG7B9feyyWdJeyigK2FBjbqmJMxYG3VSmXn6RD/Pfff6822frb3/5G0Xa/sZLNaJkXqD+jlBF27bqtuPwWtSxeotU3VttJyi0KhFMBAftwqitpiwIhKiBgH6KAQV7OcM9vS+xGzAkyu5AvY7hv1KiRin7Du9CGnHAcJKDD7oEDB87asCoOquhVhUSrb7y1n9RHFAhVAQH7UBV02fUb5s+kuSMHqlL1n7aE6rZsr/7+8vXnaNkrYyi7cXPqO/5dympwoctKLsUxU0DAPnr3BeD+j3/8I/Xu3Zs++eST6BXEZs7Z2dlq7cLevXsTZqGsTWnULrTlypWjChUqKBereD8Srb7x3p5SP1EgEAUE7ANRKwbO1cG+85AnqNPg4XSqqJAWvzCM1s56U8A+BtpQL6KAfYw1WBSLe//999PcuXNp586dUSyFe7POycmh5s2b04wZM9xbSAdLlmj1dVA6SUoUiGkFBOxjuvnOLjyDfbNeN1F65Uzq8ch4Kti3ECaTyQAAIABJREFUm2YPu4NqNLyIDu3Y4rHYsxUfqTTq0J2uGzuNMjKrK+v+7nVfUaP23WnJhOFnTQasrissOExzHh9A21cuoWa9+qnCpVeuosqQmp5B+qSj1U2DPJ9zfpm1z1OTD/1NQ5w1T8DVEbAPWLKEvQBgP2/ePOWKI8fZCiQa6CZafeWeFwVEgTIFBOzj7E5geIa1fvOSjxXE79u4hjbMe0+B+nef/Et9Vph/iNbPm+EF/k26X68s/AzuAOyshhcpWIdLD74D8Pu6jvOErJhM1GnRVuWxf9M6emdAdwXtxjT1/Nh1KM6aJejqCNgHLV3CXShg77vJEw10E62+CffAS4VFAQsFBOzj7NZgsL9p0kxa8+HrlNPnNsrfs4OO5u6lmk1a0rcfTPXysdet7+y6g88Y0DNr1VVuPDjY8o6/jde1ufluNQGA1R3n4dCvW/XOZDUp0N8KoEw41/hdnDVJSNURsA9JvoS6WMDed3Njr4Tk5GT67LPPEuK+ELBPiGaWSooCZykgYB9nNwWD/a2vfkKbl36salew92cF+DhWTZ/kseJjkS1gnqGcrfLsGgMITyuf4QXom5fOVYtzjdcZ02C/fuTZ7YGn6LMpo5WbjX6w+w8mGzr0x1mThFQdAfuQ5EuoiwXsfTd369atKSsrixYvXpwQ94WAfUI0s1RSFBCwj/d7gMEeLi/5e3d6RcjB/wD7a8a8QWs+nKqkgMW8+EShl7uNFdgzoJtdF6jFXm8HPT/4+MtxRgEBe7kb7CogYG+u1KOPPkqvvPKKstb36tWLZs2aZVfSmD5PwD6mm08KLwoErYBY7IOWzp0X6mCPEsKvnS3j21Ys9ljsNy3+yGMlx+dshWcfe7agGy32utuM2XXswgMffuTNi2T9+diLxd78fhKwd+dz5sZSCdhbg/3kyZMpPT2d7r33Xnr++efd2HyOl0nA3nFJJUFRICYUELCPiWayX0gd7HmRKvu9w42GXXGQIha35m5dr6LeVMzKpqp1Gpzl824Ee46wY3YdW/6DjYrD/vf2axv/ZwrYx38bO1VDAXtrsH/xxRepuLjYKaljIh0B+5hoJimkKOC4AgL2jkuauAnqLjVQQY+mk7iqhFZzAfvQ9EukqwXsrcF+4sSJdPr06US6HUjAPqGaWyorCngUELCXm8ExBfJ++sHzFgCJ6rHxHcskwRISsE+wBg+hugL25uI99thj9MILL6jdZxPpELBPpNaWuooCZxQQsJe7QRRwsQIC9i5uHJcVTcDevEGGDRum/OpLS0td1mLhLY6AfXj1ldRFAbcqIGDv1paRcokCRCRgL7eBXQUE7M2VGj58OI0fP17A3u6NJOeJAqJATCsgYB/TzSeFj3cFBOzjvYWdq5+AvbmWI0aMoOeee07A3rlbTVISBUQBFysQN2DvYo2laKJASAokmgtBSGIl8MUC9uaNP3LkSBo7dqyAfQI/G1J1USCRFIgbsH987bFEajepa4IoIBb7BGloB6opYG8u4qhRo+jZZ58VsHfgHpMkRAFRwP0KCNi7v42khAmsgIB9Ajd+gFUXsDcXbPTo0fT0008L2Ad4P8npooAoEJsKCNjHZrtJqRNEAQH7BGloB6opYG8tYlZWFuXl5TmgcuwkIVFxYqetpKSigJMKCNg7qaakJQo4rICAvcOCxnFyAvbWjZuUlCQW+zi+96VqooAocEYBAXu5G0QBFysgYO/ixnFZ0QTsBex1BcRi77IHVIojCkRIAQH7CAkt2YgCwSggYB+Maol5jYC9gL2AfWI++1JrUUBXIOHAPu+nH2j5a89SrxETKW/HFlo/bwb1eGQ8paZnmN4ZX77+HFWt05Byrr7F751zqqiQFr8wjNbOelOd26hDd7pu7DTKyKyu/te/73T3CDp2OFed23nIE9Rp8HC/6fs6AfWaPewOyt263uu0a599y1bZ7WSOPBY9/zD1fGwCZTW40HOJ1ed8gq75tx9MNdWzsOAwzXl8gNKhbsv2lsXZMH8m5e/Zoc7T02WN7dQjls4RsI+l1opuWQXsBewF7KP7DEruooAbFEhosLcDg3bBnsE0p89tHpDeve4rWjBuKPUd/64CYZzz+UtPUtf7n1Rtz3/bKYe/m8UMrpHfwnEP0RX3jPQCcX9pWX3PE5N6rTp6TRYA27vWrrCcINkB8GDAPth6xNJ1Avax1FrRLauAvYC9gH10n0HJXRRwgwIJDfa6xX7/pnX0zoDuqk3Y0r5txWKaO3Kg+owt34B1Pq/VTYM8MKtbkvWG5c/b3Hy3skhvX7mEapzfjDKqVKVda1dSduPm1O3PY2j1v6aoy7DIC1b+40fyPBZ43fJvfCvA5TIDez63eZ9blRXcquz65EW/pmbTluoNRNHRAtq4cBb1n7aE8vfu9IJ4HfbP79jDU0fUhd9EWFns9bpAy4K9P3ss9npZkRbyxsHaI+2mPW70vH3B5Aj1WPbKGK/24jwqZ9f2fOfEG5JIPbwC9pFSOvbzEbAXsBewj/3nWGogCoSqgID9vBnUafAwWjpxpMeyDRjHAfcbHXp1eM6sVVdBL4CxXf8H1d8M0HqjAFCRBmAdB1vQK1TL8vyNz+FG03vEJAXgRus1rj+au1dNIjYvnetxRdHfAGAiYHST0cur58HAjrLDpcUf2PN5SMM4gWBov/KhsSodtuYb82b3J90VR68XT6wA8BlVa3jVRX8joNdfnzBgErZh3ntekyLoyXVF2aEf8tHfooT6AIX7egH7cCscP+kL2AvYC9jHz/MsNREFglVAwN4E7HUxdeg1upwA2uGj3+2Bp+izKaNNwV6HT19gr0O5PhmAJdoIsOxjrpfTysceoMzWen09gZ6HDttmFnvd9cb4FsDqTYXuBoRyGsG+yZXXek2GjOkaJ0dcdiuwN/ruo91w8KSL6+C0e1KwD57d6wTs7Sol5wnYC9gL2Es/IAqIAnEP9rp7htF9Q3fFKdi32+P6orvYGMGeXXP41oGbTJ/RryprtZnF3i7YM/gC5I1uKMgLLjvsq6/XicHd3wJW46TEn3sM6sLWbmO9jO5FvODVWG4usxnYs9sOX2sEe72OuJ7bxAzsjW8LcD6X0fg2RcBeOr14VUDAXsBewD5en26plyhgX4G4B3ujFHai4uhWaCPYm1nLdZA0RrfR09Kh0uiKYwR7f9F6kKfRKm4WsYbrz28XOAKQlcVedwOyAnu+tnW/wbRtxSLl4lJ8otArqk0oFnuUmd2XeKITqsWeJycC9vY7BzkzthQQsBewF7CPrWdWSisKhEMBAft5M6hNv8G08q0JKgQmQNKOjz2i3Og+4gy2/qLiWPnY62Bv9LFHedh/XHc58edjr98w7Kqj+53rPvbsw6/7uluBPZcPC4F58a5ZmVdNn6TeMphZ7LF+QX+LoOerg31a+QzlsoPDuMYgEB97AftwdB+SppsUELAXsBewd9MTKWURBaKjgID9b3Hs4eLBbjbGaDf43Cwqjq849WhO4/d2Lfa4VveZ191wdKjGeXZdcXCuVVQcPc12d/6Fio4dVW5FVmDP4L15ycce9yB8BlBnDa8aNYX2b16n0sFiWLPFs8aoOOkVK1Pjrr/35IsY/6h753tH0cYFszx7DyAyTqBRcQTso9PBSK6RU0DAXsBewD5yz5vkJAq4VYGEA3u3NoSUSxQwU0AWz8p9YVcBAXsBewF7u0+LnCcKxK8CAvbx27ZSszhQQMA+DhoxQlUQsBewF7CP0MMm2YgCLlZAwN7FjSNFEwUE7OUesKuAgL2AvYC93adFzhMF4lcBAfv4bVupWRwoIGAfB40YoSoI2AvYC9hH6GGTbEQBFysgYO/ixpGiiQIC9nIP2FVAwF7AXsDe7tMi54kC8auAgH38tq3ULA4UELCPg0aMUBUE7AXsBewj9LBJNqKAixUQsHdx40jRRAEBe7kH7CogYC9gL2Bv92mR80SB+FUg4cBe39QIm1Hph3F3VrNm13eitXtbcLx2jqVu97pAztPj3uM6xHnXd8HlGPaIC9/tz2Pos78/Qblb13vi4AeSl5wbOQUE7COndaznJGAvYC9gH+tPsZRfFAhdAQH7ADUMBuwDzCLg0wHtC8YN9dosSt8VNzU9w2s3XZz/0zdfeIF/wJnKBRFRQMA+IjLHRSYC9gL2ugLNmzennJwcmjFjRlzc31IJUUAUsKdAzIB9Xl4e3X777dSxY0d64oknvGqXlJREj689ZqvGbLGvndOGlkwYrnY27Tv+XcpqcKHamXX9bzvR7t+0jrDDKQ7eQXbbisWenVXNdqLlHWtxzeIXhlHR0QLauHAW3f6PebRx8b/VLqx1W7b32gEWO7T+/M0yz66qnD/DeP6eHQrA9V1akT7vOGv1NkD/PH/vTk+5W/a9i9bNflvVC+Vt1vMGWjltIh3Ly6U6LdpSj0fGk153fRdeq91wbQkvJwWlgIB9ULIl5EUC9gL2ugIYKytWrEiLFi1KyOdBKi0KJKoCMQH2K1asoDFjxiigX716NQ0dOjQksJ897A5qd+dQyrn6FtIt2wBagHWnwcNo6cSRdMU9IxXwb5g/U+XH51et01D9zaDbe8Qkqtm0pYL5ytm1qV3/Bz1/61AOsM9qeBHNeXyAgnVAPvLHhOK6sdMob8cWz8TCCPY4Dweu0y30+Gz5a8+qiYHRtUi/BnXgSYJxAqNb+1GnRc8/TD0fm0CZteqeVSd9ciJW//B3GwL24dc4XnIQsBew1xW444471Hi5ZcuWeLnFpR6igChgQ4GYAHuuBzqo+fPnhwz2DK5mVnozsNd11F1xjD75+B/f9xn9qvpdr1VHNQHQredIC98B5AHius+/Fdi3uflur8mAnl5G1RqWYK/DvC+w18uD83atXaEs95hccB27PfAUfTZltOetg417S05xQAEBewdETJAkBOwF7HUFpk2bRkOGDKHCwsIEeQKkmqKAKAAF4h7sAa3LXhmjWhsLSpv2uNELhI3Wa3aFKdi3m2DZxwJT3R1FB3sjBDOkX/nQWAXvbN02gr3ubhMI2G9fucTrroU7UK1mrUMGe6P7z9yRA73yYVckfIi3DSgHf2Z8SyCPlbMKCNg7q2c8pyZgL2BvVCAtLY3ee+896tevXzzf+lI3UUAU0BSIe7A3trYxKo4V2MNazYdu7Q7EYm8F9nYt9uxKA4v9wnEPeVyD9DrZ8bGHy48vi72VX7+vJ8VOBCF50kJXQMA+dA0TJQUBewF7owK/+93vaPfu3bR169ZEeQyknqJAwisgYG9YMAvIbdNvMK18a4LHbz1YH3szsGcf+5w+t3l89nUfe/Z3r1At6/+zdy5QVxRXvt/xhZ8GQfES30EdFVmYoIy5IIIwgmCIryTqqCMOOhj1xjFolgSRIIso4ojoEN8xRk1iEjUqExwQiAgiBI0Q4SJqQFBBLuMnIEE0usJdu3Gf7FN0n9Onu6tPdfX/rJUVPF9X1a7/ru7z6927dwXRcYZyzqvX+fI6t19exo1TFScqx958gqBTleQdBPO9A1TWyefaAbDPR2cfRgHYA+xNBT766CPae++96d/+7d/ozjvv9GGZYw5QAArUUQBgHwL2nF++fNaUSiUZnYrDkM+pKnGq4oSBPYO4ri7T46Lv0Yfr1lRuIiR1iFNdDuvZn/66dUtoVRwZX/xbr4593Ig99yc17/nfOuUm6nucZfYUANjb09a3nrt16xa8KImc6h09y5XTtm3b5pvLY83n7rvvDnLthwwZQg899FCsNjgICkCB4ipQOrB3zVW1NsxyzVbYk78CAPv8NS/qiJdeeik999xz9OabbxZ1CtbsLjPYs6iPPPJIAPe77747XXzxxTR27Njg3/hAASjgnwIA+yb7FGDfZAc4PjzA3nEHOWTe4MGD6X/+53+CEof4VCtQdrAXNTgl56mnniLeF6alpYX22msv2nnnnWm33XbDkimhAnxetG3bljp16kR9+/bdoeJgCSXxYsqFAvsoxRvZoMoLr2ESpVEAYF8aV6ee6BFHHEE9evQIorP4AOxrrQEG+9/97ndB6tbKlStp3333xZIpoQKcnrZ+/frgKd+KFSuI38no2bMnTZkyhfbZZ58SKuLHlAH2fvgRs/BUAYC9p461MC2Ouv7iF79AacMQbRGxt7Dg0KV3CkybNo2uvvpq+vOf/0y33357kL6FT/EUANgXz2ewuEQKAOxL5OwUU50wYUKQN80RN3x2VABgj1UBBeIrwBW27rrrrmAPhH/+53+O3xBHOqEAwN4JN8AIKBCuAMAeKyOOAvzY/IwzziDebRQfgD3WABRIq8D5559PU6dOpU2bNqXtCu1zVgBgn7PgGA4KNKIAwL4Rtcp57Ne+9rVgE6K1a9eWU4AYs0bEPoZIOAQKGArwHghcJvWOO+6ANgVSoPRgz7XZ9U6wtnyH6je2lPW7X4C93/5NM7s//OEPdN555wURNX4JEi9ARqsJsE+z0tC2rApcfvnl9PTTTyNoULAFALDPCewLti5griMKAOy3O+Ivf/kLffGLX3TEK80xY+PGjbRgwYKgmsl///d/B9VMevXqRS+88EJzDCrQqAD7AjkLpjqjwOrVq+nQQw+lv/3tb87YBEPqK1BKsNe7tPa5YnSw0+oZNz1ILe32qdp1VXacZRln3DqC9uvcjf74m/to/RtLgp1nN655i+bcNa5qd9atmz6gp68bSitfnBmoz/2fOOwHwW6zc++5MdhhtvWt1+nlX90b/H3Z9Meo45HH0FkTHqEOnY6gzz7ZGoy16PEHgr8PeXAm8W61/JFdaXW/9V2MI4qsQBnBnkutTZ48mRYvXkwMs5999lmRXZiZ7Qynu+66K3Xs2DEA+htuuIE6d+6cWf8+dwSw99m7mJtNBfiaw9fkU0891eYw6DtDBUoH9gLeXQefT12/fm4AywL2H21opSdHXEiDRk6i/Y7uFgB2244HUI8hVwX/5s+A70+gda8tpoeH9g/gvvPJpwd/O/jYXlX/5r4Z5p+95Ro65dqJQVsN9tyeoV2PwzcAbA9/+N9s17TxwwPo37rxfVoy9dFgfP7MuftH9NUz/zW4GcDHXwXKBPYM8t/61rdo1apV9NWvfpVOO+00GjRoEB177LHYJdPfJZ7LzAD2uciMQTxUoH379vTDH/4wKIOJTzEUKB3Ym7nuZiRd4HmXNi0BWDNoDx5zd/D/DO8C7ALpHOXnv7U/8NDgb/rDNxHTx19NvS8btQPY67z+pc/8Ooj+dz/n0iDaz1DPUXqJ3h8z+LygvbatGMsLVqZVoCxg/9BDD9Ell1xCJ5xwAs2ePZt22mmntNKhPRSoKACwx2KAAskUYLDnXa15jwx8iqGA92Bvpq90Ov6kqpdlNdivmDeD3lk0L4iKM9jL306++qagDQM2A7d5c6DBnm8GOBovH0mz4f/WEXsN6SbYSxqP9MFPBvimgY+bMuri4Gv5rhjLDFYmVaAMYM+54kcddVRQfeGBB7anoOEDBbJUAGCfpZroq0wKcOof17XnqD0+xVDAe7A33ZAmYl8P7A/vNaAq4l4rYh8F9hLhr5VioyP5kn9fjOUGKxtVoAxg37VrV2ppaaGXXnqpUXlwPBSIpQDAPpZMOAgK7KAAwL54i6J0YC9QLGk1jeTYNwr2HGFf8NCkIEeeP/Ui9maOvbzkyzn/G9e+HaTr8DE8B+TYF+9kS2Kx72DPefWcQ8/VFw455JAkEqENFKirAMC+rkQ4AAqEKgCwL97CKB3Ys4t0VZz+19xMravfpL7fvaFuVZx6YG+my5x6/WRat3xxkMLT0n7fWGBvVsWRlJuo74u35GBxIwr4DvYXXnghzZs3LyjdiA8UsKUAwN6WsujXdwUA9sXzcCnBvnhugsVlVcB3sD/iiCOCF2b55Vl8oIAtBQD2tpRFv74rALAvnocB9sXzGSwukQK+g327du3olltuoe985zsl8iqmmrcCAPu8Fcd4vigAsC+eJwH2xfMZLC6RAr6D/W677UYzZsygk046qURexVTzVgBgn7fiGM8XBQD2xfMkwL54PoPFJVLAd7Dv168f3XjjjUE6Dj5QwJYCAHtbyqJf3xUA2BfPwwD74vkMFpdIAd/Bnrcrf/755wH2JVrTzZgqwL4ZqmNMHxQA2BfPiwD74vkMFpdIAYB9iZyNqVpTAGBvTVp07LkCAPviORhgn6PPzBr6OQ6NoQqqAMC+oI6D2U4pALB3yh0wpkAKAOwL5KzPTQXY5+izdxfPp1UvPR9sMiUfvTttrd1mczQTQzmkAMDeIWfAlMIqALAvrOtgeJMVANg32QEJhgfYJxAtyyYA+yzV9K8vgL1/PsWM8lcAYJ+/5hjRDwUA9sXzYynBnmH66euG0soXZ9JhJ/SnM256MNh1Vu9Iq7/nSPuSqY9Smz3b0oKHbg/acNR92vjhtP6NJSS7w4YdJ32bO8cOeXAm7Xd0N5px6wha9PgD1PHIY+isCY9Qu/0PqnzHy4mPO6hbz8C2uffcSG3a7hUcr//G/9a2H/vtS2jA9yfQLm1aiG16eGj/4Pio7/Vci7eE/bYYYO+3fzG7fBQA2OejM0bxTwGAffF8WjqwF8A+ZvB5ATAvfebXtHHNW9T9nEsD2O86+Hzq+vVz6YX7b6bN69cGgLzutcUBHGsY37R2dXBD0PrW68Gx8m8+TkCfv+cP3wTofzNs800Bg/wee3eg6eOvpt6XjSJOxYk6jvt5csSF1OOi4TvY9+nHW3foo/2Bh9L+XY6jZ2+5hk65dmLlhqFtxwOCueoxWQP+8LzxcUsBgL1b/oA1xVQAYF9Mv8Hq5isAsG++Dxq1oHRgL5HvgSNvC6L08jG/5/8WKN668f0KvHMbhm8GZwZh3U5DvjwB4Cj7Sf9nNE2/+eoA8PlmQt9cdDj0qApkM+TzzUXYcS3t963YwzcA8nRAbjz4iYJE6WVODOzvLJpXFb3n404cNoJm3TaqcjPR6KLB8fkpALDPT2uM5K8CAHt/fYuZ2VUAYG9XXxu9ew/2DOFz7hoXaNfnitHU6fiTqiBdRGVQlsg7Q7nOfWew1+BcC+z1cQL9Avac+qM/HNk/vNeAHcA+7DiOvvNNgtyQaLBfPmtKFcBrsJ8y6uKqMSXt5qMNrcETAE4l0ik6NhYZ+kyuAMA+uXZoCQVEAYA91gIUSKYAwD6Zbs1s5T3Ym+ImjdjHBXt9cyA3CwN/cBs9f+e40Ai5voEw03K07abdcSP2nGakq/CELTZJR6p3XDMXalnHBtiX1fOYd5YKAOyzVBN9lUkBgH3xvF06sJcXZyXdRdJVOD1l6tgrInPs44K95OJzyk1Ujr286Dpo5CTSqThmjr0+jlNxoiL2m957typNR8Y9esC3dvie3xvofvYwevGnEyvRf+TYu3viAuzd9Q0sK44CAPvi+AqWuqUAwN4tf8SxpnRgz6JEVb+pVxVHcthrpeK8/Kt7A92XTX+sKsXFrIojL9jK92teXRhaFUeOqxWxT1L9hmFe0nSQihPnVGnOMQD75uiOUf1SAGDvlz8xm/wUANjnp3VWI5US7LMSz+xHp8cwbOMDBdIqALBPqyDaQwEigD1WARRIpgDAPpluzWwFsM9QfYB9hmKiq0ABgD0WAhRIrwDAPr2G6KGcCgDsi+d3gH3xfAaLS6QAwL5EzsZUrSkAsLcmLTr2XAGAffEcDLAvns9gcYkUANiXyNmYqjUFAPbWpEXHnisAsC+egwH2xfMZLC6RAgD7EjkbU7WmAMDemrTo2HMFAPbFczDAvng+g8UlUgBgXyJnY6rWFADYW5MWHXuuAMC+eA4G2BfPZ7C4RAoA7EvkbEzVmgIAe2vSomPPFQDYF8/BpQP7qJ1n2XVxqtroGvZx3S216o8ZfB7xxlU2Pmw7b44lH6l/n9VYsovuGTc9SK1vvU56wy4ZQ+Z58LG9qOvXz40cupYPsrLXl34A9r54EvNopgIA+2aqj7GLrADAvnjeA9g36LMkYN/gEA0fztA9bfzwYIMr3r02LmA3MpAG+5Z2+4Q2jTsuwD6+8gD7+FrhSCgQpQDAHmsDCiRTAGCfTLdmtiot2B/QtTvNnPgD6njkMRUg1hH7da8trkTADzuhP3GkesW8GZXdWiUiriPlsoMrO3TGrSPok82baNn0x+mCe6fSshm/JYnY6zanXj+ZVr80hwaOvG2HSDjvDrtxzVt04rAfVGB90eMPBOtlyIMzg+h/FEyb8Kx3mpU5t9v/oMDOth0PoDl3jQv67XPF6GA8/uidePl7tjssYs83O9y+y8Czg3b/0OfUIGJvPkVgmzscehQ9fd1QWvniTGJd+1x+PS38+Z3B/PmGwfTB3PvG05bW9XTgV75GvPOv9ksZdswF2Dfz8oixfVEAYO+LJzGPvBUA2OetePrxSgn2T464kHpcNDyAT4bSzevXVqCRU0xOHDaCZt02inpfNiqIgDMU80eOb3/gocG/BXwHjZxE+x3drQLJPYZcVfm3hnIGewFb/p7BnMePAmYN9nwcf7idjtDzd8/ecg2dcu3EwNawjxltl77ETm4j0CyR/z327hAAeNfB51fmHWbn8llTaOnUXwbA/9GGVhJt9+9yXJVdPJd3Fs0Lxtn03rs0954bA5jnNvLvMLDXTyJYb5mrvimRG5H0p4N7PQDs3fMJLCqeAgD74vkMFruhAMDeDT80YkUpwV6DsBkhDgN7LahOxTFz8gWgB4+5OwB2yTXXOfbcF/+NQZhBVkfWzdx1Afvu51waQLbcDOj+WtrvWwXGcZwv/QrYi51bN31A08dfHdzQ8EcDd5SdCx6+g+RGR+am/1vs0Vo1AvZaK31zsEublljvRMTRw+VjAPYuewe2FUUBgH1RPAU7XVMAYO+aR+rb4z3YS5oIS8HpJEcP+FbNCLG8FMrwydHn9W8sIZ3yocHeBE2B35OvvimAd0m9McFev3jaCNhz+or+cDqQGRkPc7mML2k8ooWAvdj3h3EJAAAgAElEQVSpwX7rxvfr3oD0u3IsPTd5TOUGxgR7rT3/TXRsBOy1VjqdSOYpaVJRef/1TwG3jwDYu+0fWFcMBQD2xfATrHRPAYC9ez6pZ5H3YG8KYOaeh0XsOV2EI8LyMVNiJCJdL2IfBfZxI/aSMsMRe4mkm+k2UTn2DOmzf3wD9f3uDcG7AZIGw/MyI/ZhYM9zTxOxb3/AIVU3BnEj9vpmifPpTbCXdw7qLWxf/g6w98WTmEczFQDYN1N9jF1kBQD2xfMewH7x/Ao8Ckh2P3sYvfjTiZUXOpPm2IeBveTYR+WumznunIfPKTg6x17n9vPfo6ri8Eux3FbD8qcfbw3SerhdrYi95LBLmk7UuwCsmdyo6Bx7Dfa77t4SvHPAn7Ace34yot9TkONMsNc59nyDo9+P0DdixTsNoy0G2PvkTcylWQoA7JulPMYtugIA++J5EGAfAvYMn/xS6JRRFwce1ak4kg4SpypOGNgzUOtqMz0u+h59uG5N5SZC0lc4xeSwnv3pr1u3hFbFMevUmxVodHUbjt7rSjTHnT2MVsx7liSVJixiz+Cs7ex/zc3UuvrN4AmA+S6AafMe+3SkziefHsA8p/9wFR6ufrNs2uPBPPnD9vBHVxvi4/jpxLrli6teZtZPUPQ8fU/DYX0A9sW7qMJi9xQA2LvnE1hUDAUA9sXwk7aydGDvmotQ0901j7hlD8DeLX/AmmIqALAvpt9gdfMVANg33weNWgCwb1SxjI8H2GcsqGfdAew9cyim0xQFAPZNkR2DeqAAwL54TgTYF89nsLhECgDsS+RsTNWaAgB7a9KiY88VANgXz8EA++L5DBaXSAGAfYmcjalaUwBgb01adOy5AgD74jkYYF88n8HiEikAsC+RszFVawoA7K1Ji449VwBgXzwHA+yL5zNYXCIFAPYlcjamak0BgL01adGx5woA7IvnYIB98XwGi0ukAMC+RM7GVK0pALC3Ji069lwBgH3xHAywL57PMrf4b5/9NVGfH3+4gXbfa2/aaZfdErVHo/oKAOzra4QjoEA9BQD29RTC36FAuAIA++KtDG/AvnjSw2IoEE+Bbdu2xTuwgEftuuuu9Pzzz9MJJ5xQQOuba/LYsWNp2qznmmtEQUZ/af48Or5nr4JY21wzB53cj8aMGdNcIzC6MwoA7J1xRWxDvAD72LPFgVYUWLp0KU2fPp2eeuop+sMf/kB777033X333fTNb37Tynjo1B8FAPbJfclgP2vdp/Tl7r2Td4KWUEApsPqPc+nk/XYF2GNVVBQA2BdvMQDsi+cz5y1moH/yySfp+uuvp3HjxjlvLwxsngIA++TaC9j3/s51yTtBSyigFJh7700Ae6yIKgUA9sVbEAD74vmsEBYz0P/whz+kJ554ApH7QnisOUYC7JPr7hPYL33m1zRl1MU7iNHnitF04rAfBN8v/PlkOvzEQdSh0xENicZ9L3hoEp014RFqt/9BNOPWEUH7Ad+fQLu0aWmoL31wUnsSD5hDQ4B9DiIXbAiAfcEcRkQA++L5rDAWn3XWWTR//nxat25dYWyGofkqALBPrrdvYC/wHQbuGs7TgH2jbaO8k8ae5B633xJgb1/joo0AsC+axwD2xfNYwSzebbfd6N5776WhQ4cWzHKYm4cCAPvkKpcF7N9dPJ8eHtq/ItSQB2fSqpeeJ/7+jJsepF13b9khCv/C/TfTnLvGUccjj6HDep5MK+fPCo3Yf/rxVnr6uqG08sWZQf/yhOCzT7ZW+myzZ1ta8NDtdNgJ/YPxWt96fQd7DurWM7kjHWoJsHfIGY6YArB3xBENmIGIfQNi4dDGFejVqxdxqbkXXnih8cZo4b0CAPvkLi4L2LNCZoScwT0K7Ne9tjgA79Nv/Cl1Pvn0ANDXvLowFOwXPHwHtT/wUOr69XODMTgdiG8c9ju6W1U7tuHJERdSj4uGV46t9YQhuVeb29JlsJ89e3ZzxcHoUKAgCgDsC+Koopo5YcIE4v998MEHRZ0C7LaoAMA+ubi+gX1Yjj1DNkfDGwF7hnWB/pZ2+1S1Dcux37rpg6qovQb7TWtXB1F6/nBkn23hnH+k4iRft0lbcoDoqP/dJ2lztIMCpVDg9T/MQY59KTzdxEkuWrSIjj/+ePrss8+aaAWGdlUBgH1yz/gG9o3k2NeK2McF+35XjqXnJo+hRY8/EETp+cORfg32/B2/ZCspOwD75Os1bUsG++sWbUnbDdpDAa8V4E0tEbH32sXNn9zf/vY32nnnnanWJkutra10wQUXEKftjB49uvlGw4LcFADYJ5caYB+eY89gv3zmU0HqDb8sG1UVp/vZw2jK6GGV9BrJ5QfYu1nHHmCf/FqBluVRAGBfHl83daZ9+vShOXPmhNowb968oNY9A/3ChQtp+PDhTbUVg+erAMA+ud5lBnsN66wg578f+JWvBdH1uDn2Jw4bQVPHXhGk1/QYclWQUy/Re8mxR8Q++frMuqXrYC8vXEv6FqeB8UdSvdod8OXIEqutq96seodDP5GSfkTPRtLA+GZ149q3g/dCbHzMNDY9xrHfviRRSdlac681B/3Ce9pStja0yqtPgH1eSpd8HL4g14rYszyvv/46PfPMMwD7kq0VgH1yh/sG9mE59gIHm957NwCf9W8sCV6KPbzXgEpefJeBZwcitmm7VwUk5EXYelVxls+aUqmff2jPk2lL6/oggi8v3UaBvYCY2GMLnJKvjmQtXX551nWwZ8X1C9hSKUmeBPG6jVonJtjX8l5csG+kz2SrpbpV2NyT9JsU7JOM5WMbgL2PXnVwTgB7B53iiEkA++SO8Ansk6uAllkqALBPp6bAdOf+Z1Y2VtMgvsfeHULLq9aL2EeVb5VUM7kp5htZTkGLGkdvBKcj6nGqTHEpWC4hqzeN02qFgX3Yi+lyw6NvjrkfeVFebOEnHPwETebEc5U2XzntAlo5f2ZQpjasRC1H7PkjT+G4VC33J09TPtrQWvWERKfhsX217E63Quy3Btjb1xgj8C5oiNhjHUQoALBPvjQA9sm1Q8twBQD26VaGmY5j7rEQVV61pf2+kak4sm9CWPlWtnbuPTfSwJG3BYZz5SZJ+ZGnXFKiVcNrh0OPqqryFBfsZRfoMJVMsDdTY/jpmLwgLzceXQefHzzF0OP/8Tf3BTcQDPqmnQL2knan+zQrXoWNx3ZzlataYG+m4el+strgLt0qq90aYG9TXfRdUQBgj8UQpQDAPvnaANgn1w4tAfa21oAGXBPYecywaHAtsGfQjSrfKqAZFok3wd5MceH/3rx+bZC+pitJmTcj8s6KRNSjdDPB3nwKIf89aOSkoItp44dXXnDXfbJd8vK7CesyJ3kiEvXCu1S84n4l317PvxbYm77QdhdhIzqAva0zG/1WKQCwx4IA2Ge/BgD22Wta9h4RsU+/AjTQcm8SpRZIDSuvmhTst258PyjRymk1fb97A83+8Q3BBBhmNdjLOyM8tv7Ibsr65iErsDd3jJZx+cmD1sWMgtd6elDrKYSOtMuL8fqFZb7xWDr1l3Uj9myb3ula212Ed2kA9unPYfQQQwGAfQyRSnoIIvbJHQ+wT64dWoYrALBPvzIkBeWTzR8GnclL3bWgtB7YR5VvfW3GE5E7MNeL2OuZxknFSRux1+OZOe1xbYkL9llG7NOviHx7ANjnq3dpRwPYl9b1dScOsK8rUeQBDPaT7nuQ2h1wSPJO0BIKKAU2rX2bhl86lMaMGeOcLkWoiiOi6dQYqYYjKThh5VWT5ti/t+yVyhMBHb03I/Ycaa6VYx+nfGyjYB8nxz5sw7dGblZq7T2hc+PZL1xV64v7fil0J2l5OTlsDwvk2Dt3KYBBLigQB+xdsBM25K8AwD655gz2v33lz/SV0/4leSdoCQWUAq/+18/pm8f9A8A+5aqQdBzuRjZK439r4NflVffvclzNOvZR5Vt19RuuHrNnh45BsQp+QVRSajj9Rirg6PKuuiqOzvs3y8cmzbHn+aapiqPnwH3Vu1kxX3rlNlFVcXhvAO0LqfgjNy+oipPyBEBz/xUA2Pvv46QzBNgnVY4IqTjJtUPLcAWQioOV4asCZamPj1QcX1ewY/MC2DvmEIfMAdgndwbAPrl2aAmwxxoolwIA+3L5G7O1rADA3rLABe4eYJ/ceQD75NqhJcAeawAK+KgAIvY+etXBOfkE9l9s195BhYtr0pbNH1LLHnvSTjvvXNxJpLD8L5s2Jm4NsE8sHRpGKIBUHCwNKFBsBQD2xfZfYaz3Cex5LtfMfa8w2rtu6P1nH0/nTn6S9trvINdNzdy+ib33p23btiXuNynY8yNp/tTaRTKxUWhYaAVcB/t/uX9aofWF8VDAtgI/HzaIvrAtzS+LbQvRvxcK+Ab21y3a4oVfXJjEzy48ic665RFqt3/5SjZyZCXN5TcJ2HO1jj899TPqc/n1tEublsoSYNhvf+ChwfbuUR8pX3fM4PPI3IGRy84tmfpoZRfLen25sPa0DXHm75rNNuxxHewP+cfeNqaNPqGANwq8/fJcgL033nR4IgD7xp0j5dLWv7GkqrEuUdZ4r261MOsca9BkS5O87BRHN12zWW/JLjtEmjsh2lKtGWAfNZc4YBsX7E0/2tIvy37jzD/L8Vzty3WwR1DF1ZUDu1xRAKk4rnjCczsA9o07WG9LLlHUsO8a79mdFjbBvsdFwyvRZ1O3MoO9bMTCq0A2zjE30zG3n5ebSW7DdaH369yNeAt6vumUPqIi9npbedm+nmtIR30va4Jrb/NH6kpL/232bEsLHrqduC9OJZo2fniVHdxG961vhHnuf92ymVbOnxW0CavtLfNx5yzJ1xKAfb56YzQokLUCAPusFUV/oQoA7BtfGGEQr3cuZKgxIUhDiRm51oD08ND+JBtysGX8b51vreHPBCOGpsN69qeZE39AvCGK3nwlqp252YeMZ269vmz6Y1V9mhF7DaBRTy7i6FZWsOd5v7NoXtVGL4NGTgrSanTEWufgi+94fcgGMJvWrg42wPloQys9e8s1dMq1E4l3vTRTcQ7vNYCmj7+ael82ivgpCI/Pn6jv+QZWj81rjcGd15jsqql3hhQ7Wt96PWhn2tRu/4OCG5G2HQ8I1rdeT2w770QZNv/Gz1Z/WgDs/fElZlJOBQD25fR77rMG2DcueZyIvQYVhhsG9rAtsRc8fEcQxWTwkeMErgWWBfx1n2z109cNDcBPwGjOXeOCMTocelTV3/TW3mHbo0vOtR5PQHHNqwsDeJNdFNsd8OVKrrZpd9jYWt04upUR7OUm6uBje1WeZJgwH5YXr9NvxF9hfbQ/4JC6YC9+4psFDfz6e15vvNZ4zemx+RiBd474a9vZ53PvuZEGjryNVsybUbl54ZQg80kC96NviuV9AaTibPcCwL7xazVaQAGXFADYu+QNj20B2Dfu3KhccYnKm9F7+e+ug88nnUphRrY1gDM86X66n3NpFayz1RqCX5vxBC2f+VQA4RIN5WN4q2/Zdpz/W24S9KzDtug2twBnEDPHE7Dn1A/5t4Dd5vVrg7F1Tnc93WROU0ZdvINTzCcQjXutsRY2c+y1Djyv08b9hF557D6SFBexVG7wTFDmaLZ+v0PfMOqXZ6VdGNhzBF7boddi2Peffrw1WH8rX5xZJSSved0/+7sW2Ju+lRQgXkNy82K+LwCwB9g3dvbiaCjgpgIAezf94p1VAPvGXaojzxrUBZqjAFZATecZ8+gCVQLg0o8G+6MHfCtIT9D56VGgvevuLUGag4A9/z//twZHDYP8Pf83f6KeLESB/eAxdwcgZ0KpztkWhevpZt6slOXl2VovvrImAray1iQqXytir58CRIG9Xvm8ljaueWuHMpvyPd9YhkXyuQ8dea8H9mFj6DnyDQfAPvyahIh949dqtHBbAb526Kd9blub3jqAfXoN0UMMBQD2MUQyDjFTSuS/v7jvl4KUGv7oNJmoEXSkXCKfAtZJIvYSNTfBXkfNJd2GwZvLKj4z7srKzYJ+YpAmYh8133q6cbS/jKk4ckMjOfYSHecnPJLbztFsE+xr+WvTe+/WzLHfv8txlRQZ0Z3tiPrezLEXX3IePH8kh78W2Ou8f75p4x90ebLDKWmI2Ne+FvkC9jo9i9MP9doJU6CRJzbm08esK5Xp91o4rVHSzPgcMm+U5XyOqkQVlfbW+C9S/BZy0yzvtsRvWX2keTOfpB+2Zc7dP6KvnvmvwXs+ZfgA7MvgZQfmCLBv3AlhueLycqqk40Tl2NfKf2dLGOzNiiBxc+yjwH75rCkk5SJ1ms6Jw0bQ1LFXBDnTPYZcVYnqh0Xzxe6sc+xN3coK9ux7/YKzfmlabsb0zR8fz8fwR0O/ropjVq3h1CgN0FEvPEd9H/VCeNyIfa2KOxrezIi9nn+tWv6Nn8nFauEj2JtAnAbsdcqjrBP9UnoWpV412Jv7RRQB7OVcZVv7fvcGiqN/sc4St60F2LvtH2+sA9g37spa1V3+8v7/q8pzlxSVWlVxzBSdU6+fvEPJQrEyCv70jURYxF630/nqGuIO7XkybWldH0TwJTr8yeYPg6G5Ko5Or8m6Ko7o9t6yVyo3IWVJxWl8BaJFGRXwEex1xF6/CyTXGn7hWt7L0OVbOQDCHx2RD4N48ybRTIPUN78v/+reyrVOXyP1DS2PxxWf+CVvM2IvfXPbw3qeTJ9s2Ry8Z2S+n8LXex1I0e/ZyDsyOprPRnGFK/7w77VUmJJ3bfR1uVY1NgkedDr+JFr10vNVm95FtYtzM8/9Sqpnl4FnB3b+4z9/p6JPm7Z7VVI19TteUaVvzSCH/u2M+v0ryvUAYF8UTxXcToC9Ow40X551x7LyWWLz5dnyqYkZZ6GAz2DPTw9n3TZqh/KrOhVNXviWMq66ZKqAsq4KZWrOARlpKyVeJV1Gv98kaYi6FKukjOnjNNjrEq06jbHflWPpucljSOzSNnClMXlvReYSBfa6/Kv51ECntPHTWXmPhY+b/eMbKpF5/d9sr97lWr9jo4/jG6uw/vQNGY8ZpmNYBTbRUacKmqVvo0r/sj8lbYv/XcQ0HoB9FldC9FFXAYB9XYlyOwBgn5vUdQcC2NeVCAfkrECZwF5Lq9O0zKi8pJYIQOuqUPXco1PIGNj1S5wCunLDIP3qJwAa7M13BaJy0HUkvhGw1zck5gunZknZqBfUuR1H6qWkrAbjei/P671UWNco3U19TLsFzPXNgC59a94ISfSe0w3N6lv1/Ovi3wH2LnrFQ5sA9h46FVNKrQDAPrWE6CBjBYoK9mb6BFf4kpdONRBzFFfSS8zN98y9NrS0nIoi1blqRewFEnm/D/noimT6JV5dDSpq/wYN9rX2aNApRjyupPk0Avb6JV0znUj3KS+lyxx16ov2g8w/Ks0lqp353o68pxW2v0VYqpIG+7DSt1FV1sy9Xdj+Iu5EDbDP+KKI7sIVANhjZUCBHRUA2GNVuKZAUcHe1DFOVRwdQTYj9lER6agXZbk955UL2HOOurzILaDJ8B0G9mkj9ib4xo3Y65QdttsE+3qVhLhNWJ4+70Qt7y5pP+iXaGttUiepQ7KbtfmkJOqJhqm3ThnS66Ne6V85Nu5xrp3DAHvXPOKpPQB7Tx2LaaVSAGCfSj40tqCAz2Df/exh9OJPJwY7FOvyq7Vy7M2SqWaZWHYBw/7Sqb+s7Owt6TZmgYEosOdItL5hiMqx57Eksq9z7E2w11W/wiL2ktevjzPB3syx13PUG72ZufJm+U3dj36ZVreL6i9ujn3UDYnOsTf9qNN0tE9ZB7mpK2qpTIC9hQsjutxRAd/Avs0X94KboUBqBT75y4e0bdu2xP2MHTuWZq37lHp/57rEfaAhFNAK+Az2XD2GgU7SM8xqN/x9WFUccyM8s459VMUYTofhfTyWTXs8uJkwc+T1EwOzKk6bPdvSkX2/EVkVh33Glc02vLMiGEPPi79ft3wxcc6+3ACseXVhUEmNP5KK1P+am2nt0j8GLxObYM//be5eze0ZkGvtIh6WpiQv3soNiOwsbW6SaH6v3yFge6QqTo+LvhdUA+L51UrFkbx6qW5k+jGs+k29ij9FuFoA7IvgJQ9s9A3sr5n7ngdewRSarcDE3vs7CfZx62g3Wz+Mn70CvoB99sqgR1cUMCsPuWKXK3YA7F3xhOd2+Ab21y3a4rnHML08FHA1FQdgn4f33RwDYO+mX8pulflSrn7xtuzamPMH2GNF5KIAwD4XmTFIwRTIG+zNx8w6FSFqgxyWdO5944NNxQ78yteCzXB0BQ7dR9Sj+6jvuW/9g13EChQFW3J1zQXY15UIB0ABpxUA2DvtHn+MA9j740vMJDsF8gZ7hmj+8Mt6tTag0S/v8fHTxg8P8nM5v1Y/Bg/bvEdqcUs9a7Pih65zHbVJzEHdemYnMnpqSAGAfUNy4WAo4JwCAHvnXOKnQQB7P/2KWaVTIG+w19bqUm7ygl3YBjkSVZfyfY1u3hNVMk6+1y/b6ZKD6ZRF66QKuA72/3L/tKRTQzsoUAoFfj5sEH1hW5qyDKWQCZNMqwDAPq2CaO+jAjbBPiz9hTWUihiiJ+eqdjj0qEoZPY6Waxjn48za22GbvjD484fL8XF1C12BQlfRkO+lFOCixx+ocq1sEuOjv4swJ9fB/pB/7F0EGWEjFGiaAm+/PBdg3zT1SzRwWcE+ziYpehk0ErE086XNUl767ydeOpK2fLCeGKKyBCe9KYtsI16iZZ16qjbB3jTOjJA3ErEP21TH3P7dHC9qu/uobeJTi4kOMlHAdbBH4YJM3IxOPFYAqTgeO9elqQHst2+IUu8TF+wlAtp18PnEm6vwh4FJ50LrDUD477N/fAP1/e4NseyoZ6eMp2FeIB/50XHU235MM8FetoyX6hJRG+SwnRrszVJzukb1rNtGBTWxORdfcum7n3MpyU6S+ntzU56wjX/iK4kjs1IAYJ+VkugHCjRHAYB9c3Qv3agA++rNSXRVEYm0r5g3o7JxStgmKeZmKmFbnsuGJwxTkhKx7+FdqGWv9vTOoheJN0zp9+/jaOEvJgdrkP3CKRQfbWitpGhEbbbCx4tdYTvyMfD96amfBZul8MYg+NRXIE+wl5sx2ayFn9zwp/2BhwY3h1Eb5Jhgb/aj14vcLPAxcb7n48I2iamvHI6wpQDA3pay6BcK5KMAwD4fnUs/CsD+72DPu+/pyCbDOH9qbWteq/qIXlwMVrKdOX8vkVK9rTh/z3nWg0ZOIo6u16qOwrsZyg2EfgLANwImxBd1++1mnpx5g30z54qxi6EAwD6dn3SKm7krqu5ZvwOjv+cb7qMHfIvm3nNjsFtt1JPeqFS3ONbrG3A+Pusys/p3yNxtV+yLu1eGTmcVLeQ3c/8uxyGYFOJwgH2cswDHpFYAYB8N9lpcnYrTaPUR7kdfBGuB/bO3XEOnXDuxkjIhNwN84dR98FOEsCcDumShaX+n408Kbhjwqa8AwL6+RjgiXwUA9un0jqoCZfaadvfUpGBvpmyGVadKp8D2tFD9mxLWX1KwN58M68BYWrt9aQ+w98WTjs+jLGBvphXoyIuOXGx6791K6otOsTHBPqz6yOAxdwcXTSlNaEaBJNJTC+x1NMiM3nA7TtmRuuV6TjofOwz4kWff2IkIsG9MLxxtX4FmgP2f/vQnuuWWW4j/f/Xq1bTvvvuGTnTVqlVU7+VZ/WRRIrwC0dxpvfRDAeY2e7alBQ/dHqSU8fsg/P7S+jeWVKLbYcdxWqNUe+Lrs47Y8/Vfb/TW/exhNOv2UZUAS9R1XIItUs1Kfi84nZPffdF2Sklas7CCXLejIN6MijMsy2+P/Bbop8Zz7hoXmKsLMegnEPw968P26N89bjPj1hFBEQeex6a1qwNtORBk/g7pal26ytYff3Mf6eBRmL/tnyVujwCwd9s/3lhXFrAPi8oIREc9kpS8eL7AmWAfBs88hm6jx9Tf8wUvKhXHBHv9cmTUotP9bd34PoVVwQHYN3bKAuwb0wtH21cgb7A/6aSTaM6cOXT44YdT9+7dafny5dS7d3hJyzvvvDMx2MdNP9Sbs8n+DgygAqkSiebrOb+vImkssvmb3pDNBPuojd74pfI4ARo+Tn4j2h9wSDA+A7DY2bbjAQEo643odISex9BPa8NWkxltN+fFbWT3aZkPp3ryO11SzIHbhIH9gofvoM3r11btXs32s07aLnPjOh2sCisCgd+dak8C7O1fJzHC51ESX7ZL4JuUelEjcXpYuUuO1Lz404mV/Mk4OfZyQZeLYlgFkbCqOHHA3nwkyvYsnfrL4IeMoyPyciVy7LM/lQH22WuKHtMpkCfYH3300bRhwwb6r//6Lzr++OPrGl7r2hv25JE7ZPDmXOy46YcM7DqNRAdbzOt5WArjyVffVHmiaoK9eby5p4RE4/mJbr2AkAngZuEEiYTHzfmPEl/6lRsW2VBOB3q4rQ4Whf3u9btyLD03eUzlSXOtlCWdZqS1CHu3SwJd/P9SIa7uQvL8AIC95w52ZXqI2FdXxeGXUuVRp1nthr8Pq4pTq049+9n8e9yIPbcN28yIbyb0xkJ8nH6kO+fuH9FXz/zXIE9f+kBVnMbOOIB9Y3rhaPsK5AX2F110ET311FO0adOm2JOKE1SJSsWJm37ITyP1E8xaYG+WgeUxaoF9rbKxURF7fs/pnUXzgii3rjZm5tiHVUTTfYbd4IQJb6bx8DGcWqOfREjRBQkcsWZR72nJk2ouGjF17BWV1BsT7HXKJ4/ZyE0O8uyrPQmwj31JwYFpFCgr2KfRzPW25gu0eBzauMcA9o1rhhZ2FcgL7Nu0aUO33norXXnllbEnlCXYR6UfmsAcN2IvEXT9DpQZsU8C9lEpnLXAXu8bocWNyrHXN0PmjYQZsZd3u7KM2LON+sYAEfvYp0TogQD7dPqhdUwFAPYxhSrYYQLzbDZ2nm3cebn79U0AACAASURBVK6AfdxKHo3PMLpFVLk/efLEj93rlfwL692sJpWlzWXoKw+wv+mmm2j8+PG0efPmhiSNA/ZhHZovh9ZKPzRBuhbYS447R7Dj5NgnAXs+D3QakYzDL5BG7Qitc+zlPJPyxlFVcSQ/X58/kvLJ86sVsZcXayVNJyrHnp9Uy9MH/S6DBnt5+Zi/46cUOhWHv0OOff1TBmBfXyMckYECAPsMREQX3ingCtg3Q9h65f7C6lfHsRNgH0el6GPyAPsTTjiBdtttN5o9e3ZDxmYF9jxoVPphIxH7l391b2D/sumPVVJH+L+58ktYVZwkYM9VcfT7A2ZVHEnR0YUTzHQas069+T6Crm6j0y/5Jvu4s4fRinnPkpkjryP2nI6p9ex/zc3UuvrNYKfzWlVxuKLPkX2/UXn5l6vlcBUe3uRw2bTHg/fQ+MMv5vJH3vtCVZzapw3AvqHLCg5OqgDAPqlyaOezAnmDPUfS/rplM62cPyso3SeQIDDSZcA3admM31aVUtURyzDA4LxfEyTMfqMe30dV6DDhwizxakKF2MVQcFjPk+mTLZsrOck6dzfrjXh8XJt5gP2XvvQluvzyy+mGG25oSMKkYN/QIDEPTlpHPmb3OCxCAdSxr780APb1NcIRGSgAsM9ARHThnQLNAHspQ8eP+KUEoJTLYwDfuPbtqt2GJV+XxRcQ1zWtzfJ6Os1B92u+cKf7M8v9SURVUnF0bfCwfsx5cHuOZOpH/7J3hKQkeLeYMppQHmC/++6709NPP00DBw5syGqAfUNyeXswdp5FxN7bxV2kiQHsi+Qt2JqXAs0Ae54bw7jOq9cAzn/XtbolfUBDMkfpoyKWUf1GATk/OdAfSQvQqTi1wN6sYiJ2SeqA5P3KvKR8a14+Lto4eYD9zjvvTCtWrKBOnTo1JI9LYN+Q4TgYCuSoACL2OYpd5qEA9mX2PuYepYBNsA/LIX5txhOVfQmiALzDoUdVNjbTx+vdKGU++kVXsya33jin0VScRiL27y17paocoAn2nLcbduOAVRmuQB5gv9NOO9HSpUupS5cuDbkBYN+QXDi4pAoA7Evq+LynDbDPXnGd8qDLqsk26jJinJcJzZzl7K39e49R1VBs5D+bY+mXxAQeBUjPHP8gvfjgbUHuudTrj6uDLhdnbnleqw+bYB82rs6XrxVZ5+P23KcjbXhnRWWvgqjdjs0SerX61S/Msn21dsGsFbHX/dSL2MtNRVxflv24vMB+9erVdPDBBzckN8C+IblwcEkVANiX1PF5Txtgn73iZsm2qBFcBHsT6GzcWJhl3VgfBlbZvVfSSaRMp1mXvxGP6Rr+YRvkRPXlKtjLy6h68zSzio1oaaa8SNuwre55LS54aBKdNeGRQJJGwV6X5JN+ZDt7Ti+SlCLu28yxD9utuREfl+VYgH1ZPI15+qoAwN5Xzzo2rzKDvVnhg0t2mSXM2F0SJWYw0mXUuNIHgxC/YKirjzB0bVq7OsiXNiP2UVVCBG5WvjgzWCF6R0EpNXbauJ/QK4/dV6mMYm5EwjDGH/Ypz0VewuRIt979NqrkWliZQ7OOelT1laiIM89f22VWUZHTQY/D33Edav4c2e8b9MZzvwv+zbp2OeWbQfR+S+t6OvArXwsgUeouyzFSZs6s0sB/j7sToqtgL2u26+Dzq7Zp137Rvtbf85rij+Sym2Xw1i79I/W+bFRwjJm+w9/Jehdg5+/Mdcbl9KQfPi/0+KdePzl40sAl8/jmTVfFMZ/YOHaZdMIcgL0TboARUCCxAgD7xNKhYSMKlBXsTWCVdIajB3yrKlqpo+p64w6JQEqkUkec9XEa7MOqnbCvzMiqBmyGKKl+IhVPovKipQKJvAzJNYb55kI2aZGIOL9suXHNW8HfdBTb3HCFbTNTNMwqJ3r+AoxaW56/tqtWDXS9eYt+AZT1lBdF+d/Txg+v3FBp+8yKMGEQHwb7YedL3mDfyDmLY8upQJnAPuleCfVWhu43aufYen3U+rtZh16nMerrm+7D/B6bC6bxgNttAfZu+8cb68oK9nF/OEzA1NtrR23pbYKtlAY0f0iiqpfoSHwjYK/TJ2QbdXkKoefLW5ML2OuFHJVjr59Y6I1c9Bicvx4F9tquWrrrXPFaYG/6QHZMNCvCLHj4DtIbpvBc46bjAOy9ucR5M5Eygb0tp8W97icZP2rnWKn+ZF6T5XqkAzBm2qFOJUxiE9q4pQDA3i1/eGtNWcDefOzPwKcB0YygzLlrXOWrejsKdj/n0mAHPomOR4E9A3UUhOp0Eh5Ypz3EjdjLDURYOpHuk1MktB4C7vV2HDXfCdA/krXAXtuVBdib27VPGXVx1fnJqShRKT8Ae28vZd5PrOhgH3bu6RQ+dqB+cmrulSBVlCQKbgZGdGBAp1lyv2GlWnWgRV9/a6UtmtdK7pt/Q+V6o0u48t/09Y7/W/9O8H9r2OfSsXPu/lHlpXhp/6enflZJX/N+kXs+QYC95w52ZXplAXtT7yjANKMqUZFjjg5nFbE/cdgImjr2isqNQdyIvZkmY4K9BuCo9RaWp3/KtROD9wbMj/lDGhWxr1UVyEyBkjHCcvl1+k3Yv7UP+KbK/IRFuwD2rlx5YEejCvgI9vqawnrMuHVE8A6RTmHUTxj1+Ws+ATWvxwLZUddJac/X31m3jQreL+Hrnk7hM9MDJQ2QbTVTDGu9cC6+Dku70e+8mBDP10UT9htdNzjeHQUA9u74wmtLygr2ZuUaiUbzy5nzfzYpeClQNt/hBSAvaZrRYklpicrF1z9QOmKjq4SYYK8rlISl4oRVIOG+NdiHzW/p1F8G89LR9Xo59nrxS6oO7xCa5B0DKfcZtypOHLCPqggjlVfY/q5fP7cyDeTYe30583pyRQV7M+9cnMSR9/27HFd5p0lfw/h9H7meRaUO1orY64VgBi/M1EgT7KWteQ01n8TGTTHUtmibuWCCPI2VF82lEphug3Qcf05rgL0/vnR6JmUFe3aKzimXx68C81KJhit4LJv2OA0ceRtFRYj0bqHcjlN32uzZlo7s+43Iqjg8vq4Swi+0SkoJf79u+eIgciUAvebVhZVShFKxRFcgMcHenJ+u4GM+po6bisN9RlXF0X32uOh79MmWzTtE3nQd/3p17Gvl2JtPIqIqwhSpKo7TFwkY54QCRQV7Dcqzf3wD9f3uDUH1Mf5oWN649u3Kuz/mE9Ww1MFaYG/eTMj1T18n9fV803vvVipBSeqlWanMvCExUwzjROz1TYa5gVvUfhQAeydOv0yMANhnIiM6qadAmcG+njb4e/EVKEod++IrjRnYVsBHsGfNBGj53/Kye1SqpAZjcwM0SXMx33mqF7GX8rjiP7GH+9ERde1f0z5zM7iomxk5br/O3SrBG65aJkETROxtn0XN7R9g31z9SzM6wL40ri7lRIuy86yOXspLgvolvqgXm+u98FxKp3s66aKDfZRb5OndF/f9UpAqyNH8qBfzzRx7yXmXvRUYkk2wNzdfM1Nxup89jF786cTgqSyPHZVjr1MRw3YUj6qKI6mT+saBn87q85v/FvaEETn2fp3MAHu//OnsbAD2zroGhjVRgbzLXUokT0OAWTGDXyw0q27E2b24iTJi6AwV8BXsw9Z+WDUZ2bxPUgdZWknRYUg+rGd/+uvWLUERAj4vwlIbNZDrVBydCql3da61mZ9OxRE3mylAYRuvyQ1C5/5nBrbKJwzi474TlOEyQ1cWFQDYWxQXXf9dAYA9VgMU2FGBvME+rMa1gItUzTAhPurxP/zppwK+gr2f3ko2K9SxT6ZbUVoB7IviqYLbCbAvuANhvhUF8gb7qF0p9eTMtBubm+1YERWdplIAYJ9KvsI0xs6zhXFVw4YC7BuWDA2SKACwT6Ia2viuQDPAXiLzUdqatf6jqmj47puyzg9gX1bPY96+KACw98WTjs8DYO+4g2BeUxSwCfa61KeU4XttxhPBPMM22tIC6Iod5i6WTREKg+amAMA+N6kxEBSwogDA3oqs6NRUAGCPNQEFdlTAJtiH6R2VY68rdHA7Oe64s4fRinnPBhun8Q68+PivAMDefx9jhn4rALD327/OzA5g74wrYIhDCuQN9lFVcaScH+9MyR+9ERjv3Kl31XVIPphiQQGAvQVR0SUUyFEBgH2OYpd5KN/AvueFV5bZnd7O/f8++1vasuH9mvPbo93etPXDjbTLbm1oj/Yd6H8d1pn2OeTwRJrMf2Qybdu2LVFbbjR27Fiate5T6v2d62L3YZbW07sF60745brlM58KdiIW4I89CA4srAIA+8K6DoZbVqAo+3kA7C0vBHS/XQGfwH7SpElwq6cKzJkzJ9bMPvvsM1q/fj29/fbbwf/vsccedOaZZ9Jxxx0Xq70+aPjw4Q23kQZJwD7xYGhYCgXKBvacdrZk6qOh6WZ8c1vvZfNaiyJORSldC5/70vXzs1hwunztgofvCJ1PVIqeOX4zXqRnH2xevzZVOmAcP8TRWu8wHuf4Wsck3dQwzrgA+zgq4ZjUCvgE9qnFQAfeKXDOOefQY489RldddRXdfvvtuc0PYJ+b1KUZCGD/d1enBft6i4ZBeenUX1Z2wpUUOH65nXe3zeITZ3M5V8GegXzhLyYHMnztgiu9enKobxI05POuxGk/APu0CqJ9LAUA9rFkwkEFVuA///M/A7B/4IEH6OKLL85lJgD7XGQu1SBFB/soSNJVongH2TNuepAYoiRi32bPtrTgodtJ/rZi3ozKrrLynone8VV2juXFwbs1827Oc+4aF6wV2QlWR4p5B9q5942nLa3r6cCvfI1OHDaCpo69IqhQpSFeP0H49OOtxFWpZDdcs982bfeiRY8/EIypI/1iJ6fZHdbzZPpky+Yg4q0j9loP7pfbiCb6KYKk6m3d+D49PLR/ZX6djj+p6kmHjuYztL6/4jVaNv1xEu1k917uQL+3o783d9CVl/q5zcY1b1VV84pqF/a9GbGX+Yk+u+3ZNuib2/51y2ZaOX8WrX9jCendgaPWD9sWti642EBYZTJOawzb6dcsYJDmogOwT6Me2sZWAGAfWyoc6KgCra2tdMEFF1CvXr1o9OjRoVYOGTKEfve739EHH3yQyywA9rnIXKpBfAR7iYR3HXx+8CK4Tu9Y99riAFg1gLLDBfQkFUfnV7fb/6AKzPcYclXwb/4wPHN/8jI6fzf3nhtp4MjbiMFev6ReL0pu7visx+d+nxxxIfW4aPgO89n03rvB3waNnET7Hd2tyjYB+8N7DQhuGLQeAvZsJ+sjkK83tdPwbqYwmWCv02f0UwNtH89D0qD433Pu/hF99cx/DSLzPH/57z327kCzf3wD9f3uDVU3Y6y3bsc3H2H9aT98tKGVnr3lGjrl2onE/bIOfGMl/hYd+DjRscOhRwXHyU2YXj88H+kvbF0cM/i8oH+9228YxIfBftILD8A+qXJo15ACAPuG5MLBjikwb948GjduXAD0CxcupFp58S0tLTR+/Hj63ve+Z30WAHvrEpdugKKCvY6aaqcxsO/f5bgKYHOUXkMyw6AGWR3d/eNv7qvkpJspLQK2/a4cS89NHkMHH9srgGy+iZg+/mrqfdmowAwN9nqcWrn9YYvO7FdgkiFY98U3FvqdAf03AfswPcROMxVEA3sjYC83R+YNCn8vKU7tDzgk8v0GE3R16kqUdlHfa5/ykxgd/TdvSEy7GczFZrnZMft7Z9G8yjsA5roQsNc+DcvVzzIdB2Bfust2cyYMsG+O7hg1WwVef/11euaZZ2qCff/+/Wnjxo308ssvZzt4SG8Ae+sSl26AooK9OCoMkMzouIZkHeWV9AmBXBPsp4yqTrHjtJ3BY+4OQFUArhbYm8CtQT9soZk3K5IWo28YdDoRR7CXz5pCYaCpU3EYqKNuZnbdvSWI8kuKD48lKTKNgL086TCrcMk8dZ+iq07RMV8q1nbwv/Xfo9rJ9+bNmsC79COgr9+p0Dtw83GShiT2iy/eW/ZKJWVL/ibpXPzfkkol34m+JvAD7Et3qS3+hAH2xfchZkAUB+zvvvtuGjFiBH344YfWJQPYW5e4dAP4CPZmjnWtiL2+CTDB3szz5sWhAZBTLuKCfdSLshKpPv78K6py8KP6NcE+bcSeI9r6xiBuxF6n7EQBcq0XgrWOZuoL66znr8vvmvrLCau/b2m/b+XJSb2IvXlDIhH7qMpJcSsFmU9O+B0FrQfAvnSX2uJPGGBffB9iBvHA/p133qEvf/nL9Le//c26ZI2CfZwqHyYExWkTNlH9EpsZ5SpDXfywFIQwnTSwSI5u2ON764vp8wGKDvZRGps55ZIDLjn28vJpFKCaNcwlz1pScRqN2Eu0OKwqDue+Sx685HUzQC54aFKwrwR/dOpM2Au33C4qx77zyacHUXlJH+K5SG65Bnt5eVdy0M2IvbwzEJarrsuE6jQm6ZPnyB+5WdI59WZ6lL6BYpuj2nH0PKw/rVe9HPswsDdvNHQ1I90fX9dkXfDL0bNuGxWkZEm61KqXng/y9JFjn9fVDONYVQBgb1VedJ6TAnEi9mwKr/f33nuP9ttvP6uWuQ72PHn+IZNPnNJ7VgXLsfMkYO/CDY+PYM9uj1sVR1dCkXSPsKo4UakVcSP2+pzQKT5RaSWnXj+Z1i1fHKT86Ai0GbHndCKdwsPtNryzgvpcfn1kVZz+19xMravfDF5O5Y9OHznu7GG0Yt6zlReDOSVF0mjk5p21OKxnf/rr1i07vHQs8wyrVmOm6YS9wKxPWQFqSX+SdCFpF9VfVFWcWnabTwKiKtywfVpvs+KSpPDo71EVJ8cLMYaypwDA3p626Dk/BRoB+9///vfUr18/q8alAXvzR5AjlhKZ4vJ6/EN0VL/T6b9v/PdgDvzjydGwRsrYmWBv/sBGlYnjdlE5tGFl82Qu+3XuRpw+waXqxF4uQWhCWL3jGJbC9JHqFi//6t5Ak2XTHyNz516xr8vAs4Nj/qHPqZWXKs3ShVJRhQGF+zlt3E/olcfuq+RrR8ForbJ8aRecr2CfVhe090+BuDffNmauX6DNMg2HbcXLszY8hj53UABgj0XhgwJxwX6nnXai1atX08EHH2x12mnAXqccMGCHlehjwNWpOLrMG0cGo8rYMQDr/kUE8/iwMnEc4TdTC6TKCD9ql9QFXY7OTDnQJQx12oH8m+2R0oRS6jAsPUFuTLQ+Us+bb4RkXK5hLo/YTfu4JKHZt07r4DQGmZ9OxZGbrLASjVzdJKwsXxabGgHsrZ6y6LzJCpgvJJu18/MyDzvP5qU0xrGmAMDemrToOEcFfAF7M3836kWzMLAX2K1Vxk5qhcuGPeIi/Tg6qnyguZGOdq+Z7y83DxL5lpzhqPcEwgBb5ypL/7X0YXt0RRGzXJ7OLY56P0Gna0SBvZluoW8GXpvxRCAL30xEvTyY9LQA2CdVDu2ggBsKIGLvhh+8twJg772LMUGlgAsR+7CcUAZCBk8BV9nRUkwPq/ltRuzjlrHTEfuwm4Cwcna6fKBAutgW1QenBwnYywuM9cC+3nG19DFrbwvYmzcXcgMgekWVLowCe/MGQt8MiB/5Bgpgj0sPFIACWgGAPdZDLgoA7HORGYM4ooALYB8mhY5IS/qH+cJmrao4jZSxM1Nx5EaDd8TklJFaZeKiIt31Ivb1gF0i9vWOY7CP0qfejpthEXvzCUAWEfuw6h1IxXHkAgAzoEATFQDYN1H8Mg0NsC+TtzFX18FeUmXYU5zOoaHbTAGJithz26gydmb/siKicux1mThzkx0pj8d2blz7ds0c+3rAHhfsa+nDc9E1rc0SgJKmI+8AcI59rdKFSXPsywr2/3L/NFxgoAAUqKHAz4cNoi9s27ZtG1SCAjYVANjbVBd9u6ZAEcA+qjScbJzDmvIW6lzXmsvxSZUZHZHmY8LK2Mn3cuMg/pG+5YXQqDJxZr+6BGCtqjhZgn2UPrUi9tpuKaW3xz4dg6o4OvVIly6UF3DXvLqwoao4ZQT7nn36unaqwx4o4KQCAHsn3eKXUQB7v/yJ2dRWwFWwh9+gQD0FXH55tp7t+DsUgALbFQDYYyVYVwBgb11iDOCQAgB7h5wBUxpSAGDfkFw4GAo4qQDA3km3+GUUwN4vf2I2iNhjDfipAMDeT79iVuVSAGBfLn83ZbYA+6bIjkGbpAAi9k0SHsOmViBPsN9jjz3oggsuoF69etHo0aNT244OoAAU2K4AwB4rwboCAHvrEmMAhxQA2DvkDJjSkAJ5gf0TTzxB9957bwD0CxcupOHDhzdkJw6GAlAgWgGAPVaHdQUA9tYlxgAOKQCwd8gZMKUhBfIC+9WrV9PBBx9McXdzbmgSOBgKlFwBgH3JF0Ae0wfY56EyxnBFAYC9K56AHY0qALBvVDEcDwXcUwBg755PvLMIYO+dSzGhGgr4CvZSh543i6q3y6lZB57runNd/JZ2+yReO7KR1vo3ltCg6+6g//fGq8QbWu3SpiVxn1ENa23M1ehguoa9btvnitHBBmFpP6I11/E3NxhrtG+AfaOK4Xgo4J4CAHv3fOKdRQB771yKCQHsIxUQ0Gzb8YAKuPLGTrIra1K45z5WvfR8JjBcbwFrsK93bL2/6x13bdyE6PH55mfuPTfSwJG3JbqJAtjX8yb+DgXcVwBg776PCm8hwL7wLsQEGlDA5Yi9jh7X29GVp6wj78d++xLatHZ1ANYcsdc7x/LfJHoeBfEals2I/pAHZ1b6fPlX9wZqL5v+GHU88hg6a8IjtHXj+/Tw0P7B9zxWl1O+Scue/W0w5oKH76D3V7xGy6Y/Xtkhd7eWPWnl/Jm08sWZxJFx3qmVd9CV/jp0OqJqbtIv97d81pTgWP6YO+42ajePUw/sWZc09rKdM24dQYjYN3CS4lAo4LECAHuPnevK1AD2rngCduShgKtgz8C9ZOqjAQx/+vFWmj7+aup92Sh6b9krtHTqL4NUmY82tNKTIy6kQSMnBaDN0Ll5/dqgzbrXFgdwzRDOKR/P3nINnXLtRGq3/0EBWEqEntvwp1aaidnvtPHDqwCex9jv6G5V/Wr72RaZC4O92MgRce6bj9Xz6dz/zMAebZv+t5lmFJWKk8TuOGCfxl7RCWCfx9mNMaCA+woA7N33UeEtBNgX3oWYQAMKuAr2Uekl5vcCvD2GXFWJBDPk61zujWvfpncWzauK0mvQ5gh516+fG6qa7kf3e/Cxvaj9AYdUpewwFG9c81YA5bXAXt9ImMAuNzASPZf+tHGmTWFg3/nk00P1qGd3VI69PKVIay/AvoGTE4dCgRIoALAvgZObPUWAfbM9gPHzVMAFsNcvmnL6yWnjfkKvPHYfMYRq4Bag1d8LTHc/51J6+rqhldQbE+wlXUW0lRdk//ib+2pG7MNewhWQZrCXGwSOvscFe30joaGcx4oCe62RzEHDtvQp/R3ea0CVHtwmjt1xIvYyVhJ7iwz2eZ6XGAsKlEUBgH1ZPN3EeQLsmyg+hs5dARfAPmzSWUfswyLfPG5Ujj0DLn/qRb7zAHt5GiE3NFlE7KPszgLsa9kLsM/9FMeAUMBpBQD2TrvHD+MA9n74EbOIp4CrYK8Bk3PsJRrPaTVROfa6TVSOPae46NxzVknn3AvsSx69eTz3q3PsmwH28iJwrYg9P+molWOfJ9hrewH28c5LHAUFyqIAwL4snm7iPAH2TRQfQ+eugKtgz0IwmM65a1ygSZKqOG32bEtH9v3GDlVxzDr1ZvUYXY2Gx65VXSYPsJecfam0w5Vz+CMpMZIX30hVnFpgb6Yt8VhSSYhf/o2TiqOrEGl79ROQotWxz/3kxIBQoAQKAOxL4ORmTxFg32wPYPw8FXAZ7PPUAWMVT4G869gXTyFYDAXcVwBg776PCm8hwL7wLsQEGlAAYN+AWDjUKQUA9k65A8ZAgUQKAOwTyYZGjSgAsG9ELRxbdAUA9kX3YHntB9iX1/eYuT8KAOz98aWzMwHYO+saGGZBAYC9BVHRZS4KAOxzkRmDQAGrCgDsrcqLzlkBgD3WQZkUANiXydt+zRVg75c/MZtyKgCwL6ffc501wD5XuTFYkxUA2DfZARg+sQIA+8TSoSEUcEYBgL0zrvDXEIC9v77FzHZUAGBfzFURtgtvMWeS3GqAfXLt0BIKuKIAwN4VT3hsB8DeY+diajsoUEaw5xrrUsdd12VncbZu+iDYDGvlizMDraR++y5tWhKvHqnpzvXxv9y9N+3f9R+JN5BK8+E+V730PHGN+7J+APZl9Tzm7ZMCAHufvOnoXAD2jjoGZllRoIxgr4XkTbD0hksM9V0Hn18Bb72bbVK45z74kxbmrSyAAncKsC+w82A6FPhcAYA9loJ1BQD21iXGAA4p4DLYh+08Kyko+3XuRn/8zX20/o0lwa60G9e8FexSq3eVNaPvvAOq7OIaFrEPg3gZ75jB5+2wg62O5rOtf92ymVbOnxXYJH9bPmsKyU6uYTuwfrJ5Ey2b/jhdcO9UWjbjtxRnXlE74Tq0rHIxBWCfi8wYBApYVQBgb1VedM4KAOyxDsqkgKtgryF703vv0pMjLqRBIyfRfkd3oxm3jghcNOD7E2jda4vp4aH9A7jvfPLpwd8OPrZX1b85Ut666k169pZr6JRrJ9LWje/vkIqj20ZF1rkP0462HQ8IbhYY7Dk95oybHqSPNrRWjjuoW0/iufCNhxzHTwhkPGkvsF5vXmwbj8UfuUmZNn44nTXhEerQ6YgyLV0C2JfK3ZispwoA7D11rEvTAti75A3YYlsBF8E+7MVQSZkxAZxhe+49N9LAkbdRS7t9AuiV1BqtHUfvp4+/mnpfNqom2EtkPkx3nZvPaTn83zwewzw/PRDYNqP8tcCeb0IY1s05R83r8F4DgncAGOr5psEcy/Z6cal/gL1L3oAtUCCZAgD7ZLqhVQMKAOwbEAuHFl4BF8BeIuGcwsIvDiAtcAAAIABJREFUmJ427if0ymP30aLHH6jSl1NZegy5KojKC4DXAnt5aVU64b45sp00Ym+m6uixGezlhqIRsJd5mG3qgb283Ctz4ycWZcvhB9gX/vKDCUABAthjEVhXAGBvXWIM4JACLoC9KUetKHSjACyR7XoRe4biqBdlOSrf6fiTAjMlNz8sYp8X2MuTh7Kl3pjrBGDv0IUEpkCBhAoA7BMKh2bxFQDYx9cKRxZfARfBnlXVkP3px1uD9BOuViOpOPUi9mbKCve34KFJkRF7Bnt52dasirN06i93yJ2XXH+dY58H2Js59jrvn1NzyvQB2JfJ25irrwoA7H31rEPzAtg75AyYYl0BV8GeJ66r4khFm7gRe4nAS0WaU6+fTOuWLw5SeHTkvV4de11lh9vp9B6zKk5eYG9WxSljGg77AmBv/fKAAaCAdQUA9tYlxgAAe6yBMingMtiXyQ+Ya+MKAOwb1wwtoIBrCgDsXfOIh/YA7D10KqYUqQDAHoujqAoA7IvqOdgNBf6uAMAeq8G6AgB76xJjAIcUANg75AyY0pACAPuG5MLBUMBJBQD2TrrFL6MA9n75E7OprQDAHiukqAoA7IvqOdgNBRCxxxrIUQGAfY5iY6imKwCwb7oLYEBCBQD2CYVDMyjgkAKI2DvkDF9NAdj76lnMK0wBgD3WRVEVANgX1XOwGwogYo81kKMCAPscxcZQTVcAYN90F8CAhAoA7BMKh2ZQwCEFELF3yBm+mgKw99WzmBci9lgDPikAsPfJm5hLWRUA2JfV8znOG2Cfo9gYqukK5Bmxf/S/f9/0+RbBgA3r3qW99zuoCKY23cbzTv0nGjNmjDU78jo/rE0AHUMBxxUA2DvuIB/MA9j74EXMIa4CeYHL7Nmz45pU+uP69etHzz33XOl1iCtA37594x7a8HF5nR8NG4YGUMATBQD2njjS5WkA7F32DmzLWgGAS9aKpu8P16D0GmbVA86PrJREP1AgXAGAPVaGdQXwo2pdYgzgkAIAF4ec8bkpuAa54xOcH+74Apb4qQDA3k+/OjUr/Kg65Q4YY1kBgItlgRN0j2tQAtEsNcH5YUlYdAsFJJCxbdu2bVADCthUAD+qNtVF364pAHBxzSNEuAa54xOcH+74Apb4qQAi9n761alZ4UfVKXfAGMsKAFwsC5yge1yDEohmqQnOD0vColsogIg91kBeCuBHNS+lMY4LCgBcXPBCtQ24BrnjE5wf7vgClvipACL2fvrVqVnhR9Upd8AYywoAXCwLnKB7XIMSiGapCc4PS8KiWyiAiD3WQF4K4Ec1L6UxjgsKAFzy80JraytdcMEF1KtXLxo9enTkwLgG5eeTeiPh/KinEP4OBdIpgIh9Ov3QOoYC+FGNIRIO8UYBgEs+rpw3bx6NGzcuAPqFCxfS8OHDAfb5SJ9qFJwfqeRDYyhQVwGAfV2JcEBaBQD2aRVE+yIpAHDJ11uvv/46PfPMMwD7fGVPPBrOj8TSoSEUiKUAwD6WTDgojQIA+zTqoW3RFAC45OsxgH2+eqcdDedHWgXRHgrUVgBgjxViXQGAvXWJMYBDCgBc8nUGwD5fvdOOhvMjrYJoDwUA9lgDTVYAYN9kB2D4XBUAuOQqNwHs89U77Wg4P9IqiPZQAGCPNdBkBQD2TXYAhs9VAYBLrnID7POVO/VoOD9SS4gOoEBNBZCKgwViXQGAvXWJMYBDCgBc8nUGIvb56p12NJwfaRVEeyiAiD3WQJMVANg32QEYPlcFAC65yo2Ifb5ypx4N50dqCdEBFEDEHmuguQoA7JurP0bPVwGAS756xxkN16A4KuVzDM6PfHTGKOVVAKk45fV9bjPHj2puUmMgBxQAuDjgBMMEXIPc8QnOD3d8AUv8VABg76dfnZoVflSdcgeMsawAwMWywAm6xzUogWiWmuD8sCQsuoUCnysAsMdSsK4AflStS4wBHFIA4OKQM+SH7gtfoG3btrlnWAktwvlRQqdjyrkqALDPVe5yDgawL6ffyzprgIt7nsc1yB2f4PxwxxewxE8FAPZ++tWpWeFH1Sl3wBjLCgBcLAucoHtcgxKIZqkJzg9LwqJbKCBPKLfh+SQWg2UF8KNqWWB075QCABen3BEYg2uQOz7B+eGOL2CJnwogYu+nX52aFX5UnXIHjLGsAMDFssAJusc1KIFolprg/LAkLLqFAojYYw3kpQB+VPNSGuO4oADAxQUvVNuAa5A7PsH54Y4vYImfCiBi76dfnZoVflSdcgeMsawAwMWywAm6xzUogWiWmuD8sCQsuoUCiNhjDeSlAH5U81Ia47igAMDFBS8gYu+eF7ZbhPPDVc/ALl8UQMTeF086PA+AvcPOgWmZKwBwyVzS1B3iGpRawsw6wPmRmZToCAqEKgCwx8KwrgB+VK1LjAEcUgDg4pAzPjcF1yB3fILzwx1fwBI/FQDY++lXp2aFH1Wn3AFjLCsAcLEscILucQ1KIJqlJjg/LAmLbqGABDJQxx5rwbYC+FG1rTD6d0kBgItL3thuC65B7vgE54c7voAlfiqAiL2ffnVqVvhRdcodMMayAgAXywIn6B7XoASiWWqC88OSsOgWCiBijzWQlwL4Uc1LaYzjggIAFxe8UG0DrkHu+ATnhzu+gCV+KoCIvZ9+dWpW+FF1yh0wxrICABfLAifoHtegBKJZaoLzw5Kw6BYKIGKPNZCXAvhRzUtpjOOCAgAXF7yAiL17XthuEc4PVz0Du3xRABF7Xzzp8DwA9g47B6ZlrgDAJXNJU3eIa1BqCTPrAOdHZlKiIygQqgDAHgvDugL4UbUuMQZwSAGAi0PO+NwUXIPc8QnOD3d8AUv8VABg76dfnZoVflSdcgeMsawAwMWywAm6xzUogWiWmuD8sCQsuoUCEshAHXusBdsK4EfVtsLo3yUFAC4ueWO7LbgGueMTnB/u+AKW+KkAIvZ++tWpWeFH1Sl3wBjLCgBcLAucoHtcgxKIZqkJzg9LwqJbKICIPdZAXgrgRzUvpTGOCwoAXFzwQrUNuAa54xOcH+74Apb4qQAi9n761alZ4UfVKXfAGMsKAFwsC5yge1yDEohmqQnOD0vColsogIg91kBeCuBHNS+lMY4LCgBcXPACIvbueWG7RTg/XPUM7PJFAUTsffGkw/MA2DvsHJiWuQIAl8wlTd0hrkGpJcysA5wfmUmJjqBAqAIAeywM6wrgR9W6xBjAIQUALg4543NTcA1yxyc4P9zxBSzxUwGAvZ9+dWpW+FF1yh0wxrICABfLAifoHtegBKJZaoLzw5Kw6BYKSCADdeyxFmwrgB9V2wqjf5cUALi45I3ttuAa5I5PcH644wtY4qcCiNj76VenZoUfVafcAWMsKwBwsSxwgu5xDUogmqUmOD8sCYtuoQAi9lgDeSmAH9W8lMY4LigAcHHBC9U24Brkjk9wfrjjC1jipwKI2PvpV6dmhR9Vp9wBYywrAHCxLHCC7nENSiCapSY4PywJi26hACL2WAN5KYAf1byUxjguKABwccELiNi754XtFuH8cNUzsMsXBRCx98WTDs8DYO+wc2Ba5goAXDKXNHWHuAalljCzDnB+ZCYlOoICoQoA7LEwrCuAH1XrEmMAhxQAuDjkjM9NwTXIHZ/g/HDHF7DETwUA9n761alZ4UfVKXfAGMsKAFwsC5yge1yDEohmqQnOD0vColsoIIEM1LHHWrCtAH5UbSuM/l1SAODikje224JrkDs+wfnhji9giZ8KIGLvp1+dmhV+VJ1yB4yxrADAxbLACbrHNSiBaJaa4PywJCy6hQKI2GMN5KUAflTzUhrjuKAAwMUFL1TbgGuQOz7B+eGOL2CJnwogYu+nX52aFX5UnXIHjLGsAMDFssAJusc1KIFolprg/LAkLLqFAojYYw3kpQB+VPNSGuO4oADAxQUvIGLvnhe2W4Tzw1XPwC5fFEDE3hdPOjwPgL3DzoFpmSsAcMlc0tQd4hqUWsLMOsD5kZmU6AgKhCoAsMfCsK4AflStS4wBHFIA4OKQMz43Bdcgd3yC88MdX8ASPxUA2PvpV6dmhR9Vp9wBYywrAHCxLHCC7nENSiCapSY4PywJi26hgAQyUMcea8G2AvhRta0w+ndJAYCLS97YbguuQe74BOeHO76AJX4qgIi9n351alb4UXXKHTDGsgIAF8sCJ+ge16AEollqgvPDkrDoFgogYo81kJcC+FHNS2mM44ICABcXvFBtA65B7vgE54c7voAlfiqAiL2ffnVqVvhRdcodMMayAgAXywIn6B7XoASiWWqC88OSsOgWCiBijzWQlwL4Uc1LaYzjggIAFxe8gIi9e17YbhHOD1c9A7t8UQARe1886fA8APYOOwemZa4AwCVzSVN3iGtQagkz6wDnR2ZSoiMoEKoAwB4Lw7oC+FG1LjEGcEgBgItDzvjcFFyD3PEJzg93fAFL/FQAYO+nX52aFX5UnXIHjLGsAMDFssAJusc1KIFolprg/LAkLLqFAhLIQB17rAXbCuBH1bbC6N8lBQAuLnljuy24BrnjE5wf7vgClvipACL2fvrVqVnhR9Upd8AYywoAXCwLnKB7XIMSiGapCc4PS8KiWyiAiD3WQF4K4Ec1L6UxjgsKAFxc8EK1DbgGueMTnB/u+AKW+KkAIvZ++tWpWeFH1Sl3wBjLCgBcLAucoHtcgxKIZqkJzg9LwqJbKICIPdZAXgrgRzUvpTGOCwoAXFzwAiL27nlhu0U4P1z1DOzyRQFE7H3xpMPzANg77ByYlrkCAJfMJU3dIa5BqSXMrAOcH5lJiY6gQKgCAHssDOsK4EfVusQYwCEFAC4OOeNzU3ANcscnOD/c8QUs8VMBgL2ffnVqVvhRdcodMMayAgAXywIn6B7XoASiWWqC88OSsOgWCkggA3XssRZsK4AfVdsKo3+XFAC4uOSN7bbgGuSOT3B+uOMLWOKnAojY++lXp2aFH1Wn3AFjLCsAcLEscILucQ1KIJqlJjg/LAmLbqEAIvZYA3kpgB/VvJTGOC4oAHBxwQvVNuAa5I5PcH644wtY4qcCiNj76VenZoUfVafcAWMsKwBwsSxwgu5xDUogmqUmOD8sCYtuoQAi9lgDeSmAH9W8lMY4LigAcHHBC4jYu+eF7Rbh/HDVM7DLFwUQsffFkw7PA2DvsHNgWuYKAFwylzR1h7gGpZYwsw5wfmQmJTqCAqEKAOyxMKwrgB9V6xJjAIcUALg45IzPTcE1yB2f4PxwxxewxE8FAPZ++tWpWeFH1Sl3wBjLCgBcLAucoHtcgxKIZqkJzg9LwqJbKCCBDNSxx1qwrQB+VG0rjP5dUgDg4pI3ttuCa5A7PsH54Y4vYImfCiBi76dfnZoVflSdcgeMsawAwMWywAm6xzUogWiWmuD8sCQsuoUCiNhjDeSlAH5U81Ia47igAMDFBS9U24BrkDs+wfnhji9giZ8KIGLvp1+dmhV+VJ1yB4yxrADAxbLACbrHNSiBaJaa4PywJCy6hQKI2GMN5KUAflTzUhrjuKAAwMUFLyBi754XtluE88NVz8AuXxRAxN4XTzo8D4C9w86BaZkrAHDJXNLUHeIalFrCzDrA+ZGZlOgICoQqALDHwrCuAH5UrUuMARxSAODikDM+NwXXIHd8gvPDHV/AEj8VANj76VenZoUfVafcAWMsKwBwsSxwgu5xDUogmqUmOD8sCYtuoYAEMlDHHmvBtgL4UbWtMPp3SQGAi0ve2G4LrkHu+ATnhzu+gCV+KoCIvZ9+dWpW+FF1yh0wxrICABfLAifoHtegBKJZaoLzw5Kw6BYKIGKPNZCXAvhRzUtpjOOCAgAXF7xQbQOuQe74BOeHO76AJX4qgIi9n351alb4UXXKHTDGsgIAF8sCJ+ge16AEollqgvPDkrDoFgogYo81kJcC+FHNS2mM44ICABcXvICIvXte2G4Rzg9XPQO7fFEAEXtfPOnwPAD2DjsHpmWuAMAlc0lTd4hrUGoJM+sA50dmUqIjKBCqAMAeC8O6AvhRtS4xBnBIAYCLQ8743BRcg9zxCc4Pd3wBS/xUAGDvp1+dmhV+VJ1yB4yxrADAxbLACbrHNSiBaJaa4PywJCy6hQISyEAde6wF2wrgR9W2wujfJQUALi55Y7stuAa54xOcH+74Apb4qQAi9n761alZ4UfVKXfAGMsKAFwsC5yge1yDEohmqQnOD0vColsogIg91kBeCuBHNS+lMY4LCgBcXPBCtQ24BrnjE5wf7vgClvipACL2fvrVqVnhR9Upd8AYywoAXCwLnKB7XIMSiGapCc4PS8KiWyiAiD3WQF4K4Ec1L6UxjgsKAFxc8AIi9u55YbtFOD9c9Qzs8kUBROx98aTD8wDYO+wcmJa5AgCXzCVN3SGuQaklzKwDnB+ZSYmOoECoAgB7LAzrCuBH1brEGMAhBQAu2Trj9ddfp3PPPZf+9Kc/0cCBA+kXv/gFdejQoe4gW7dupTFjxtAll1xCnTt3pm3bttVtgwPsK4Dzw77GGKHcCgDsy+3/XGYPsM9FZgziiAIAl+wcoeH8qKOOonnz5tHvf/97Gj16dN1BuO2tt95KV1xxBe27774A+7qK5XMAzo98dMYo5VUAYF9e3+c2c4B9blJjIAcUALhk5wSO1j/wwAM0duxYamlpIQ3rUVF7HeHXlrzwwgvUq1ev7IxDT4kUwPmRSDY0ggKxFQDYx5YKByZVAGCfVDm0K6ICAJfsvGZG6M0Ifq2ROGVny5Yt9Oc//5n+4z/+AxH77NySqiecH6nkQ2MoUFcBgH1diXBAWgUA9mkVRPsiKQBwyc5bDParVq2iCy64oNLpuHHj6J/+6Z9qRt+53SOPPEKTJk0K0nF++MMfAuyzc0uqnnB+pJIPjaFAXQUA9nUlwgFpFQDYp1UQ7YukAMAlO2+lidhrK3ANys4naXvC+ZFWQbSHArUVANhjhVhXAD+q1iXGAA4pAHDJzhlJcuzDRsc1KDufpO0J50daBdEeCgDssQaarAB+VJvsAAyfqwIAl+zkDquKIyk2/DItR/TlhVj9b9MCXIOy80nannB+pFUQ7aEAwB5roMkK4Ee1yQ7A8LkqAHDJVu6oOvby/Z133hmUs+Ra9/zvsMo3uAZl65M0veH8SKMe2kKB+gogFae+RjgipQL4UU0pIJoXSgGAi3vuwjXIHZ/g/HDHF7DETwUA9n761alZ4UfVKXfAGMsKAFwsC5yge1yDEohmqQnOD0vColso8LkCAHssBesK4EfVusQYwCEFAC4OOUN+6L7wBZS7dMQtOD8ccQTM8FYBgL23rnVnYgB7d3wBS+wrAHCxr3GjI+Aa1Khi9o7H+WFPW/QMBVgBgD3WgXUF8KNqXWIM4JACABeHnIGIvXPOwPnhnEtgkGcKAOw9c6iL0wHYu+gV2GRLgSzAZfbs2bbMK2W//fr1o+eee66Uc7c16b59+ybqOovzI9HAaAQFSqIAwL4kjm7mNAH2zVQfY+etQBbgwufMUf+7T96mezvehnXv0t77HeTt/PKe2Ot/mJP4nYUszo+854vxoECRFADYF8lbBbUVYF9Qx8HsRApkAS58zly3aEui8dEICthW4KZj9wTY2xYZ/UOBhAoA7BMKh2bxFQDYx9cKRxZfAYB98X2IGdRWAGCPFQIF3FUAYO+ub7yxDGDvjSsxkRgKAOyrRVr6zK9pyqiLK1/2uWI0nTjsBzGUjH8Ij7HgoUl01oRHgkZPjriQelw0nLp+/dyqTrZu+oCevm4oHdStZ10bPvtkKy14+A7qfs6l1NJun/jGlOBIgH0JnIwpFlYBgH1hXVccwwH2xfEVLE2vAMD+7xq+cP/NtHzmUwFwd+h0BAlYtzvgyzTg+xNolzYt6QUnIg32PE7UpxGwZ9vfXTyfzrjpQYC9ISjAPpNli06ggBUFAPZWZEWnWgGAPdZDmRQA2G/3duuqNyMj53o9MEDPuWtc8NVhJ/QPQHrX3Vtoxq0jgu/a7NmWFjx0e+VvEj2Xdh2PPIYO63kyrZw/KzRiL3asf2MJHfvtS2jT2tVVEfuw8VfMm1F5ysD9nzbuJ/TKY/cF9vANyacfb62K/PMNwMND+xM/jeC58P9zpJ+fDqx8cWbQbsiDM4NxffgA7H3wIubgqwIAe18969C8APYOOQOmWFcAYL9d4jhRdAbiJVMfDWB503vvBjcCnfufST2GXBWA/ZpXF4bCuoD06Tf+lDqffHrksfI3hnm+YWh96/UKgHM6UNT4/Dcdsdc3GvXAnttyGo/cmPDxy2dNqaQK1XqiYH1xZjQAwD4jIdENFLCgAMDegqjosloBgD1WRJkUANjHB3tZFzpqztFuAXsBcj5O58abaTJROfb7dzmu6qlBVCqOOX5SsJeovPm0Qv570MhJXkTtAfZluqJhrkVTAGBfNI8V0F6AfQGdBpMTKwCwjw/28mKtTl3hdBUBe+4pLEKeFdhHjZ8W7OWJgrmI+AmD+UJv4oXWxIYA+yaKj6GhQB0FAPZYItYVANhblxgDOKQAwH67M+rl2JvpKjpvPQ7Y65dy60XsOb2HYV1H7OOMIS/Pxk3FiYrYO7Q8MzEFYJ+JjOgEClhRAGBvRVZ0qhUA2GM9lEkBgP3fvV2vKg6XkxR4lhdWdSpOVMQ+qxx7HfnX45sRe35hVx8blqvPL88K2CPHPvqMz+L8KNP1BHOFAo0qALBvVDEc37ACAPuGJUODAiuQBbj4tPOsWceeK9NIqUtdsYarz+zZoSO1P7AT9btyLD03eUywCsJScfh76bdeVRyJ0nN1GrMqTtT4POa61xYHL9ryh4G9pf2+Qb5+WHUdudHQlW/0uNIHquIQZXF+FPjyANOhgHUFAPbWJcYAAHusgTIpkAW4+AT2ZfJ9WeaKVJyyeBrzLKICAPsieq1gNgPsC+YwmJtKAYB9KvnQuAAKAOwL4CSYWFoFAPaldX1+EwfY56c1Rmq+AgD75vsAFthVAGBvV1/0DgXSKACwT6Me2sZSAGAfSyYc5IkCAHtPHIlpRCoAsMfigALuKgCwd9c33lgGsPfGlZhIDAWyAvt/uX9ajNFwCBTIX4GfDxtE27ZtSzRwFudHooHRCAqURAGAfUkc3cxpAuybqT7GzluBLMCFz5lD/rF33qZjPCgQS4G3X54LsI+lFA6CAvkrALDPX/PSjQiwL53LSz3hrMD+ukVbSq0jJu+uAkjFcdc3sAwKAOyxBqwrALC3LjEGcEgBgL1DzoApVhQA2FuRFZ1CgUwUANhnIiM6qaUAwB7ro0wKAOzL5O1yzhVgX06/Y9bFUABgXww/FdpKgH2h3QfjG1QAYN+gYDi8cAoA7AvnMhhcIgUA9iVydrOmCrBvlvIYtxkKAOyboTrGzFMBgH2eamMsKNCYAgD7xvTC0QkUANgnEA1NCqsAwL6wroPhMRUA2McUCodBgSYoALBvguhlGxJgXzaPl3u+LoH9Z59spRm3jqBFjz9AJ146krZ8sD74d58rRtOJw35Qbkdh9okVANgnlg4NoYB1BQD21iXGAAB7rIEyKeAS2G/d9AHN/vEN1Pe7NwQukH+3tNunTC7BXDNWAGCfsaDoDgpkqADAPkMx0VW4AgB7rIwyKdAMsG9d9SY9OeJCWv/GEjrshP50xk0PBpI/fd1QWvniTNr38C7Usld7emfRi9TxyGOo37+Po4W/mBwcw+cnH//RhtYd+sANQJlWbvy5Auzja4UjoUDeCgDs81a8hOMB7Evo9BJPOW+w56g8A3zXwedT16+fSy/cfzNtXr+WBnx/An368VaaPv5q6n3ZKNpj7w6Vf7N7+EZg0MhJdFC3niR9cHoO/7fuY5c2LSX2JqYepgDAHusCCrirAMDeXd94YxnA3htXYiIxFMgb7DlaP/eeG2ngyNuII+z838/ecg2dcu3EKpg3wV6O6dDpCHp38fwA5jlyL33oPmNMG4eUSAGAfYmcjakWTgGAfeFcVjyDAfbF8xksTq6AbbBnAJ9z17jAQH4JttPxJ1VBOUffw6L0JthrcGewf3ho/6pJc8rOWRMeIQZ/fKCAVgBgj/UABdxVAGDvrm+8sQxg740rMZEYCtgGe9OEpBF7E+yXTH00SN9B6k0MJ5f8EIB9yRcApu+0AgB7p93jh3EAez/8iFnEUyBvsE+aY6/B3syxX/rMr2np1F9WUnPizRxHlUUBgH1ZPI15FlEBgH0RvVYwmwH2BXMYzE2lQN5gz8aGVcXhXPmotBxuY+bQ6z6QhpNqCXjfGGDvvYsxwQIrALAvsPOKYjrAviiegp1ZKNAMsM/CbvQBBeIqALCPqxSOgwL5KwCwz1/z0o0IsC+dy0s9YYB9qd1fiskD7EvhZkyyoAoA7AvquCKZDbAvkrdga1oFAPZpFUR71xUA2LvuIdhXZgUA9mX2fk5zB9jnJDSGcUIBgL0TboARFhUA2FsUF11DgZQKAOxTCojm9RUA2NfXCEf4owDA3h9fYibhCgDssTKggLsKAOzd9Y03lgHsvXElJhJDAYB9DJFwSKEVANgX2n0w3nMFAPaeO9iF6QHsXfACbMhLAYB9XkpjnGYpALBvlvIYFwrUVwBgX18jHJFSAYB9SgHRvFAK+AT2euOqlvb77lD7XhzDG1q9s2hezZ1rdU39Dp2OKJRPYWy1AgB7rAgo4K4CAHt3feONZQB7b1yJicRQwFewP6hbz8jZA+xjLAyPDgHYe+RMTMU7BQD23rnUvQkB7N3zCSyyp0AzwF4i6ytfnEmHndCfzrjpQeKdZ99dPJ8eHtq/MtkhD84kBnT+/uVf3Rt8v2z6Y6R3mv3sk60049YRtOjxB+jYb19Cm9auphOH/YDMiL30zW0P63kyfbJlcxCx//TjrfT0dUOJbeFPnytGU48hV1X6xK629tZeXj0D7PNSGuNAgcYVANg3rhlaNKgAwL5BwXB4oRXIG+wFxI8ZfF4A7Rw937jmLTqa2nfLAAAgAElEQVR6wLfo2VuuoVOunUic+qKj6uteWxwAP4P+fkd3C6C7bccDAoB/4f6bafP6tQGk6+M02H+0oZWeHHEhDRo5qdKendbvyrH03OQxdPCxvajr18+l1lVvVmzYY+8ONH381dT7slGBPfgUVwGAfXF9B8v9VwBg77+Pmz5DgH3TXQADclQgb7BneJ57z400cORtQZQ+6sMR9iVTH60AOwO8RPblZkAi63KToG8aNNi3vvV6pa9d2rQETwCkb/5v+ei8eoB9jovQ8lAAe8sCo3sokEIBgH0K8dA0ngIA+3g64Sg/FLAN9gzkc+4aF4jFaS6djj8piLILpGsV9bH8PafWSCReg7iAffdzLg3SaDhyz9H/KLBfMW9G1cuy5k2DTv+R1BuAvR/rm2cBsPfHl5iJfwoA7P3zqXMzAtg75xIYZFEB22Bvmh4VsWfY1sBvwncY2KeN2J84bARNHXtF5cYAEXuLC62JXQPsmyg+hoYCdRQA2GOJWFcAYG9dYgzgkAJ5g70uSSk59lx6sssp36T5P5sURPJ33b0lyKPnT62IPUfqo3LxdSoO9yORfcnR5+9MsOe+Fjw0ic6a8AghYu/QIk1pCsA+pYBoDgUsKgCwtyguut6uAMAeK6FMCuQN9qwtR+35Zdb1byypVMURmOfqNpwO0+fy62nZtMeDXHwzR15ScRjszao4bfZsS0f2/UZkVRwe/9TrJ9OGd1YEYyyfNYWmjLo4cDl/v275YuKcfbkBWPPqwgD08QJtcc8KgH1xfQfL/VcAYO+/j5s+Q4B9010AA3JUoBlgn+P0MBQUQI491gAUcFgBgL3DzvHFNIC9L57EPOIoALCPoxKOKbICiNgX2Xuw3XcFAPa+e9iB+QHsHXACTMhNAYB9blJjoCYpALBvkvAYFgrEUABgH0MkHJJOAYB9Ov3QulgKAOyL5S9Y27gCAPvGNUMLKJCXAgD7vJQu8TgA+xI7v4RTB9iX0OklmzLAvmQOx3QLpQDAvlDuKqaxAPti+g1WJ1MAYJ9MN7QqjgIA++L4CpaWTwGAffl8nvuMAfa5S44Bm6gAwL6J4mPoXBQA2OciMwaBAokUANgnkg2NGlEAYN+IWji26Aq4AvZ619daNePjHld0v8D+7BQA2GenJXqCAlkrALDPWlH0t4MCAHssijIpALAvk7fLOVeAfTn9jlkXQwGAfTH8VGgrAfaFdh+Mb1CBZoD9C/ffTHPuGhdY2ueK0dRjyFU049YRJLvO8k6ve+zdgZ6+biitfHFm5HGnjfsJvfLYfcFOsQd160lmNN8ch3eqxad8CgDsy+dzzLg4CgDsi+OrwloKsC+s62B4AgXyBvt3F8+nJVMfpQHfnxBYO+fuH9FXz/zXAOSnj7+ael82itrtf1AA+gcf24u6fv1cal31Jj17yzV0yrUTQ48LA/utG98PHadWmk8C+dCkAAoA7AvgJJhYWgUA9qV1fX4TB9jnpzVGar4CzQT7Xdq0VASolTuv/xZ2A1AP7PU4zVccFuStAMA+b8UxHhSIrwDAPr5WODKhAgD7hMKhWSEVsA32YekwS5/5NU0ZdXGg1+k3/jSIyptgz5H9h4f2r2ja8chjSFJ0zMh+VCpO2DiFdBKMTqUAwD6VfGgMBawqALC3Ki86ZwUA9lgHZVLANtjX0vKzT7YGKTcM5h0OPaqSiiP59ZwTb+bO14rY65QdnXKjx+H+8CmXAgD7cvkbsy2WAgD7YvmrkNYC7AvpNhidUIG8wZ6j6BvXvEUM7QzcYTn2JthzmwUPTYqM2LfteEDQnz7uvWWvhI6DHPuEC6XAzQD2BXYeTPdeAYC99y5u/gQB9s33ASzIT4G8wV6i51wBhz+SiiPfr3l1YQDwDOaSrnPq9ZNp3fLFQWR/v6O7BVF+OY77eHLEhbT+jSXU/5qbae3SP1a9gGuOk5+yGMkVBQD2rngCdkCBHRUA2GNVWFcAYG9dYgzgkAJ5g71DU4cpJVEAYF8SR2OahVQAYF9ItxXLaIB9sfwFa9MpALBPpx9au68AwN59H8HC8ioAsC+v73ObOcA+N6kxkAMKAOwdcAJMsKoAwN6qvOgcCqRSAGCfSj40jqMAwD6OSjjGFwUA9r54EvOIUgBgj7UBBdxVAGDvrm+8sQxg740rMZEYCgDsY4iEQwqtAMC+0O6D8Z4rALD33MEuTA9g74IXYENeCgDs81Ia4zRLAYB9s5THuFCgvgIA+/oa4YiUCgDsUwqI5oVSoExgLyU1Dz62V7DbLT7lUABgXw4/Y5bFVABgX0y/FcpqgH2h3AVjUypQJrB/d/F8WvXS88FmVvLZuumDyo63rmxexTY9fd1QWvnizMDMY799CQ34/gTapU1LSm9vb65vcPbvchzNvedGGjjyNmppt09V/7zh1zuL5tUc20X9TJEA9pksG3QCBawoALC3Iis61QoA7LEeyqRAmcA+zK+ugalAfdfB51eeKsQB7EbWbNwnF3HGdU2/MB0A9o2sDhwLBfJVAGCfr96lHA1gX0q3l3bSzQB7HZE+7IT+dMZNDwbR4tZVb1Z2kdXfc6R9ydRHqc2ebWnBQ7cT/42j7tPGDw92nJXda8OOk77NHW+HPDizsost707b8chjgh1v2+1/ULCzrexYy8cd1K1nYBtHttu03WuHv/Hi0bbrCDvb9PDQ/jtE3vX3eq5hMC228867bItuyx2Ljfz9y7+6Nxhr2fTHKnOSJxEv3H8zzblrHHUZeHZwzD/0OZXMiL30zXoc1vNk+mTL5iBizx+tC8+x35Vj6bnJYwI9RD9XnnroExpgX9rLGyZeAAUA9gVwUtFNBNgX3YOwvxEF8gZ7E1IZZDeueYu6n3NpkH4ikWqG0M3r1wZQue61xQEcaxjftHZ1cEPQ+tbrxMfKv/k4AX3+nj98E6D/zfDKNwUM8nvs3aEqFSfqOO7nyREXUo+LhgeRdG3fpx9v3aGP9gceGkDzs7dcQ6dcO7Fyw9C24wHBXKePv5p6XzaKGIRZA/50Pvn0AJ5rvQPANxDSp7SVdJkwnXg8nj+PsXTqLwOdPtrQWpmLBnv5ftDISZWbHraLfbDg4TsqWsqNGffb4dCjnEtlMtc/wL6RKwKOhQL5KgCwz1fvUo4GsC+l20s76bzBXiLfZk63+b0G2K0b36/AO0f2GaoZnBmwdTsN+fIEgKPsJ/2f0TT95qsDwOWIt7650GDKkM83F2HHtbTftwqo5emA3HjwEwUzD96MvkubE4eNoFm3jaqAvSw+86YnzqI07ZCbHJ6/3DTJjY1oxv2KhhrsWT89D923zu+P0s/FaD3PFWAfZyXhGCjQHAUA9s3RvVSjAuxL5e7ST9Y22Ev6Bwvd54rR1On4k6ogXRzAEKmhVOduM9hr4KwF9vo4gX4Be3kZVcbkyP7hvQZUIs4C9mHHhaWsyFjLZ00JfcmUwXrKqIur1pik3Uh0nFOJJHWHD6wXsRco55Qa+Uh7jtjr+QvY9xhy1Q79hoH9inkzquahwX7Te+9W0qRkXH6Cgoh96S8hEAAKpFIAYJ9KPjSOowDAPo5KOMYXBWyDvalT0oh9XLDXNwdyszDwB7fR83eO2yFCzrbpGwgzLUfbbtodN2LPaUa6Ck/YutGR9agXVnlefFMkYC/vDtSyI6uIveTSS4oQIva+nP2YBxRovgIA++b7wHsLAPbeuxgTVArkDfY6P5vTYgRkOT1l6tgrInPs44K95OJz31E59vKiK+eSmxFn3UYfx6k4uiykGc3Wee/Sx9EDvlWVviN5+d3PHkYv/nRipcSk5NhzalFUVRzJj9fpRrvu3hJE4vkTlhKkwV4/EYnKsed+JBVpv6O7Vfo2wV5esEXEHpcSKAAF0ioAsE+rINrXVQBgX1ciHOCRAnmDPUsXVf2mXlUcyWGvlYqjq8Lo6jRmVRx5wVa+X/PqwtCqOHJcrYg9558nqX4jaTpmnXqzjr2umqPnwZVo+lx+PS2b9nhwk2DmyGuwl0g/p/Bwf4f17E977NMxsioOH3/q9ZNpwzsrgjHkxVz+nlOq+MM5+/LCr+jnYp49cuw9umBhKt4pALD3zqXuTQhg755PYJE9BZoB9rZmE/Wyp63x0G8xFADYF8NPsLKcCgDsy+n3XGcNsM9VbgzWZAUA9k12AIa3rgDA3rrEGAAKJFYAYJ9YOjSMqwDAPq5SOM4HBXwCex/8gTlkrwDAPntN0SMUyEoBgH1WSqKfSAUA9lgcZVIAYF8mb5dzrgD7cvodsy6GAgD7Yvip0FYC7AvtPhjfoAIA+wYFw+H/v71zD7KquvP9r2piSOsgLc1lpAEDOkbhgvIYLRgeRnlG6oqOD0odQWRwkBvLQSwBkUKKSAeLRyyjGHIJCvFNSmUuGR5NFLAJ4wsMFK+IoMgjXXaEMG2LOuOt36r5nfs7i7PP2Xufffbzu/+xOb32Wr/1Wbutz1rnt9dKHAGIfeKGDAFniADEPkODHVVXIfZRkUe7URCA2EdBHW2GSQBiHyZttAUC3ghA7L3xQmkfBCD2PqDhlsQSgNgndugQuEsCEHuXoFAMBCIgALGPAHrWmoTYZ23Es91fiH3x8dd75lfqSZG96Vu3ry16Sq3TqbSViovr1Sfz8h71YfAIuj8Q+6CJoj4QCI4AxD44lqjJgQDEHo9GlghA7KMXe9l/nyP54Y8foao2bQsGFQexT+LfBsQ+iaOGmLNCAGKflZGOsJ8Q+wjho+nQCYQt9nKCa22PvlS/cDrx6ak3zF9JcmJpoRNcGcqGBdOo56hbqVOv/nmryPy79Y9NNdz4b3f0vOXm59cfGk8fba03p6zyZyzLxU621SfWSkzHdr9PcjqsnEDLci2f6dj1abF8kuzpU3+hQZNmmn45tSuDzavgXa64ig69s8mc5trj2jG550B4cFsX9h9Cp5tPkT6Bl0+S5Uvi4581Qz499uN3Npc8mdY+mZf7cPW9c+iNJ2bT9lXLcuO0Z8NvcjF65RnVqbQQ+9D/t4IGQcA1AYi9a1Qo6JcAxN4vOdyXRAJRiP2r0+6gS4deb9JO9Cr0yWOfEv9u5IzFdH63XkbmOT2l39j7ioq93MPSL4IqkwCu/8SRg9T3lruN7HObXI5l+lTjUSPJx/fsoBXjh9LY5fV57XJZnXrCwsz/lokC/8yXlJOfuc1tzy42E5azz6txbPc7rarMJOXNnz9iVuq/+LyJPnjtGRp8z8PEvxNx1jy4DY5578bVdHh7g/lZc6vpeskZ7XHcHHPTwX20c80LuYmBsLHjl0kKf871rau7PzdJER4XDRhm2ukx6jYzEXHLM4q/EYh9FNTRJgi4IwCxd8cJpcogALEvAx5uTRyBKMSeV9iHP7jQrGbrHO6WE5/liaeI9KjZS4w4Fluxl/rkG4ERMxblpbTYUq7LsfBqYbeF115Fl0HWkwYtv3afdN12fBwXr9SzRPOkZPOSn9Dl199p2EiKjqzQy79lJb1z7wG51X0R7uraC/L6YvfTSez1g6snR05i36F7H9ry9KPmmwD5NkTGlcfRiWcUfyAQ+yioo00QcEcAYu+OE0qVQQBiXwY83Jo4ApUWexY8SRcZPHkWdRt2Y54Qagnm1BdZhZYVa5bHIffPKyr2WjBtgZcB0ekp8pmk0tgTCiext9NVuB7pU7HJCn8boC+dwqP5SBmd9qN52GLPKTL64lg4pUfLu1ux12k1Uid/g+Ek9vYEotgETfOM4g8EYh8FdbQJAu4IQOzdcUKpMghA7MuAh1sTR6DSYm8DYYHUEqz/7XbFXt/D9dsrx/rfWuy18Oq47JVxJ7G3X151u2Lv1K7NgmMqJuK22Ms3GHZfnL4hsFNxJJVIUp3kG4AgVuzdfDMQ1h8LxD4s0mgHBLwTgNh7Z4Y7PBKA2HsEhuKJJhCF2HNOfL9xU0waiZcce9kOUuew22Kv88M5l17qHzhxGq2ZMzmXY8+f71rzvKvcc0nF0bF+/WWLyTHnNrzk2Ot2DzRsyPuGgvti57fLewHyzgGXsXPsJRbOdy+U+65z7NfWTcnL/ef4bbGXbzeKrdiXyrGH2Cf6fwsIHgRCIwCxDw11dhuC2Gd37LPY8yjEnlfUW7U+1+y2onetYf6FdsXRL5I27t9JQ6f+lI7ues+80GmLvax68+SByzrtiqPTYYqt2MsuOJweIzIru+30uXkiHWhYb0Rb5Jp/p+Ozd8WRdtt06GReCNZ58vL8FXoRlX/HO9x8fvhA7uVaO82JJxh2//uN+xf6y/EjuVx4uYe5XNh/KH3V0mwmJpo7p/TwxROaS4dcZ+I88oe3zYTA7a44EPss/t8EfQYB7wQg9t6Z4Q6PBCD2HoGheKIJRCX29sutiYZoBe+U5x9FH51eJo4ilqjaRCpOVOTRLgiUJgCxL80IJcokALEvEyBuTxQBiH35w2W/VGvvzV9+C/5rgNgTQez9Pz+4EwQqTQBiX2nCqN8ccvPtt9+CBAhkgkDYYp8JqOhkrAhA7GM1HAgGBPIIQOzxQFScAMS+4ojRQIwIQOxjNBgIpSIEIPYVwYpKQSAQAhD7QDCikmIEIPZ4PrJEAGKfpdHOZl8h9tkcd/Q6GQQg9skYp0RHCbFP9PAheI8EIPYegaF44ghA7BM3ZAg4QwQg9hka7Ki6CrGPijzajYIAxD4K6mgzTAIQ+zBpoy0Q8EYAYu+NF0r7IACx9wENtySWQNRi73ZrSN5/XQ6KKgZbTlOVPd25bJg7w8gBU7yfvb7c7JTjN0593xefN+WdxJvYBzPAwCH2AcJEVSAQMAGIfcBAUd2ZBCD2eCqyRABiH+xo2yffeqk9CLGvatPWS5OZKAuxz8Qwo5MJJQCxT+jAJSlsiH2SRguxlksgCrFngZWTYfmUU161Hz1vObGUykmv3C9Z5T62+31aPfMu01U+AbbHtWMcT6h1s2Kv29cn0zqdQNtv7H3m9NXTp07S7nWraOzyejq/Wy/zGZ+eyxd/1qlXfyol9iLvcvKu3FvT9RJ6/aHxJKfaDr7nYdr01FxTN/8/ifnwarx9oi7/3r7v7V8/mTtp1ukkX+b0VfMp+uj3G80Jvb1vmmBO0OVTftN2QezTNqLoT5oIQOzTNJox7QvEPqYDg7AqQiBssRfx7THqNiPoLJgi9k0H95l/i+RrSdepOCzH6x+bSsMfXEhtOnQygt26fS1x+k0psRcR5rIs4lz+VONRI7XH9+ygnWteyAkuTzJOHDlIIvbSBteh2+H419ZNoRvmr6Szz6sxoi3124Mmk4p+46bk+i/tnzz2aS6NRiR+5IzFBScMOm77vi1PP2rEnusoxkm4221V5EGLsFKIfYTw0TQIlCAAsccjUnECEPuKI0YDMSIQttjb6SbF0k9ErEXYJceePz+8vSEn4HqlfduKx2nzf690a8yyMm9PHnT7/LtiYt+59wAj4/aqvJw823PUraRX3nX7siLOEi6yXdPlYjOpkTZtQbfL6UmPU169zrE/0LChKCeOj9nq+Hmyk7YLYp+2EUV/0kQAYp+m0YxpXyD2MR0YhFURApUWe5ZREW1Ou+lyxVV5q/JaUM/6XlVeegt3mO8pJPaSmiNQRNzfe3mp+cjp5VmW9xXjh+axlJSflhOfFRV7FnedbmO/IMtpQhcNGFZyxV5W1Dn1qJjY2+Wc4ubO6FV6+ZnFvhgnmShB7J3/tIL4+6jIHy4qBYGUEIDYp2Qg49wNiH2cRwexBU0gCHHhv5mHtje7Cq3Yir29wlxsxZ5TZLS8S+OlUnHsVXkdtJ1jL3VJKo4W+3V199OgSTOJV9315TbHnlNlvIq9/jZBt+m0es88i3GC2Jd+ZL3+fezbt4/GjBlDH3zwAY0YMYKee+45qqmpKdlQS0sLzZ49myZMmECXXHJJyfIoAAJpIQCxT8tIxrgfEPsYDw5CC5yAV3EpFIAXsZfVYUlr0Tn2Wuy//rLFrHzzCrm9Yq9z7Fmsdb45p+IUW7Hn3+kceJ487FrzvMnrZ+m3c+W5fVvsuQ49gZC8ec6Hl1ScYjn2flbs7QmDjlun39g/63QemxPEvvSfk5e/D1vOGxoa6He/+x3NmjWrZEN874IFC2jy5MmuJgIlK0QBEEgIAYh9QgYqyWFC7JM8eojdKwEv4uJUtxex5zr0rjRDp/6Umj7+I/3wx4+Y6vUOL31unkgHGtabXPq9G1ebtJJCu+LonW1KrdjzKrlu395fXlKHuM4L+w+lr1qaC4q9TFBkVxyJy2kfe+4b75xTVd0ub595/S2BTGa4LO+Ko3e3sbnpuKXNQvfpXXFsThD70n8tXv4+eLV+2bJlNGfOHKqqqiI3sq5X+HU0b731Fg0YMKB0gCgBAgknALFP+AAmIXyIfRJGCTEGRcCLuAQl9kHFjnpAwA2BsF6etVfovaTXcMpOc3Mzffjhh7mJgZu+oQwIJJ0AxD7pI5iA+CH2CRgkhBgYAYh9YChRUUwJhCn2hw4dottvvz1HYu7cuXTNNdcUXX3nCcHKlStp8eLFJh2HLzfpOzHFjbBAwBMBiL0nXCjshwDE3g813JNUAhD7pI4c4nZLIEyx1zn1Xlbs3fYF5UAgbQQg9mkb0Rj2B2Ifw0FBSBUjALGvGFpUHBMCYYm9nxz7mCBCGCAQGQGIfWTos9MwxD47Y42eEkHs8RSknUBYYl9oVxxJseGXaTnlRl6I1T+nnT/6BwLFCEDs8XxUnADEvuKI0UCMCEDsYzQYCKUiBMISew7eaR97+fzJJ5+kdu3amb3u+WfsfFORIUelCSIAsU/QYCU1VIh9UkcOcfshALH3Qw33JIlAmGKfJC6IFQTiQABiH4dRSHkMEPuUDzC6l0cgbLHXp6QWOwXWzTDp/eh1eb1fu1M9vF+97OPupi0po++zT6r1Ug/KhkcAYh8ea7QEAl4JQOy9EkN5zwQg9p6R4YYEE4hS7PmwqHIu+wRaL3UFIfZe2kPZ6AhA7KNjj5ZBoBQBiH0pQvh92QQg9mUjRAUJIhCl2OsVe0a2YcE0kpNc+ZTWTr36m1Nitzz9KI2YsYh4IqBXyU8e+5TWPzaVhj+4kGq6XHwGdS777ou/MJ/vXvcKyWmtx3a/b06x5YtPjK2uvYC2LK2j5qZG6njZleak2+N7dtCK8UNNmd43Tcg7/Vbft3PNC+Z3peJv1frcM/qWoMck0aFC7BM9fAg+5QQg9ikf4Dh0D2Ifh1FADGERiIvYb1vxuOnywInTjbyvrZtCN8xfaT4rR+xZznmScH63Xmbi0Lp9rWnDTqmR9niCoL8JaNOhU9H7ROyLxf/qtDuo37gp1OPaMabdU41HzWTgO62qwhrmTLcDsc/08KPzMScAsY/5AKUhPIh9GkYRfXBLIA5iP3DiNFozZ7IRbl6l/+Z0i5HpnqNuparqdkXFnqW5cf/OvO4OnjwrN0FgkR49b7lZ7d/125foxJGDBcXeLnd4e0NOvvW3BCzwkpsvn5eKX3+rgLx8t09mcOUg9sGxRE0gEDQBiH3QRFHfGQQg9ngokkDAaVu9UrHbe21XWuxZmDc/NdeExcLdbdiNOVGXVBwR44+21ueFz2kyHbr3KWvFXlbUeXW8mNjb5SRVRwKSF3Lfe3mpo9h7jR8r9qWe1mB+D7EPhiNqAYFKEIDYV4Iq6swjALHHAxF3AoUOwtFH2ReLn+9dsGABTZ48mWpqakI/oKrQrjgs9hsXzaRBk2aekStv59iznMtqupsce79iLyv7NstCu+J4iR8r9uH/dUHsw2eOFkHALQGIvVtSKOebAMTeNzrcGBIBP0fX6xV+HSY/7x9//DF17tzZd/Rcx0Pbm13d77Tdpc5Rl20sR85YbFJxON2Gf5Y8eW6Ic9QrJfb2bjs6L75QKg7HUix+p3cEsGLv6pEpuxDEvmyEqAAEKkYAYl8xtKhYCEDs8SzEnQAfR69X6O0V/GLxP/fcc9Tc3EwffvghzZkzh84555xYiD3HrHfF4TQcftmUL16l59QY3tWm7y130/G9O3JiXyjHXna/aTnxGTmt2EudsiuOLsdt8sq67Iqj98V3us8p/mK7+kDsw/lLg9iHwxmtgIAfAhB7P9RwjycCEHtPuFA4AgIs9ocOHaLbb7891/rcuXPpmmuuKXpEPd+3cuVKWrx4sUnH4Wv27Nmhin0EuNBkxglA7DP+AKD7sSYAsY/18KQjOIh9OsYxzb0oZ8Xe5lLpl2fTPA7oWzIIQOyTMU6IMpsEIPbZHPdQew2xDxU3GvNBwE+OvVMzEHsfA4BbEkUAYp+o4UKwGSMAsc/YgEfRXYh9FNTRphcChXbFkRSbqqoq4hX9AQMGmCr1z4XagNh7IY+ySSQAsU/iqCHmrBCA2GdlpCPsJ8Q+Qvho2jUBp33s5fMnn3yS2rVrR2PGjCH+WUTfbgBi7xo5CiaUAMQ+oQOHsDNBAGKfiWGOtpMQ+2j5o/VwCUDsw+WN1sInALEPnzlaBAG3BCD2bkmhnG8CEHvf6HBjAglA7BM4aAjZEwGIvSdcKAwCoRKA2IeKO5uNQeyzOe5Z7XXYYm/v6+7EXZ/wWu7YfHO6xeyR33PUrdSpV/9yq8P9CSMAsU/YgCHcTBGA2GdquKPpLMQ+Gu5oNRoCYYu9214GKfZu20S5dBKA2KdzXNGrdBCA2KdjHGPdC4h9rIcHwQVMIGyx1yv2TQf30bsv/sL0aPe6V8zJsjfMX0nHdr9vTprlS06g1SfB9r5pgjl5li9eiT996iTtXreKRj70OP1p/x/M7/hUV2lryP3ziCcKsmLPn8uJtXKqLNe1ru5+GjRpJtV0udicdnt4e0NeO3z/+d165Z2QO3Z5vfkWoNgJs8f37KAtS+uouamROl52ZS6+gIcS1TkQgNjj0QCB+BKA2Md3bFITGcQ+NUOJjrggELXYrxg/lFiORZhbt6+lgROnGxGv7tiVelw7xkjz+sem0vAHF1KbDp2MWHO5fmPvy/3M97Sc/PMZcn7iyPdzLnkAACAASURBVMFcORbzmq6X0OsPjTdtsJBzO6cajxrZ3rbicepyxVXm87d//QQ1ffxH+uGPHzEU3/z5I+bn915eav7N9/NkY23dFDMZ4WvL04/SiBmLqKpNW/O7nWteMPWy2Es5njTgCpcAxD5c3mgNBLwQgNh7oYWyvghA7H1hw00JJRC12LNYj5633Mgwr5KziNtir1fPeSVepPnqe+fQG0/Mps69B5gJgOTS878vHXJdLq9eJg0s9nzpNvVK+4GGDaZ9njDs/L8vmLL/46Ju5r+H3tlEfW+5O29SoHP3q6rbFRV73WZCH5XEhg2xT+zQIfAMEIDYZ2CQo+4ixD7qEUD7YRKotNiz0G5+aq7p0uDJs6jbsBtzAsypOLKqzcJeTOwlNUfYcArNqNlL8lJs+HdSh27nrO9V5SSfy/C3BPqSFCD+7IPXnqH/+aMx9PE7m6i2x9/RiaOf5IpeNGCYEfuPttbn3c/pQh269ykq9rqfYY4v2iKC2OMpAIH4EoDYx3dsUhMZxD41Q4mOuCBQabG3Q7Bz7N2Kvazk6/oK7XYj9XcfeRM1/nGXWf3X5fh+J8nmcpyO0/7iHvTVF81G1vds+A191XyKLr/+Tjr7vJq8VB8di51jr79l4FQciL2Lh7FCRSD2FQKLakEgAAIQ+wAgooriBCD2eEKyRCAJYq9z7DlHXfLiJRVHb2MpEr991TKTu8/58lrs7Rx7FvBda57PpQNxbv2BrRto0N0zTN4/iz6L/eB7HjYv5HLbfPGEQV7CHTljMXEqDr+Qyz9L6g+Xkxx7iH10f1UQ++jYo2UQKEUAYl+KEH5fFoH/+I//oNatW9O3335bVj24GQSSQoAnsjt37qQePXr4DpnreGh7s6v73a7Ys3Bz+k2hXXFkJxudYqP3p7dl3V7Z17viSBqOvNTK+fs6H97edlNPHLjDEh//LDFznZyPf3zvDoi9q6eisoXKEXt+tuvr62nIkCGVDRK1g0BGCUDsMzrwYXab/0d+6tQp+uu//uswm0VbIBAJgb/6q7+i/fv300UXXeS7fS9i77sR3AgCPgmUK/affPIJde7c2WfruA0EQKAYAYg9no+KE/jud79L69ato6uvvrribaEBEIiaQFVVFb344os0evRo36FA7H2jw40hEPAr9n/5y1+ourqa/uu//iuEKNEECGSTAMQ+m+Meaq87dOhAt99+Oy1YsCDUdtEYCERBoGPHjnTrrbeW9bxD7KMYObTploBfsX/11Vfptttuo5aWFrdNoRwIgIBHAhB7j8BQ3DsBXrnk1IQ9e/Z4vxl3gEDCCIwcOZL+9Kc/0fbt231HDrH3jQ43hkDAr9jfeeed9NZbb9GHH34YQpRoAgSySQBin81xD7XXW7dupQEDBtChQ4fo+9//fqhtozEQCJvASy+9ZL6h+uabb3w3DbH3jQ43hkDAr9jX1tbSqFGj6Je//GUIUaIJEMgmAYh9Nsc99F736tWL/vM//9PsFoILBNJO4G/+5m/MOyWca+/ngtj7oYZ7wiLgR+z/9V//1bx30tjYSO3atQsrVLQDApkjALHP3JBH02He9pJlZ9CgQbR27dpogkCrIBASgWeffZY47YBXJv/pn/7Jc6sQe8/IcEOIBPyIffv27emKK66gNWvWhBgpmgKB7BGA2GdvzCPr8b//+7/T8OHDza4Iixcvpn/4h3+ILBY0DAKVJjBp0iRaunQp/fM//zMtWbLEU3NexL7YPvaeGiXKHRDVuD//mzXZ576qTVvHKu396d22re/jPe9x8JRbctGV8yL2+/btM//f52ea0zFxgQAIVJYAxL6yfFF7AQIjRowwB5TwvvZ8iM/ll19OXbp0Id4WExcIpInApk2b6N/+7d9MGlqnTp3MOyZt27YteWDba6+95uuAqmLi7YarfSKtm3ukTBBi76U9lI2OAIs9L844XV9++SXxXvX8/O/evZuuvPJK4oUdXCAAApUnALGvPGO04EBg3rx5tGHDBrOKwwdY9ezZk3bs2AFeIJA6AqdPn6avv/7a7N/t5hRmLlPuybMMccOCabR91TLDc+zyeuLTZGWFv1Xrcwv+bv1jU2n4gwtJTo7Vg8Er6u+++Avz0e51r5CcMnts9/vmVFu++OTY6toLaMvSOmpuaqSOl12ZOy12xfihpkzvmyaYz/ZuXH3GfbJi7yf+1D04Me0Qiz1/81rsatOmDV122WX0wAMP0ODBg2PaE4QFAukjALFP35iiRyAAAgknEEQqzrYVjxsKAydOJxbytXVT6Ib5K81nr067g/qNm0I9rh1DvNJ+qvGoEe2Txz6lUmLPcs6ThPO79TITh9bta00bdkqNtMcTBP1NQJsOnYreJ2LvJ/7vtKpK+MgnI3wvqTjJ6BGiBIH0EIDYp2cs0RMQAIGUEChX7AdOnEZr5kw2ws2r9N+cbjEy3XPUrVRV3S5P3nVeO4s9S7+dYz948qzcBIEFfvS85cRpP7t++xKdOHKwoNjb5Q5vbzCTB5Zv3SYLfHXHrmaSIZ/7jR9iH84fAMQ+HM5oBQT8EIDY+6GGeyInwC9kjRkzhj744APinP3nnnuOampqSsbFJx7Onj2bJkyYQJdccknJ8igAAlEQKCb2LMybn5prwmLh7jbsRtry9KM0YsYiajq4z7x8KmL80db6vPA5TaZD9z658iznttiXWrHXL7cWE3u7nKTqSEDyQu57Ly91FHuv8UPsw3laIfbhcEYrIOCHAMTeDzXcEykBW84bGhrod7/7Hc2aNatkXHzvggULaPLkya4mAiUrRAEQqACBIFbsNy6aSYMmzTwjV17vohOm2MvKvo2r0K44PDHxEz/EvgIPY4EqIfbhcEYrIOCHAMTeDzXcEykBXq1ftmwZzZkzh6qqqsiNrOsVfh08H2/Op+LiAoE4EShX7DnlReeos8xzis3IGYtNKo6s8Icl9vZuOzqvv1Aqjt/4IfbhPMUQ+3A4oxUQ8EMAYu+HGu6JlIC9Qu8lvYZTdpqbm+nDDz/MTQwi7QwaB4ECBIIQe65W74rDaTicx15qxb5Qjr3sftNy4rO8feZ1Kg7/zOk2siuOvR89p/zIrjh6X3yn+/zED7EP588JYh8OZ7QCAn4IQOz9UMM9kRJgsectMm+//fZcHHPnzqVrrrmm6Oo737dy5Uqz/zKn4/DlJn0n0s6i8UwS8CL2mQSETkdKAGIfKX40DgJFCUDs8YAkjkA5K/aJ6ywCziQBiH0mhz0xnYbYJ2aoEGgGCUDsMzjoSe+ynxz7pPcZ8WeLAMQ+W+OdtN5C7JM2Yog3SwQg9lka7ZT0tdCuOJJiwy/T8oq+vBCrf05J99GNDBCA2GdgkBPcRYh9ggcPoaeeAMQ+9UOczg467WMvnz/55JPUrl07s9c9/4ydb9L5HKS1VxD7tI5sOvoFsU/HOKIX6SQAsU/nuKJXIAACCSYAsU/w4GUgdIh9BgYZXUwsAYh9YocOgYMACKSVAMQ+rSObjn5B7NMxjuhFOglA7NM5rugVCIBAgglkQexbTv6Z1tXdX/B0XD109r77bobVPhBL7nH6XH7/zekWs/d/z1G3mo/svfj5MynTufcAcy6A06XjPut7Vbl6O/Xq76YLsS4DsY/18CC4jBOA2Gf8AUD3QQAE4kcAYl/emDjJNx+GdXh7A/HJtoUOs9Ji7yTgfsSeT/hN0wWxT9Nooi9pIwCxT9uIoj8gAAKJJ+BV7Hn1+/WHxtNHW+tJn+rKq8Zykqz+nE+B5dXoVue0pm3P/szcM3DidFpbN4Ua9+80p8fyarTbcgxcnyzb+6YJRp754hXw1u1rafNTc82/B0+eRf3G3pc7FVdOtT37vJpcH6Qcx6RXvpsO7qMtS+uouamROl52pWnj+J4duRNtpV2WdlvitZBfOuS6vFN57XgLrdi/9cufmj50H3Gz6cffDv6RYaTZS9x9b7k7bzxGzV5CfD/XyxOGQqw4Zi7zVfMp+uj3G8046P7E6aGG2MdpNBALCOQTgNjjiQABEACBmBHwIvb2KjML7YkjB0nksseo24yAsjSeajyaJ8Njl9fT+d16Gck9efRjGj1vObE8c1n5ecX4oVSq3BefN9H6x6bS8AcXUpsOnXIyLwLPeEXCefJww/yVxCIvqThyj6S36JQZvnfL04/SiBmLTGxyf02Xi430F2pXJgTyOykr9bz38lIz4lxOxJx/Fha22O/duJp2rXneMOG+8mSp37gpJBOEUnHrVJyq6nbm/pEzFufa44kPt8/cWfp1O1wubuk7EPuY/Q8D4YCAIgCxx+MAAiAAAjEj4EXsnXLQ7c+1BLec+Cwn75wmwkJZ3bGrmQDYK+Qi+cXKHWjYkJfiIiv9V987h954YjaJ+Oq8ei32LN760uVssdfx2Kvy0q7+tkBWyWXCwwKtLz0xchL7bSsez/HhezUvN3FrsefyOnefY5Y+6QmHm7SgqB5biH1U5NEuCJQmALEvzQglQAAEQCBUAsXEXlJCOCBOa+lyxVV5ki6BamFkKdeyzGKv5bKY2Lspx2K/euZdeYw4vcdOQSkm9jo9hSuSFB1b7HU8LOuF2uUVb+6z/e0FSz2vfusUJQlafyuhV+ztyYkt9m7i1mJ/4ugneZMgPZFisZcJFsQ+1D85NAYCqSEAsU/NUKIjIAACaSEQxoq9G2Hn1Bc35VjsOf2n2Go4C7WT2Et+vYh3sRV7W+wLtWtPbvrcPJEONKzPy/uXbxHKWbG/aMAwk0tfKm4vK/YQ+7T8FaMfIBANAYh9NNzRKgiAAAg4EvAi9jpHnOVZ0lMGTpxGa+ZMJqccezfC7lbsdY49p9VIPr+sdks6jFux5z5se3axycUvtmJvb1+p3yPgl1H1i63yQrC9q42suDut2Mu7AZIuo3PsbbF3ittLjj3EHv9jAAEQKIcAxL4cergXBEAABCpAwIvYc/NOu9+U2hVHtn0sNxWH0150SorswGPv367FXl6YPfKHt43AH9v9fi6t5kcPP0HH9+4wu8jwy6b65Vl7b/lC7ertJblve+tfM21ILr++h9OZ+GKhlpdhi+2Kw327sP9QOrtte/NOgk4H0nHXdL3ErObz5WVXHIh9Bf6gUCUIZIgAxD5Dg42uggAIJIOAV7FPRq8QZVoI4OXZtIwk+pFGAhD7NI4q+gQCIJBoAhD7RA9f6oOH2Kd+iNHBBBOA2Cd48BA6CIBAOglA7NM5rmnpFcQ+LSOJfqSRAMQ+jaOKPoEACCSaAMQ+0cOX+uAh9qkfYnQwwQQg9gkePIQOAiCQTgIQ+3SOa1p6BbFPy0iiH2kkALFP46iiTyAAAokmALFP9PClPniIfeqHGB1MMAGIfYIHD6GDAAikkwDEPp3jmpZeQezTMpLoRxoJQOzTOKroEwiAQKIJVErsef92ex/4IEDp/fJ1fbxHvH0ard0e3yv71Ov95+1yeq/9IGJGHf4JQOz9s8OdIFBpAhD7ShNG/SAAAiDgkUClxN5jGK6L2yfA8o32ibiuK3MoCLEvl2Bw90Psg2OJmkAgaAIQ+6CJoj4QAAEQKJOAF7EXqeYm+b7R85ZT08F9tGL80FwUY5fXU6de/c3psLJif3zPjlwZOSmWV8y/Od1CGxZMo+2rlpn75V5ZWW/V+tyCv1v/2FQa/uDC3OmufK+W8VL1jpixiOwTbHvfNIH4dNy9G1fnTqW97tFfmRNfcUVHAGIfHXu0DAKlCEDsSxHC70EABEAgZAJexf7VaXfQyBmLjbzbq+e7fvsSHd7eYASZZZ7FfuDEabRx0UwaNGmmEXEuwxcLM8v4qcajufJr66bQDfNXmt9zO/3GTTmj3Mljn5It9vaKPdfLF6fm8ARD1yupOF983pSrp02HTmaC0bp9rbkHK/YhP4RFmoPYx2csEAkI2AQg9ngmQAAEQCBmBLyKfaHVcumSvUpfSOylrKyq9xx1q5kkyL879x5AHbr3yZN3XS+LPUt/4/6deSRldd2WfN1OVXW7XI79gYYNuUnId1pV5X3DsG3F41TdsStW62PwrELsYzAICAEEHAhA7PFogAAIgEDMCBQTe1653vzUXBMxv5zabdiNZ7x8qstwOUlpkRV7Xr3XMi6///rLFnr9ofFmhZzFni9ZKWex1y+52mKvJxf8O76P04I4vUbE/qOt9WeIv66XxX71zLvyykia0HsvL4XYx+Q5hdjHZCAQBggUIACxx2MBAiAAAjEj4HXF3hZuLdWFVuxZ7HlFXC5OxTlx5CD1G3ufSX9xWrF3K/YyIZCUHp4wrKu7P5f6o3HrXXFY7DmOQjvpIBUnPg8pxD4+Y4FIQMAmALHHMwECIAACMSMQlNif9b0qI+p86Rz7vjdPpK2/WkjywqrbHHsvYl8sx162x+T3AnQqjs6x59x/ne+PVJz4PKQQ+/iMBSIBAYg9ngEQAAEQiDmBcsRe7z7T/gc9afA9D9PutauMxPNuObIrjt5pRlJxeBXfy+41Ulehl2cZMU8Ydq153qTkyCRDdtuR/Ht7H3v+hkF29NG79XBdnKaDXXGif3gh9tGPASIAAScCWLHHswECIAACMSPgRexjFrrncNweUOW5YtxQMQIQ+4qhRcUgUDYBiH3ZCFEBCIAACARLICtij1X4YJ+bsGqD2IdFGu2AgHcCEHvvzHAHCIAACFSUQFbEvqIQUXnFCEDsK4YWFYNA2QQg9mUjRAUgAAIgECwBiH2wPFFbsAQg9sHyRG0gECQBiH2QNFEXCIAACARAAGIfAERUUTECEPuKoUXFIFA2AYh92QhRAQiAAAgESwBiHyxP1BYsAYh9sDxRGwgESQBiHyRN1AUCIAACARDwI/a8u4w+/TWAMFAFCBQkALHHgwEC8SUAsY/v2CAyEACBjBLwI/Z8mFOXK66iTr36+6Yme9jLybN+KtInxOpTb/VJt27qtffT1/fofffd1MVl/JxcW078buNKYjmIfRJHDTFnhQDEPisjjX6CAAgkhoAfsQ+ic0GLfRAxcR1BfBvhR+yDij9t9UDs0zai6E+aCEDs0zSa6AsIgEAqCHgVexbfV6fdQY37d5Kc1ionverVdy23soc8A+MTam+Yv5LadOhEGxZMI76nqrodbXn6UXNibVWbtmSvXhe6/9ju983psHzxCbHVtRfkTrrlz7huOXl27PJ68+2CHFDVqvW5Z/xOBrOQ2OsTau0VfB2bnFTLff9u1Tn00e/r6aOt9TR48iwaOHF60fZ1n3X83F6rc1pT+x9cRh269ynKqVicSX1YIfZJHTnEnQUCEPssjDL6CAIgkCgCXsS+5eSf6fWHxhtJZVFmgT3VeJSGPTCf9m5cTSeOHDS/43Lr6u6nQZNmUsuJz0y50fOWG2nnn/nqN/Y+V2J/fM+OgvdzO06pONtWPJ6Li+9fWzfFTCb44klJv3FTqMe1Y/Lil/QdW+z1v2Uy0rp9remnlvGvv2zJ9XnPht+Y33Gfv/i8ybQ5csZiM4Fxap/j3LnmhRzLw9sbzM8nj32au6eY2HM5ee/BjjNRD6QVLMQ+yaOH2NNOAGKf9hFG/0AABBJHwIvYs6xqSZcVcF5pbzq4L/c7/lkk1c535xVungC4FXun+53E/up759AbT8w23wTw5ENSfjr3HmBWvPVLv4Xy2m2x53hFsjkWfQ9PIKo7djWTBH3J5IVj1ClHLPZO7YvYS/wcr9QrE5hiYs8TK6c4vb5zEKeHGGIfp9FALCCQTwBijycCBEAABGJGoJjYs1BufmquiZjTSfiF2RXjh+b1QFJrzj6vJm/FWoS30IupXJdbsefGdFqNxOIk9gMnTqM1cybnvlXg8m7E2GnFXqfaSMc5BWnU7CWmXi3g8nv9TYIt9k4pR7bYF0prKiX2kpqk45RvSmL22LkOB2LvGhUKgkDoBCD2oSNHgyAAAiBQnIDXFXunlXgR6HPatqfPDx+gy6+/k2q6XEz2irebFXt9j70SLff7XbEvlsvPfSi0Yi8pRjZJp5dkgxB7Nyv2NienOJP8NwCxT/LoIfa0E4DYp32E0T8QAIHEEfAi9naOPYvlrjXP5/Ln5eVN/YKplk/OQ+ccfU6RsVfsJQ/9/G69zAo9X5K7Lykm+n6/OfZexd4Wffu9Ajs2juvQO5tyKTpeV+ylz8JVcvT5vQBesXfipHPseUKl40QqTuL+LBEwCCSCAMQ+EcOEIEEABLJEwIvYy4q27IojaTgsknyJ+PcYdVsuP1w+491hOIWlz80T6UDDerJz4SXlhevse8vddHzvDiP2IvP2/SLAnH7idVccp913Cq3Y82d6txnZCYhfBJZvKSRdSe+KY6cildr9R788yyIuaVDcXpva7+dSfpw4Sf6/pErZcSb1mcaKfVJHDnFngQDEPgujjD6CAAgkioBXsU9U51ISbJb3xYfYp+QhRjdSSQBin8phRadAAASSTABiH//Rg9h/G/9BQoQgkEECEPsMDjq6DAIgEG8CEPt4j0/Wo8OKfdafAPQ/zgQg9nEeHcQGAiCQSQIQ+0wOe2I6DbFPzFAh0AwSgNhncNDRZRAAgXgTgNjHe3yyHh3EPutPAPofZwIQ+ziPDmIDARDIJAGIfSaHPTGdhtgnZqgQaAYJQOwzOOjoMgiAQLwJQOzjPT5Zjw5in/UnAP2PMwGIfZxHB7GBAAhkkoAXsec96dfV3U+DJs00p8oGefFBULI/vq7XzX7sfneN0ffxXvXFTtUNsq+oyz0BiL17VigJAmETgNiHTRztgQAIgEAJAnES+/WPTaXhDy70PGkIQuzxoMSTAMQ+nuOCqECACUDs8RyAAAiAQMwIuBX7b0630IYF02j7qmXEp8P2Hz+VPnlvizkdlk895RX3D157hv7+rgfojSdm0/mX9qL3Xl5Kjft3mpNhe1w7xvRcr8zr1Xj+vJjY84r6uy/+wtSxe90rJoYb5q+kY7vfJz59li85gXbL0jpqbmqkjpddaeLjU13lRNbeN00wn+3duPqM+2TFnuuSvvLPY5fXU6de/U3sW55+lFq1Ptdw0L+L2bCmJhyIfWqGEh1JIQGIfQoHFV0CARBINgG3Ys+91Kk4Z59Xk5eWs+u3LxkQlw65zkjxyaMf0+h5y+mLz5tyws73vP7QeBo4cboRZV5pP9V41Ij2yWOflhR7lnOW7PO79TJttG5fa+qyU2rW1k0x0s/pQnrC0KZDp6L3idhvW/G46QvXzRMKqY8/43ShfuOmmImKjp8nN7iCJwCxD54pagSBoAhA7IMiiXpAAARAICACfsWepZnFtssVVxnR3rzkJ3T59XeSyHPn3gNyq/Qi3tW1F5h7WPir2rTNrYCPmLHITAAK5dgPnjwrJ9j6Xp5InDhysKDY2+UOb2/IfbOgc+lZ4Ks7djVxyucDJ06jNXMm5yYf8k1Fz1G3UlV1u7zJB/LyA3oIi1QDsa88Y7QAAn4JQOz9ksN9IAACIFAhAsXEngV581NzTcss2H1vuTtvlZ7F9tA7m6jbsBtNGs7gex42ZXk1nUWYV+X50mIvKTHSHUmp4X+XSsXRL7cWE3u7nKTqSJuSAsSpQk5i/9HW+jzinObToXsfk4rDExGemEDsK/RQqmoh9pVnjBZAwC8BiL1fcrgPBEAABCpEoJwVe07NefPnj1DN9y+ms9u2NyvfssItK/b637xi77TzjJsce79iLyv7NsJCu+Lwiv3GRTML7vwjOfYQ+wo9jAWqhdiHxxotgYBXAhB7r8RQHgRAAAQqTKAcsZfV+L31r+Vy2kXk+Xd27rydY8+r7rvWPH9GLn6hrTTt1XG3K/b2hEHnxRdKxeGYdY69vOw7csZik4qDFfsKP5BW9RD7cHmjNRDwQgBi74UWyoIACIBACAS8iL1I+5E/vJ0TeVu4pQy/2CppPLKrDHdH74ojaTjykmuhHHsp03Lis7zVfi32/DOn28iuOPa3AhyjpADpnXic7uM49a44sqsPVuxDeCAh9uFDRosg4JMAxN4nONwGAiAAApUi4EXsC8Vg7yGvXzaVHPtKxY56008AK/bpH2P0MLkEIPbJHTtEDgIgkFICfsXeTrmR7R4h9il9UCLqFsQ+IvBoFgRcEIDYu4CEIiAAAiAQJgG/Yh9mjGgruwQg9tkde/Q8/gQg9vEfI0QIAiCQMQIQ+4wNeMK6C7FP2IAh3EwRgNhnarjRWRAAgSQQYLH/x1+uTUKoiDGDBH49cSR9++23Gew5ugwC8ScAsY//GCFCEACBjBFgsb/g7wZlrNfoblIIfPLuFoh9UgYLcWaOAMQ+c0OODoMACMSdAFJx4j5C2Y4PqTjZHn/0Pt4EIPbxHh9EBwIgkEECEPsMDnqCugyxT9BgIdTMEYDYZ27I0WEQAIG4E4DYx32Esh0fxD7b44/ex5sAxD7e44PoQAAEMkggLmJvH3RVaCjK3SOf2+hyxVWm6kPvbKKBE6dncMST1WWIfbLGC9FmiwDEPlvjjd6CAAgkgEBWxP7THb/Pk3mRfJyOG++HFGIf7/FBdNkmALHP9vij9yAAAjEk4EbsW07+md78+SP0wx8/QlVt2ppeNB36I215+lGq7dGX6hdOp/Y/6Ek3zF9JNV0uNr9nkV4xfqj5ufdNE2jYA/OJT6fVn1/490Np9LzldKBhA62eeZcpe92jv6Lq2gto55oXcvfs+u1LdOLIQeo39j7asGAa9Rx1K7GQcwyvTruDGvfvJKmL4+M2tiyto+amRup42ZV09b1zaOuvFtDl19+Zi4/v/eC1Z2jwPQ+buHDFkwDEPp7jgqhAgAlA7PEcgAAIgEDMCJQj9izVlw693qS0sHwf3t5gZPzksU+NcI+csZjO79bLyHjr9rXU95a7aV3d/TRo0kwj2HwPXz2uHUM6FYfFvJTY13S9hF5/aLxpmyWf7z/VeNS0f3zPDlpbNyU30Sgk8ZzWs3nJT/JkP2ZDg3CICGKPxwAE4ksAYh/fsUFkIAACGSVQTOz16rrGw6vqHbr3i+iNJgAAFe9JREFUofWPTaXhDy40ks6r+iLtLSc+yxNzrofFe8T0RbTpybk5sdd1ehV7vpfv4RV/XqWXbxBGzFhETQf35f3OTsORdpGOE/+HHmIf/zFChNklALHP7tij5yAAAjElUM6KPafisEizWGuxP7b7/dzqPae5aOn+4vOmXPqMTtHxI/aS6iNoJR3InlhIKo/9sizEPqYPpQoLYh//MUKE2SUAsc/u2KPnIAACMSVQjtjrFXuWd/m304q9rK4LCi3cxcSef8eXzrHnf+t0HY3XTuXBin1MHz4XYUHsXUBCERCIiADEPiLwaBYEQAAEnAi4EftC98qLq/3GTTE58m5y7LsNu9G8cCur/MVy7CVH/uzzakwuPefRa7G3c+y5rl1rnjepOZyKo6UfOfbJff4h9skdO0SefgIQ+/SPMXoIAiCQMALliD1LeqvW59L2VcvydqVhBE674rCAyw44OhVHPuf8fXmZdvNTc029F/YfSl+1NBfdFUfvymOv2Bd6URa74iTjQYXYJ2OcEGU2CUDssznu6DUIgECMCZQr9rL6HuMumtCwj33cR6hwfBD7ZI4bos4GAYh9NsYZvQQBEEgQgayIPQ8JTp5N0IP536FC7JM3Zog4OwQg9tkZa/QUBEAgIQT8in1CuocwE04AYp/wAUT4qSYAsU/18KJzIAACSSQAsU/iqGUnZoh9dsYaPU0eAYh98sYMEYMACKScAMQ+5QOc8O5B7BM+gAg/1QQg9qkeXnQOBEAgiQQg9kkctezEDLHPzlijp8kjALFP3pghYhAAgZQTgNinfIAT3j2IfcIHEOGnmgDEPtXDi86BAAgkkUAlxN7eR15z0SfM+uHF+8/rQ64K1aH3yuffj11ebw64CurSh3FtW/E4VXfsavbe1xcz4L7ap+3aMejTd4OKr1g9cihYh+596IPXnqHB9zxM32lVFUbTvtqA2PvChptAIBQCEPtQMKMREAABEHBPIGliX6pn+gTaqjZtqeXkn83JtQMnTg9M7rXYO0lxHMXePpRLn/xbimtUv4fYR0Ue7YJAaQIQ+9KMUAIEQAAEQiXgRuxZjt/8+SP0wx8/QizLcrEovjrtDmrcvzPv5FlZsW91Tmva9uzPcr870LAhd+qsnDBb6IRarn/DgmnUun0t8emzfA2ePMvIuV6xbzq4j7YsraPmpkbqeNmVNHDiNFozZ/IZEq+/Qfj6yxYj+h9trS9Yr5yky7/UK/0SJ59we2H/IXS6+RQNe2A+6RV7zYPj5XtkxV5/iyCn5Lac+IxWjB+ai6PLFVfRzjUvmHp5wqBX83n1/7MDe2j3ulVkn87LFchn/DOXtbnJ59yGfHvhNK6hPoAlGoPYx2k0EAsI5BOA2OOJAAEQAIGYEfAr9rIS3mPUbSYNhWXyVONRI6XH9+wwwqoFlLvNYq5TcViE1z82lYY/uJDadOiUk/l+Y+8zP/Ml9a2tm0I3zF9pPpNUHBZ7+bymy8VGpIulv3xzusXU27n3ABOzbp/r5UlKv3FTzujPyWOfmt+NnLGYzu/WKy82EfuLBgwzEwbNQ8Se49Rx8c/CQ8u7ncJki73wFek/vL3B8NHxcb0yOeCfNy/5CV1+/Z109nk1BSdncmhXkKlKQT7iEPsgaaIuEAiWAMQ+WJ6oDQRAAATKJlBM7PVqum6IhZ1ztHWuu5ZkXonWIqtX2d97eWkuJ91OaRGxvfreOfTGE7NzAs6TiHV199OgSTPPEHvdTrHc/kKg7HplkiGTBBFknqjolXTdjoh9IR5O7wJoYfci9jIZsCco/LlMmKprL8iLVfptp+HI53FPx4HYl/0njgpAoGIEIPYVQ4uKQQAEQMAfAb8r9vbquJZkFnstwsXEfvXMu/ICv/Dvh9Ko2UuMqPYcdatJGykm9rZwl3ph1Z6sSFoMB6FFXMv73o2rSVbHebW8kNizUDtNZs76XpVZ5d++almur5Ja5EXs5SVdEXtdH1es6xSuOuVJs4LY+/t7wV0gAAL/nwDEHk8DCIAACMSMgF+xt3enKbZirycB9or9iSMHTYqOvkRcvYq904uyslp9xW2T83LwnSYM/B6BlvdyV+z53QI9MXC7Yq9TdnQKk83H6ZHS5aqq2xXcBQcr9jH7g0Q4IJAgAhD7BA0WQgUBEMgGATdiX4iEmxx7efnUSVD1ZIDTXyRPX1JxvIo9x+m0Kw7nvksevOyQw2W3Pbv4jNx9W+zlhVu+zynH/tIh1+Xl73NfJMdei73Uxd9EcH32ir28M8A58ZyzL+XsbUJ1GpPUyX3kSyZLLPbIsc/G3zF6CQJREIDYR0EdbYIACIBAEQJ+xZ6rdLsrTu+bJuTt9MJpIoV2xeE0HN5FRlJX/Ii9yL1O8dE7xujdaX708BN0fO8Ok/LDK9pOqTiSfiM72PB9nx8+YPaAd9oVZ+jUn1LTx380OwnxJTvxcB/73DyRDjSsz3vRWNJoZEcbLndh/6H0VUvzGS8dy3AW2v3GTtOxd8vBrjj43wEIgEBQBCD2QZFEPSAAAiAQEIFyxD6gEFBNSASwj31IoNEMCGSEAMQ+IwONboIACCSHAMQ+OWMVRKQ4eTYIiqgDBECACUDs8RyAAAiAQMwIQOxjNiAIJ48AtrvEAwEC8SUAsY/v2CAyEACBjBKA2Gd04BPSbYh9QgYKYWaSAMQ+k8OOToMACMSZAMQ+zqOD2CD2eAZAIL4EIPbxHRtEBgIgkFECEPuMDnxCug2xT8hAIcxMEoDYZ3LY0WkQAIE4E4DYx3l0EBvEHs8ACMSXAMQ+vmODyEAABDJKIGixt0+kjRNWve87xyUHaPHP+qCoYjG7LVesDnuvedm/nw/GCuKS+jv3HkAduvfJ259f168PueK9+gtd+nRePkQsyIvHg/fV5+vQO5vOOIGYP4fYB0kcdYFAsAQg9sHyRG0gAAIgUDaBrIi9nGo77IH5xBIrh2uNnLHYnO7qVtjdlnMaGJHu1u1rcyLLJ9RyfHw4VxByr8W+x7VjHJ+RKMWe+6xlXiSfx0JfEPuy/8RRAQhUjADEvmJoUTEIgAAI+CPgRux51fbNnz9iTlHV4smf6xNVWUy/+LzJrBDX9uhL9QunU/sf9KQb5q8kWe3VJ7/K79p06EQbFkwjlt3NT801HZGTWPlnlkA59ZU/P9V4NHeSrf6dPuGWRfGzA3to97pVNOqRp+norneIV7C16HIZvnjVWNc/cOJ0I/pyeq3E2XLis7xyfN/ONS/knap74shBI+z6VF7NwEniOZbqjl1NfLpPHJ98s8Cfv/viL0zMu9e9cgZb+Uai+4ibTZm/HfyjM1bspW6O6cL+Q+h08ykTP188BttXLTM/M8ur751Dbzwx23wmfdiz4Te5OGUCISf3rn9sqrmXnyl5Fl6ddgc17t9J+lsJvm/zkp/Q5dffmXsu7MOz5GmG2Pv7u8ZdIBAGAYh9GJTRBgiAAAh4IOBX7LXU6RXvbsNuJJa5fuOmGEnVK+XH9+zIW5kWse439j4jlXyxZHK5tXVTzITg7PNqzOSBZfn8br3yyp089imxTA5/cCHpyQGXtVfoRdT1hEFj0ivxtnxLnCL8Iu9crpDYS39YeJmNXp3WdRUaJhZc6RNPhvSqOnPhCQiLvrCQlX8ut2vN83lCzWOgU3F40sVjw99S2Cy3rXjchMN9lAkb/1zT9RJaV3c/DZo000i4noDYYi91c591HfxvPR48bh+89gwNvudh8+0JX4Vknz+H2Hv4Y0ZREAiZAMQ+ZOBoDgRAAARKESgm9vbKsdR13aO/cszdtsXUlt9CMi0iLCvqOq+bV8m1POv69m5cTYe3N+St3ktZLarSpv6GgT/Tkl8sxUb/zp4AuBF73WctxqXGhn+v+2tPjHQsdr3yby32TQf3ObLUOfZa2L2IvZ6Q2JMj/e4Fx1Eop75QOg7E3s1TgjIgEA0BiH003NEqCIAACDgS8Lti75RSYr88q8WUg9DpHiLX9gq3Fvtju993lHcWe0mXkQ5Kysd7Ly/NpYwU6rydh64l2X65VU8C3Ii9XvX+aGt9XhpKqRV7bst+yVdSjFjsi00kdKpRIbE/0LDBkSWvokvajPDibwa8iD2nYI2YscikaxWaFEo6D4+pfOthT3o4vUnn2UPs8T8vEIgvAYh9fMcGkYEACGSUgF+xd9r9ppjY2yvsIsnFxL7Uin0hQRQ5lpx1p3cEnFbi7ZdK3a7YO0l7sVV3eey4Db6qay/IS1ey73XK6S9nxV5y6WVi4HbFXqfbVFW3y9t9p9g3NfaLs8IAK/YZ/Z8Qup1YAhD7xA4dAgcBEEgrATdiX6jvdg61yHDfmyfS1l8tzFu5FRnVYv/1ly0md55XZ4uJvdsce8n/lhdrORVHxF5En//Lq+l8Sfw9Rt1m3gWw5V1SfHSchXLs7XcBuD99b7k7Ly9di6zTrjhSD09kZIecs75Xdca7B05ir79BkVx6O8ee+13ofQVb7GW13WnFXhjrnH9b7As9H/odAOTYp/X/KOhXlghA7LM02ugrCIBAIgj4FXvunN75RVJgZFccnZIhMiqSLOkpfW6eSAca1ud2X5GXTe290/VOLizNx/fuKLgrjt55pVAuu53iwu8KyC450gbn3XMbercfiVNe7OUXWCU/X+rkti/sP5S+amk2kwedimLvU2+n+uhdc/Tv+HN+wXT32lVmomTnyNvvBdixnN22veOuODx+P3r4Cfr88AHThkg6f859M98edOxKlw65zkwujvzh7byXmXkM+437F7OrjuyKo1Nx7OfD7iN2xUnE/x4QJAgUJQCxxwMCAiAAAjEjUI7YR9EVNznqUcSFNr0RwD723nihNAjEkQDEPo6jgphAAAQyTSDuYq+/FeCB0nvVZ3rgUtB5nDybgkFEFzJNAGKf6eFH50EABOJIIO5iH0dmiCk8AtgVJzzWaAkEvBKA2HslhvIgAAIgUGECEPsKA0b1ZRGA2JeFDzeDQEUJQOwriheVgwAIgIB3AhB778xwR3gEIPbhsUZLIOCVAMTeKzGUBwEQAIEKE4DYVxgwqi+LAMS+LHy4GQQqSgBiX1G8qBwEQAAEvBOA2HtnhjvCIwCxD481WgIBrwQg9l6JoTwIgAAIVJgAxL48wPbe+FKb3iO/UAv2Xv1uo9D3tenQyewxL/v/u63DLqdP5n3v5aXU5YqrzMFhcbgg9nEYBcQAAoUJQOzxZIAACIBAzAhA7MsbEL/76gch9nzabhCXbDvJMq8lv6pN2yCqL6sOiH1Z+HAzCFSUAMS+onhROQiAAAh4J+BG7AvJHu8vzyeN1vboS/ULp5M+WZQPH9qytI6amxqp42VXmlNi9cmmei96rltOeeXPT5/6Cw2aNNN0ZP1jU81/OcbR85abk1f51Fe5xi6vNyvL3B6fbtvqnNa07dmfEZ/0yqe/rq2bQo37d5Ksnrstx/Xrk2MlXv6cV8hPnzpJu9etIm7/0DubTDjcnn3JKbKt29fS5qfmml/zqa79xt5n6tm+apnh9r/m/h96/5WlefWe361Xrgzfx23pz/R9smJf6CRglnPuy7sv/sK0v3vdK3ljxfd88Noz5vTZ77SqMmX4RFu+5FRe709VcHdA7INjiZpAIGgCEPugiaI+EAABECiTQDli/+q0O+jSodcbqWUZPLy9ISfxLNU3zF9JvKoswjlyxuKcnLLs8n16xZvr2PbsYnMfX1w/38PyznWw6A9/cKGp026PhV/L78mjH+cmA9yGnhiUKvfF5025tiTdheMVIZfYOcZiK/Yi9lxOJjfC5ezzamhd3f1mEqPbkAmCrpfFvNh9LPY1XS8xEyS+n3nx/acaj+ZNqnS/pQ+FJL6Q7Jf5mPm+HWLvGx1uBIGKE4DYVxwxGgABEAABbwSKib1etda18gp4h+598kRbp5a0nPjMiCXLtKwY84o6yy2vCnO9/PsR0xfRpifnGrllWdd1cHta5O1eyeq7CLNuj3+u7tjVrDjLNwsjZiwyK/5uyh1o2JCbpEi8HP/V986hN56YTZ17D8itZhfKsZdvL0TYpbzuXyGx1+W0pMsEQQTenhDw5zLJEObF+s0yf+LIwdzEys6pj1M6DsTe298zSoNAmAQg9mHSRlsgAAIg4IJAOSv2nIrDwszybou9Fnm9us6iLNJ55T/+b9r01NzcKrwt9rp+EVdJaeF/S4oMp/no9oqJvZtyLParZ96VR4/Te0bNXmImBvplVTcr9lK+lNjrcpKeZE+oLhow7IyVfhF7nabE98kEgyda9niw2Ms3EPbLtxB7F384KAICIEAQezwEIAACIBAzAuWIvV5R16kytkjq1XUvK/Za7GWVv9C3AJUQe1nR1sOlV85l15hKib2sytsvyDrtisNxannXcdv8sWIfsz9ChAMCCSUAsU/owCFsEACB9BJwI/aFei958/3GTTFpKXbOu5ZMvzn2TmJ/1veqzIulfEkqjpuVeE7FcVNO59izWEu+uqTiVHrFXr6d4P9yzrzmx7n0hVJx7Bx7Ho9da57PvVtQaMVe3o3gdvSLssixT+/fO3oGAkESgNgHSRN1gQAIgEAABMoRexbvVq3PNbu7cKqKU049h1lolxlevde74gyd+lM6uuu93K44WuxltVx2kuFdXHavXWVSgdwKu9ty8l6ApLZI32RCYYu9Tg+SIdG73xRKxZH8+yN/eDu3K46uV/eX65SdfeTzQvfpXXHsXYqcxB674gTwR4QqQCCjBCD2GR14dBsEQCC+BMoVe8mxD6KHdrpNEHWijtIEsI99aUYoAQIgcCYBiD2eChAAARCIGYEoxd5eldarzDHDlOpwcPJsqocXnQOBihGA2FcMLSoGARAAAX8E/Iq9v9ZwFwh4I4DtLr3xQmkQCJMAxD5M2mgLBEAABFwQgNi7gIQikRGA2EeGHg2DQEkCEPuSiFAABEAABMIlALEPlzda80YAYu+NF0qDQJgEIPZh0kZbIAACIOCCAMTeBSQUiYwAxD4y9GgYBEoSgNiXRIQCIAACIBAuAYh9uLzRmjcCEHtvvFAaBMIkALEPkzbaAgEQAAEXBCD2LiChSGQEIPaRoUfDIFCSAMS+JCIUAAEQAIFwCUDsw+WN1rwRgNh744XSIBAmAYh9mLTRFgiAAAi4IACxdwEJRSIjALGPDD0aBoGSBCD2JRGhAAiAAAiESwBiHy5vtOaNAMTeGy+UBoEwCUDsw6SNtkAABEDABQGIvQtIKBIZAYh9ZOjRMAiUJACxL4kIBUAABEAgXAIQ+3B5ozVvBCD23nihNAiESQBiHyZttAUCIAACLghA7F1AQpHICEDsI0OPhkGgJAGIfUlEKAACIAAC4RKA2IfLG615IwCx98YLpUEgTAIQ+zBpoy0QAAEQcEEAYu8CEopERgBiHxl6NAwCJQlA7EsiQgEQAAEQCJcAi/0//nJtuI2iNRBwSeDXE0fSt99+67I0ioEACIRJAGIfJm20BQIgAAIuCPQf/EMXpVAEBKIj8PvNb0bXOFoGARBwJPD/ALUJO7WClbdhAAAAAElFTkSuQmCC;" vertex="1" parent="1">
          <mxGeometry width="758" height="824" as="geometry" />
        </mxCell>
        <mxCell id="A83YnmEGEa6NBLfLC-lc-2" value="" style="rounded=0;whiteSpace=wrap;html=1;strokeColor=#FFFFFF;" vertex="1" parent="1">
          <mxGeometry x="165" y="10" width="161" height="120" as="geometry" />
        </mxCell>
        <mxCell id="A83YnmEGEa6NBLfLC-lc-3" value="" style="endArrow=block;html=1;rounded=0;endFill=0;entryX=1.026;entryY=0.599;entryDx=0;entryDy=0;entryPerimeter=0;" edge="1" parent="1" target="A83YnmEGEa6NBLfLC-lc-2">
          <mxGeometry width="50" height="50" relative="1" as="geometry">
            <mxPoint x="165" y="30" as="sourcePoint" />
            <mxPoint x="273" y="100" as="targetPoint" />
          </mxGeometry>
        </mxCell>
        <mxCell id="A83YnmEGEa6NBLfLC-lc-4" value="" style="rounded=0;whiteSpace=wrap;html=1;strokeColor=#FFFFFF;" vertex="1" parent="1">
          <mxGeometry x="240" y="137" width="111" height="23" as="geometry" />
        </mxCell>
        <mxCell id="A83YnmEGEa6NBLfLC-lc-5" value="" style="rounded=0;whiteSpace=wrap;html=1;strokeColor=#FFFFFF;" vertex="1" parent="1">
          <mxGeometry x="165" y="122" width="111" height="23" as="geometry" />
        </mxCell>
        <mxCell id="A83YnmEGEa6NBLfLC-lc-6" value="" style="rounded=0;whiteSpace=wrap;html=1;strokeColor=#FFFFFF;" vertex="1" parent="1">
          <mxGeometry x="110" y="138" width="111" height="9" as="geometry" />
        </mxCell>
        <mxCell id="A83YnmEGEa6NBLfLC-lc-7" value="" style="endArrow=block;html=1;rounded=0;endFill=0;entryX=1;entryY=0.75;entryDx=0;entryDy=0;" edge="1" parent="1">
          <mxGeometry width="50" height="50" relative="1" as="geometry">
            <mxPoint x="232" y="159" as="sourcePoint" />
            <mxPoint x="328" y="99" as="targetPoint" />
          </mxGeometry>
        </mxCell>
        <mxCell id="A83YnmEGEa6NBLfLC-lc-8" value="" style="rounded=0;whiteSpace=wrap;html=1;strokeColor=#FFFFFF;" vertex="1" parent="1">
          <mxGeometry x="340" y="137" width="181" height="112" as="geometry" />
        </mxCell>
        <mxCell id="A83YnmEGEa6NBLfLC-lc-9" value="" style="rounded=0;whiteSpace=wrap;html=1;strokeColor=#FFFFFF;" vertex="1" parent="1">
          <mxGeometry x="520" y="145" width="161" height="112" as="geometry" />
        </mxCell>
        <mxCell id="A83YnmEGEa6NBLfLC-lc-10" value="" style="rounded=0;whiteSpace=wrap;html=1;strokeColor=#FFFFFF;" vertex="1" parent="1">
          <mxGeometry x="240" y="162" width="100" height="112" as="geometry" />
        </mxCell>
        <mxCell id="A83YnmEGEa6NBLfLC-lc-11" value="" style="rounded=0;whiteSpace=wrap;html=1;strokeColor=#FFFFFF;" vertex="1" parent="1">
          <mxGeometry x="314" y="147" width="100" height="83" as="geometry" />
        </mxCell>
        <mxCell id="A83YnmEGEa6NBLfLC-lc-12" value="" style="endArrow=block;html=1;rounded=0;endFill=0;entryX=1;entryY=0.75;entryDx=0;entryDy=0;exitX=0.5;exitY=1;exitDx=0;exitDy=0;" edge="1" parent="1" source="A83YnmEGEa6NBLfLC-lc-10">
          <mxGeometry width="50" height="50" relative="1" as="geometry">
            <mxPoint x="270" y="197" as="sourcePoint" />
            <mxPoint x="366" y="137" as="targetPoint" />
          </mxGeometry>
        </mxCell>
        <mxCell id="A83YnmEGEa6NBLfLC-lc-13" value="" style="endArrow=block;html=1;rounded=0;endFill=0;entryX=1;entryY=0.75;entryDx=0;entryDy=0;exitX=0.57;exitY=1.012;exitDx=0;exitDy=0;exitPerimeter=0;" edge="1" parent="1" source="A83YnmEGEa6NBLfLC-lc-8">
          <mxGeometry width="50" height="50" relative="1" as="geometry">
            <mxPoint x="360" y="269.5" as="sourcePoint" />
            <mxPoint x="436" y="132.5" as="targetPoint" />
          </mxGeometry>
        </mxCell>
        <mxCell id="A83YnmEGEa6NBLfLC-lc-14" value="" style="endArrow=block;html=1;rounded=0;endFill=0;entryX=1;entryY=0.75;entryDx=0;entryDy=0;exitX=0.803;exitY=1.033;exitDx=0;exitDy=0;exitPerimeter=0;" edge="1" parent="1" source="A83YnmEGEa6NBLfLC-lc-9">
          <mxGeometry width="50" height="50" relative="1" as="geometry">
            <mxPoint x="507" y="251.75" as="sourcePoint" />
            <mxPoint x="500" y="134.25" as="targetPoint" />
          </mxGeometry>
        </mxCell>
      </root>
    </mxGraphModel>
  </diagram>
</mxfile>
